SplineFontDB: 3.2
FontName: D-DIN-PRO-Condensed-ExtraBold
FullName: D-DIN-PRO-Condensed-ExtraBold
FamilyName: D-DIN-PRO-Condensed
Weight: Extrabold
Copyright: Copyright (c) CyberFei. All rights reserved
Version: 1.1.0
ItalicAngle: 0
UnderlinePosition: -150
UnderlineWidth: 50
Ascent: 831
Descent: 169
InvalidEm: 0
sfntRevision: 0x0001199a
LayerCount: 2
Layer: 0 0 "Back" 1
Layer: 1 0 "Fore" 0
XUID: [1021 868 -1451673819 31372]
StyleMap: 0x0020
FSType: 4
OS2Version: 3
OS2_WeightWidthSlopeOnly: 0
OS2_UseTypoMetrics: 0
CreationTime: 1462909513
ModificationTime: 1778060078
PfmFamily: 17
TTFWeight: 800
TTFWidth: 3
LineGap: 86
VLineGap: 0
Panose: 2 11 8 6 3 2 2 3 2 4
OS2TypoAscent: 831
OS2TypoAOffset: 0
OS2TypoDescent: -169
OS2TypoDOffset: 0
OS2TypoLinegap: 86
OS2WinAscent: 902
OS2WinAOffset: 0
OS2WinDescent: 184
OS2WinDOffset: 0
HheadAscent: 831
HheadAOffset: 0
HheadDescent: -169
HheadDOffset: 0
OS2SubXSize: 650
OS2SubYSize: 600
OS2SubXOff: 0
OS2SubYOff: 75
OS2SupXSize: 650
OS2SupYSize: 600
OS2SupXOff: 0
OS2SupYOff: 350
OS2StrikeYSize: 50
OS2StrikeYPos: 316
OS2CapHeight: 690
OS2XHeight: 528
OS2Vendor: 'MONO'
OS2CodePages: 20000001.00000000
OS2UnicodeRanges: 8000006f.4000000a.00000000.00000000
Lookup: 1 0 0 "'rtla' Right to Left Alternates lookup 0" { "'rtla' Right to Left Alternates lookup 0 subtable"  } ['rtla' ('DFLT' <'dflt' > ) ]
Lookup: 1 0 0 "'sups' Superscript lookup 1" { "'sups' Superscript lookup 1 subtable" ("superior") } ['sups' ('DFLT' <'dflt' > ) ]
Lookup: 4 0 0 "'frac' Diagonal Fractions lookup 2" { "'frac' Diagonal Fractions lookup 2 subtable"  } ['frac' ('DFLT' <'dflt' > ) ]
Lookup: 4 0 0 "'dlig' Discretionary Ligatures in Latin lookup 3" { "'dlig' Discretionary Ligatures in Latin lookup 3 subtable"  } ['dlig' ('latn' <'dflt' > ) ]
Lookup: 4 0 1 "'liga' Standard Ligatures in Latin lookup 4" { "'liga' Standard Ligatures in Latin lookup 4 subtable"  } ['liga' ('latn' <'dflt' > ) ]

StartChar: .notdef
Encoding: 65536 -1 0
Width: 597
GlyphClass: 1
Flags: MW
HStem: 0.320312 50.6992<151.185 454.409 151.185 505.109> 639.92 50.7002<151.185 454.409 151.185 151.185>
VStem: 100.484 50.7002<51.0195 51.0195 51.0195 639.92> 454.409 50.7002<51.0195 639.92 639.92 639.92>
LayerCount: 2
Fore
SplineSet
100.484375 690.620117188 m 1
 505.109375 690.620117188 l 1
 505.109375 0.3203125 l 1
 100.484375 0.3203125 l 1
 100.484375 690.620117188 l 1
151.184570312 51.01953125 m 1
 454.409179688 51.01953125 l 1
 454.409179688 639.919921875 l 1
 151.184570312 639.919921875 l 1
 151.184570312 51.01953125 l 1
EndSplineSet
EndChar

StartChar: exclam
Encoding: 33 33 3
Width: 214
GlyphClass: 2
Flags: MW
HStem: 0.320312 141.375<49.7842 173.609 49.7842 173.609> 670.62 20G<41.5244 182.844 182.844 182.844>
VStem: 49.7842 123.825<0.320312 141.695 0.320312 141.695> 65.8203 92.7275<214.82 214.82>
LayerCount: 2
Fore
SplineSet
41.5244140625 690.620117188 m 1xd0
 182.84375 690.620117188 l 1
 158.547851562 214.8203125 l 1
 65.8203125 214.8203125 l 1
 41.5244140625 690.620117188 l 1xd0
49.7841796875 141.6953125 m 1xe0
 173.609375 141.6953125 l 1
 173.609375 0.3203125 l 1
 49.7841796875 0.3203125 l 1
 49.7841796875 141.6953125 l 1xe0
EndSplineSet
EndChar

StartChar: quotedbl
Encoding: 34 34 4
Width: 354
GlyphClass: 2
Flags: MW
HStem: 388.37 302.25<30.2842 158.009 30.2842 158.009 30.2842 205.784 205.784 333.509>
VStem: 30.2842 127.725<388.37 690.62 388.37 690.62> 205.784 127.725<388.37 690.62 388.37 690.62>
LayerCount: 2
Fore
SplineSet
30.2841796875 690.620117188 m 1
 158.008789062 690.620117188 l 1
 158.008789062 388.370117188 l 1
 30.2841796875 388.370117188 l 1
 30.2841796875 690.620117188 l 1
205.784179688 690.620117188 m 1
 333.508789062 690.620117188 l 1
 333.508789062 388.370117188 l 1
 205.784179688 388.370117188 l 1
 205.784179688 690.620117188 l 1
EndSplineSet
EndChar

StartChar: numbersign
Encoding: 35 35 5
Width: 462
GlyphClass: 2
Flags: MW
HStem: 0.320312 21G<53.7051 161.05 53.7051 53.7051 230.181 336.55 230.181 230.181> 207.995 97.5<15.6592 75.1553 15.6592 85.752 192.123 251.631 15.6592 182.5 368.598 437.834> 400.07 97.5<35.1592 95.6201 35.1592 105.265 35.1592 201.992 212.565 271.12 388.114 456.359> 670.62 20G<125.74 232.065 232.065 232.065 301.2 408.59 408.59 408.59>
LayerCount: 2
Fore
SplineSet
456.359375 497.5703125 m 1
 456.359375 400.0703125 l 1
 378.466796875 400.0703125 l 1
 368.59765625 305.495117188 l 1
 437.833984375 305.495117188 l 1
 437.833984375 207.995117188 l 1
 358 207.995117188 l 1
 336.549804688 0.3203125 l 1
 230.180664062 0.3203125 l 1
 251.630859375 207.995117188 l 1
 182.5 207.995117188 l 1
 161.049804688 0.3203125 l 1
 53.705078125 0.3203125 l 1
 75.1552734375 207.995117188 l 1
 15.6591796875 207.995117188 l 1
 15.6591796875 305.495117188 l 1
 85.751953125 305.495117188 l 1
 95.6201171875 400.0703125 l 1
 35.1591796875 400.0703125 l 1
 35.1591796875 497.5703125 l 1
 105.264648438 497.5703125 l 1
 125.740234375 690.620117188 l 1
 232.065429688 690.620117188 l 1
 212.565429688 497.5703125 l 1
 281.700195312 497.5703125 l 1
 301.200195312 690.620117188 l 1
 408.58984375 690.620117188 l 1
 388.114257812 497.5703125 l 1
 456.359375 497.5703125 l 1
261.251953125 305.495117188 m 1
 271.120117188 400.0703125 l 1
 201.9921875 400.0703125 l 1
 192.123046875 305.495117188 l 1
 261.251953125 305.495117188 l 1
EndSplineSet
EndChar

StartChar: dollar
Encoding: 36 36 6
Width: 429
GlyphClass: 2
Flags: MW
HStem: -43.5547 189.149<179.579 216.659 179.579 266.237 165.812 216.659> 546.32 207.675<194.98 225.551>
VStem: 20.3203 129.475<225.545 225.545> 26.3838 133.575<478.034 511.033> 165.81 100.425<662.938 753.995 658.16 753.995> 252.586 133.573<190.776 227.012>
LayerCount: 2
Fore
SplineSet
142.765625 309.166015625 m 2xe4
 56.0029296875 347.569335938 26.3837890625 400.541992188 26.3837890625 486.844726562 c 0
 26.3837890625 535.221679688 39.4140625 575.657226562 65.99609375 607.0703125 c 0
 91.0068359375 636.62890625 124.612304688 655.25390625 165.809570312 662.9375 c 1
 165.809570312 753.995117188 l 1
 266.234375 753.995117188 l 1
 266.234375 658.16015625 l 1
 312.244140625 643.469726562 375.947265625 601.119140625 379.331054688 479.29296875 c 2
 379.581054688 470.26953125 l 1
 252.806640625 470.26953125 l 1
 251.508789062 520.780273438 244.34375 546.3203125 206.758789062 546.3203125 c 0
 183.202148438 546.3203125 159.958984375 538.051757812 159.958984375 492.6953125 c 0xd8
 159.958984375 463.373046875 169.612304688 441.345703125 211.017578125 424.784179688 c 2
 256.89453125 406.237304688 l 2
 349.252929688 368.20703125 386.159179688 311.762695312 386.159179688 214.8203125 c 0
 386.159179688 166.731445312 375.458984375 126.630859375 353.366210938 95.2177734375 c 0
 332.533203125 65.5947265625 303.157226562 45.5927734375 266.237304688 35.4326171875 c 1
 266.237304688 -43.5546875 l 1
 165.811523438 -43.5546875 l 1
 165.811523438 28.568359375 l 1
 120.987304688 34.5048828125 85.53125 53.103515625 60.90625 84.6240234375 c 0
 22.5595703125 133.70703125 21.0615234375 195.14453125 20.3203125 225.544921875 c 1
 149.794921875 225.544921875 l 1
 151.58984375 188.729492188 156.295898438 145.594726562 202.861328125 145.594726562 c 0
 230.456054688 145.594726562 252.5859375 156.1015625 252.5859375 211.89453125 c 0
 252.5859375 242.129882812 242.463867188 263.860351562 190.498046875 287.735351562 c 0
 190.428710938 287.766601562 142.765625 309.166015625 142.765625 309.166015625 c 2xe4
97.560546875 681.84375 m 1024
EndSplineSet
EndChar

StartChar: percent
Encoding: 37 37 7
Width: 755
GlyphClass: 2
Flags: MW
HStem: -6.50488 89.7002<610.593 619.962 610.593 668.731> 259.67 89.7002<144.542 153.91 144.542 202.68> 340.595 89.7002<610.526 620.023> 606.77 89.7002<144.475 153.976>
VStem: 32.2344 97.501<380.17 389.345 389.345 566.795> 169.711 96.5234<389.345 566.795 566.795 576.314> 498.286 97.501<113.995 123.17 123.17 300.62> 635.761 96.5254<123.17 300.62 300.62 310.14>
LayerCount: 2
Fore
SplineSet
462.9375 698.419921875 m 1x9f
 561.618164062 698.419921875 l 1
 301.581054688 0.3203125 l 1
 202.899414062 0.3203125 l 1
 462.9375 698.419921875 l 1x9f
149.234375 259.669921875 m 0xdf
 90.7197265625 259.669921875 32.234375 283.275390625 32.234375 377.64453125 c 2
 32.234375 578.495117188 l 2
 32.234375 618.981445312 42.34375 696.469726562 149.234375 696.469726562 c 0
 207.749023438 696.469726562 266.234375 672.865234375 266.234375 578.495117188 c 2
 266.234375 377.64453125 l 2
 266.234375 337.158203125 256.125 259.669921875 149.234375 259.669921875 c 0xdf
169.7109375 389.344726562 m 2
 169.7109375 566.794921875 l 2
 169.7109375 585.833984375 167.068359375 597.510742188 164.78515625 601.022460938 c 0
 162.731445312 604.181640625 158.71484375 606.76953125 149.236328125 606.76953125 c 0
 139.712890625 606.76953125 136.072265625 604.176757812 134.33984375 601.290039062 c 0
 132.192382812 597.709960938 129.735351562 585.842773438 129.735351562 566.794921875 c 2
 129.735351562 389.344726562 l 2
 129.735351562 370.995117188 132.087890625 359.283203125 134.434570312 355.176757812 c 0
 136.268554688 351.966796875 139.84765625 349.370117188 149.235351562 349.370117188 c 0
 158.584960938 349.370117188 162.532226562 351.97265625 164.6796875 355.44140625 c 0
 167.176757812 359.475585938 169.7109375 371.013671875 169.7109375 389.344726562 c 2
615.286132812 -6.5048828125 m 0
 556.771484375 -6.5048828125 498.286132812 17.1005859375 498.286132812 111.469726562 c 2
 498.286132812 312.3203125 l 2
 498.286132812 352.806640625 508.395507812 430.294921875 615.286132812 430.294921875 c 0xbf
 673.80078125 430.294921875 732.286132812 406.689453125 732.286132812 312.3203125 c 2
 732.286132812 111.469726562 l 2
 732.286132812 70.9833984375 722.176757812 -6.5048828125 615.286132812 -6.5048828125 c 0
635.760742188 123.169921875 m 2
 635.760742188 300.620117188 l 2
 635.760742188 319.659179688 633.118164062 331.334960938 630.8359375 334.846679688 c 0
 628.77734375 338.010742188 624.759765625 340.594726562 615.287109375 340.594726562 c 0
 605.764648438 340.594726562 602.124023438 338.000976562 600.392578125 335.115234375 c 0
 598.244140625 331.53515625 595.787109375 319.66796875 595.787109375 300.620117188 c 2
 595.787109375 123.169921875 l 2
 595.787109375 104.8203125 598.139648438 93.1083984375 600.486328125 89.001953125 c 0
 602.3203125 85.7919921875 605.899414062 83.1953125 615.287109375 83.1953125 c 0
 624.637695312 83.1953125 628.584960938 85.7978515625 630.731445312 89.2666015625 c 0
 633.228515625 93.2998046875 635.760742188 104.837890625 635.760742188 123.169921875 c 2
EndSplineSet
EndChar

StartChar: ampersand
Encoding: 38 38 8
Width: 513
GlyphClass: 2
Flags: MW
HStem: -9.43262 121.875<191.891 225.338 191.891 238.255> 0.317383 116.024<405.614 482.686 462.21 482.686 462.21 482.686> 594.092 106.278<229.6 250.523>
VStem: 39.0596 130.651<162.74 185.862 162.74 193.76> 77.084 125.776<535.28 566.45> 270.135 125.774<531.413 559.847>
LayerCount: 2
Fore
SplineSet
395.909179688 543.39453125 m 0xac
 395.909179688 472.201171875 353.04296875 410.409179688 300.534179688 353.115234375 c 1
 349.25390625 271.649414062 l 1
 391.35546875 339.376953125 l 1
 486.8671875 273.784179688 l 1
 415.012695312 162.010742188 l 1
 415.012695312 162.010742188 429.764648438 137.424804688 429.857421875 137.266601562 c 0
 439.155273438 121.005859375 448.263671875 116.341796875 462.209960938 116.341796875 c 2
 482.685546875 116.341796875 l 1
 482.685546875 0.3173828125 l 1
 427.110351562 0.3173828125 l 2x6c
 384.118164062 0.3173828125 364.795898438 13.224609375 339.563476562 49.91796875 c 1
 315.3984375 22.140625 276.575195312 -9.4326171875 199.935546875 -9.4326171875 c 0
 152.538085938 -9.4326171875 113.23046875 5.6728515625 83.484375 36.1103515625 c 0
 53.7119140625 66.57421875 39.0595703125 107.115234375 39.0595703125 156.317382812 c 0xb4
 39.0595703125 231.203125 76.48828125 294.759765625 145.115234375 369.013671875 c 1
 90.5693359375 459.266601562 77.083984375 497.526367188 77.083984375 543.39453125 c 0
 77.083984375 589.505859375 91.8759765625 627.8359375 121.654296875 656.921875 c 0
 151.407226562 685.982421875 190.306640625 700.370117188 236.984375 700.370117188 c 0
 283.045898438 700.370117188 321.61328125 685.956054688 351.338867188 656.921875 c 0
 381.1171875 627.8359375 395.909179688 589.505859375 395.909179688 543.39453125 c 0xac
236.985351562 594.091796875 m 0
 222.213867188 594.091796875 202.860351562 586.905273438 202.860351562 549.2421875 c 0
 202.860351562 521.318359375 220.014648438 488.41015625 234.4453125 463.001953125 c 1
 257.697265625 491.313476562 270.134765625 513.583007812 270.134765625 549.2421875 c 0
 270.134765625 570.451171875 264.061523438 594.091796875 236.985351562 594.091796875 c 0
210.455078125 261.346679688 m 1
 185.6328125 231.364257812 169.7109375 203.70703125 169.7109375 168.016601562 c 0
 169.7109375 157.463867188 170.196289062 112.442382812 213.5859375 112.442382812 c 0xb4
 237.08984375 112.442382812 254.124023438 124.654296875 276.14453125 153.853515625 c 1
 210.455078125 261.346679688 l 1
EndSplineSet
EndChar

StartChar: quotesingle
Encoding: 39 39 9
Width: 178
GlyphClass: 2
Flags: MW
HStem: 388.37 302.25<30.2842 158.009 30.2842 158.009>
VStem: 30.2842 127.725<388.37 690.62 388.37 690.62>
LayerCount: 2
Fore
SplineSet
30.2841796875 690.620117188 m 1
 158.008789062 690.620117188 l 1
 158.008789062 388.370117188 l 1
 30.2841796875 388.370117188 l 1
 30.2841796875 690.620117188 l 1
EndSplineSet
EndChar

StartChar: parenleft
Encoding: 40 40 10
Width: 276
GlyphClass: 2
Flags: MW
VStem: 39.0596 128.699<285.076 362.393 285.076 395.667>
LayerCount: 2
Fore
SplineSet
39.0595703125 328.892578125 m 0
 39.0595703125 462.442382812 66.1689453125 602.010742188 137.0625 739.368164062 c 1
 252.045898438 739.368164062 l 1
 216.592773438 653.39453125 200.470703125 593.759765625 188.065429688 531.435546875 c 0
 174.522460938 463.399414062 167.758789062 395.891601562 167.758789062 328.893554688 c 0
 167.758789062 241.258789062 180.046875 93.0166015625 247.049804688 -69.4658203125 c 2
 252.045898438 -81.580078125 l 1
 137.0625 -81.580078125 l 1
 77.9130859375 33.021484375 39.0595703125 168.944335938 39.0595703125 328.892578125 c 0
EndSplineSet
Substitution2: "'rtla' Right to Left Alternates lookup 0 subtable" parenright
EndChar

StartChar: parenright
Encoding: 41 41 11
Width: 276
GlyphClass: 2
Flags: MW
VStem: 119.009 128.7<295.396 372.713>
LayerCount: 2
Fore
SplineSet
119.008789062 328.89453125 m 0
 119.008789062 416.53125 106.720703125 564.774414062 39.7177734375 727.254882812 c 2
 34.72265625 739.370117188 l 1
 149.706054688 739.370117188 l 1
 208.85546875 624.767578125 247.708984375 488.844726562 247.708984375 328.89453125 c 0
 247.708984375 195.345703125 220.599609375 55.77734375 149.706054688 -81.580078125 c 1
 34.72265625 -81.580078125 l 1
 70.17578125 4.3935546875 86.296875 64.0283203125 98.703125 126.352539062 c 0
 112.24609375 194.388671875 119.008789062 261.897460938 119.008789062 328.89453125 c 0
EndSplineSet
Substitution2: "'rtla' Right to Left Alternates lookup 0 subtable" parenleft
EndChar

StartChar: asterisk
Encoding: 42 42 12
Width: 339
GlyphClass: 2
Flags: MW
HStem: 382.52 308.101<133.634 215.534 133.634 215.534>
VStem: 133.634 81.9004<382.52 470.608 607.406 690.62>
LayerCount: 2
Fore
SplineSet
215.534179688 382.51953125 m 1
 133.633789062 382.51953125 l 1
 133.633789062 472.55859375 l 1
 73.837890625 437.751953125 l 1
 36.87890625 502.747070312 l 1
 98.6552734375 538.55859375 l 1
 35.9384765625 575.29296875 l 1
 73.822265625 642.221679688 l 1
 133.633789062 607.40625 l 1
 133.633789062 690.620117188 l 1
 215.534179688 690.620117188 l 1
 215.534179688 605.456054688 l 1
 275.331054688 640.263671875 l 1
 312.315429688 575.220703125 l 1
 249.56640625 539.36328125 l 1
 313.272460938 501.677734375 l 1
 275.283203125 435.829101562 l 1
 215.534179688 470.608398438 l 1
 215.534179688 382.51953125 l 1
EndSplineSet
EndChar

StartChar: plus
Encoding: 43 43 13
Width: 420
GlyphClass: 2
Flags: MW
HStem: 214.82 125.774<33.209 152.159 33.209 152.159 277.935 396.884>
VStem: 152.159 125.775<95.8701 214.82 95.8701 214.82 340.595 459.545>
LayerCount: 2
Fore
SplineSet
277.934570312 214.8203125 m 1
 277.934570312 95.8701171875 l 1
 152.159179688 95.8701171875 l 1
 152.159179688 214.8203125 l 1
 33.208984375 214.8203125 l 1
 33.208984375 340.594726562 l 1
 152.159179688 340.594726562 l 1
 152.159179688 459.544921875 l 1
 277.934570312 459.544921875 l 1
 277.934570312 340.594726562 l 1
 396.883789062 340.594726562 l 1
 396.883789062 214.8203125 l 1
 277.934570312 214.8203125 l 1
EndSplineSet
EndChar

StartChar: comma
Encoding: 44 44 14
Width: 178
GlyphClass: 2
Flags: MW
HStem: -165.236 312.781<30.2842 158.009>
VStem: 30.2842 127.725<-62.3779 147.545 -62.3779 147.545 -62.3779 147.545>
LayerCount: 2
Fore
SplineSet
30.2841796875 147.544921875 m 1
 158.008789062 147.544921875 l 1
 158.008789062 -62.3779296875 l 1
 30.2841796875 -165.236328125 l 1
 30.2841796875 147.544921875 l 1
EndSplineSet
EndChar

StartChar: hyphen
Encoding: 45 45 15
Width: 354
GlyphClass: 2
Flags: MW
HStem: 284.045 124.8<39.0596 324.734 39.0596 324.734>
VStem: 39.0596 285.675<284.045 408.845 284.045 408.845>
LayerCount: 2
Fore
SplineSet
39.0595703125 408.844726562 m 1
 324.734375 408.844726562 l 1
 324.734375 284.044921875 l 1
 39.0595703125 284.044921875 l 1
 39.0595703125 408.844726562 l 1
EndSplineSet
EndChar

StartChar: period
Encoding: 46 46 16
Width: 182
GlyphClass: 2
Flags: MW
HStem: 0.320312 146.25<30.2842 161.909 30.2842 161.909>
VStem: 30.2842 131.625<0.320312 146.57 0.320312 146.57>
LayerCount: 2
Fore
SplineSet
30.2841796875 146.5703125 m 1
 161.909179688 146.5703125 l 1
 161.909179688 0.3203125 l 1
 30.2841796875 0.3203125 l 1
 30.2841796875 146.5703125 l 1
EndSplineSet
EndChar

StartChar: slash
Encoding: 47 47 17
Width: 302
GlyphClass: 2
Flags: MW
HStem: 678.42 20G<167.272 274.833 274.833 274.833>
VStem: 37.2998 237.533
LayerCount: 2
Fore
SplineSet
274.833007812 698.419921875 m 1
 143.860351562 -9.4296875 l 1
 37.2998046875 -9.4296875 l 1
 167.272460938 698.419921875 l 1
 274.833007812 698.419921875 l 1
EndSplineSet
EndChar

StartChar: zero
Encoding: 48 48 18
Width: 410
GlyphClass: 2
Flags: MW
HStem: -9.42969 125.775<203.146 216.624 203.146 276.631> 575.571 125.773<202.69 216.624>
VStem: 39.0596 137.475<190.446 191.421 191.421 501.471> 244.785 136.499<191.421 501.471 501.471 502.445>
LayerCount: 2
Fore
SplineSet
209.684570312 -9.4296875 m 0
 67.634765625 -9.4296875 39.0595703125 94.2763671875 39.0595703125 190.446289062 c 2
 39.0595703125 502.446289062 l 2
 39.0595703125 599.326171875 68.8837890625 701.344726562 209.684570312 701.344726562 c 0
 338.51953125 701.344726562 381.284179688 618.009765625 381.284179688 502.4453125 c 2
 381.284179688 190.4453125 l 2
 381.284179688 80.4912109375 343.577148438 -9.4296875 209.684570312 -9.4296875 c 0
244.78515625 191.420898438 m 2
 244.78515625 501.470703125 l 2
 244.78515625 531.467773438 241.258789062 551.827148438 236.040039062 561.743164062 c 0
 231.197265625 570.944335938 223.563476562 575.571289062 209.684570312 575.571289062 c 0
 195.6953125 575.571289062 188.603515625 571.056640625 184.4296875 562.477539062 c 0
 179.76171875 552.881835938 176.534179688 532.170898438 176.534179688 501.470703125 c 2
 176.534179688 191.420898438 l 2
 176.534179688 160.744140625 179.908203125 139.947265625 184.875 130.01171875 c 0
 189.483398438 120.794921875 196.606445312 116.345703125 209.684570312 116.345703125 c 0
 223.563476562 116.345703125 231.196289062 120.97265625 236.038085938 130.173828125 c 0
 241.23828125 140.051757812 244.78515625 160.759765625 244.78515625 191.420898438 c 2
EndSplineSet
EndChar

StartChar: one
Encoding: 49 49 19
Width: 297
GlyphClass: 2
Flags: MW
HStem: 0.320312 21G<120.959 260.384 120.959 120.959> 670.62 20G<126.627 260.384 260.384 260.384>
VStem: 120.959 139.425<0.320312 524.014 524.014 524.014>
LayerCount: 2
Fore
SplineSet
28.333984375 448.938476562 m 1
 28.333984375 610.951171875 l 1
 126.626953125 690.620117188 l 1
 260.383789062 690.620117188 l 1
 260.383789062 0.3203125 l 1
 120.958984375 0.3203125 l 1
 120.958984375 524.013671875 l 1
 28.333984375 448.938476562 l 1
EndSplineSet
Substitution2: "'sups' Superscript lookup 1 subtable" uni00B9
EndChar

StartChar: two
Encoding: 50 50 20
Width: 398
GlyphClass: 2
Flags: MW
HStem: 0.320312 125.774<193.349 373.484 193.349 373.484> 575.571 124.8<200.077 211.046>
VStem: 39.0596 133.574<472.221 525.846 472.221 540.471 472.221 564.5> 237.959 135.525<492.696 530.721 530.721 536.57>
LayerCount: 2
Fore
SplineSet
373.484375 488.794921875 m 2
 373.484375 439.43359375 364.766601562 400.818359375 323.404296875 334.000976562 c 2
 323.404296875 334.000976562 223.33984375 174.040039062 193.348632812 126.094726562 c 1
 373.484375 126.094726562 l 1
 373.484375 0.3203125 l 1
 35.1591796875 0.3203125 l 1
 35.1591796875 115.913085938 l 1
 207.059570312 393.901367188 l 2
 233.05078125 437.232421875 237.958984375 457.765625 237.958984375 492.696289062 c 2
 237.958984375 530.720703125 l 2
 237.958984375 572.97265625 217.282226562 575.571289062 204.809570312 575.571289062 c 0
 195.34375 575.571289062 172.633789062 574.9375 172.633789062 525.845703125 c 2
 172.633789062 472.220703125 l 1
 39.0595703125 472.220703125 l 1
 39.0595703125 540.470703125 l 2
 39.0595703125 588.529296875 54.5146484375 627.931640625 85.724609375 657.061523438 c 0
 116.848632812 686.110351562 157.955078125 700.37109375 207.734375 700.37109375 c 0
 257.55078125 700.37109375 298.28515625 685.743164062 328.463867188 655.91015625 c 0
 358.645507812 626.076171875 373.484375 585.791015625 373.484375 536.5703125 c 2
 373.484375 488.794921875 l 2
EndSplineSet
Substitution2: "'sups' Superscript lookup 1 subtable" uni00B2
EndChar

StartChar: three
Encoding: 51 51 21
Width: 400
GlyphClass: 2
Flags: MW
HStem: -9.42969 125.775<194.425 208.24 194.425 228.055> 292.821 124.8<159.96 194.085 159.96 196.035> 574.596 125.775<194.424 207.836>
VStem: 34.1855 133.574<154.371 160.221 160.221 212.871 139.749 212.871> 234.061 137.474<167.046 230.42 135.033 236.271 135.033 247.972>
LayerCount: 2
Fore
SplineSet
314.809570312 360.387695312 m 1
 349.830078125 340.771484375 371.534179688 313.455078125 371.534179688 230.419921875 c 2
 371.534179688 161.1953125 l 2
 371.534179688 108.87109375 356.8203125 66.6591796875 326.5859375 36.0771484375 c 0
 296.322265625 5.4658203125 254.2265625 -9.4296875 201.883789062 -9.4296875 c 0
 149 -9.4296875 107.048828125 4.8857421875 77.6689453125 34.6162109375 c 0
 48.443359375 64.189453125 34.185546875 104.607421875 34.185546875 154.37109375 c 2
 34.185546875 212.87109375 l 1
 167.759765625 212.87109375 l 1
 167.759765625 160.220703125 l 2
 167.759765625 119.276367188 187.939453125 116.345703125 200.91015625 116.345703125 c 0
 215.569335938 116.345703125 222.809570312 120.500976562 226.530273438 126.701171875 c 0
 231.040039062 134.21875 234.060546875 147.66796875 234.060546875 167.045898438 c 2
 234.060546875 236.270507812 l 2
 234.060546875 259.673828125 230.526367188 274.991210938 225.778320312 282.112304688 c 0
 221.766601562 288.12890625 212.475585938 292.821289062 194.084960938 292.821289062 c 2
 159.959960938 292.821289062 l 1
 159.959960938 417.62109375 l 1
 196.03515625 417.62109375 l 2
 213.790039062 417.62109375 222.541015625 422.157226562 226.2265625 427.783203125 c 0
 230.822265625 434.798828125 234.059570312 448.280273438 234.059570312 468.321289062 c 2
 234.059570312 523.895507812 l 2
 234.059570312 543.236328125 230.890625 556.579101562 226.15234375 564.060546875 c 0
 222.033203125 570.564453125 214.762695312 574.595703125 200.909179688 574.595703125 c 0
 187.938476562 574.595703125 167.758789062 571.666015625 167.758789062 530.720703125 c 2
 167.758789062 480.99609375 l 1
 34.1845703125 480.99609375 l 1
 34.1845703125 537.545898438 l 2
 34.1845703125 586.763671875 49.0234375 626.912109375 79.2412109375 656.434570312 c 0
 109.502929688 686 151.205078125 700.37109375 202.859375 700.37109375 c 0
 255.15234375 700.37109375 297.068359375 685.84375 327.038085938 655.875 c 0
 357.03125 625.880859375 371.534179688 583.634765625 371.534179688 530.719726562 c 2
 371.534179688 484.89453125 l 2
 371.534179688 409.5078125 346.826171875 379.708007812 314.809570312 360.387695312 c 1
EndSplineSet
Substitution2: "'sups' Superscript lookup 1 subtable" uni00B3
EndChar

StartChar: four
Encoding: 52 52 22
Width: 428
GlyphClass: 2
Flags: MW
HStem: 0.320312 21G<230.159 367.634 230.159 230.159> 112.445 125.774<168.776 230.159 168.776 230.159 367.634 409.56> 670.62 20G<164.124 302.352 302.352 302.352>
VStem: 230.159 137.475<0.320312 112.445 0.320312 112.445 238.22 386.42>
LayerCount: 2
Fore
SplineSet
367.633789062 238.219726562 m 1
 409.559570312 238.219726562 l 1
 409.559570312 112.4453125 l 1
 367.633789062 112.4453125 l 1
 367.633789062 0.3203125 l 1
 230.159179688 0.3203125 l 1
 230.159179688 112.4453125 l 1
 28.333984375 112.4453125 l 1
 28.333984375 230.719726562 l 1
 164.124023438 690.620117188 l 1
 302.3515625 690.620117188 l 1
 168.776367188 238.219726562 l 1
 230.159179688 238.219726562 l 1
 230.159179688 386.419921875 l 1
 367.633789062 386.419921875 l 1
 367.633789062 238.219726562 l 1
EndSplineSet
EndChar

StartChar: five
Encoding: 53 53 23
Width: 407
GlyphClass: 2
Flags: MW
HStem: -9.42969 124.801<199.951 215.516 199.951 235.474> 334.746 121.875<197.473 276.877> 563.871 126.75<173.607 378.357 173.607 173.607>
VStem: 39.0586 135.524<163.146 168.021 168.021 203.121 143.343 203.121> 46.8574 126.75<439.882 563.871 439.882 690.621> 240.883 137.475<168.021 285.996 285.996 290.871 137.754 309.663>
LayerCount: 2
Fore
SplineSet
208.708007812 -9.4296875 m 0xec
 180.555664062 -9.4296875 39.05859375 -9.1796875 39.05859375 163.145507812 c 2
 39.05859375 203.12109375 l 1
 174.583007812 203.12109375 l 1
 174.583007812 168.020507812 l 2xf4
 174.583007812 118.665039062 192.168945312 115.37109375 207.733398438 115.37109375 c 0
 223.298828125 115.37109375 240.8828125 118.666015625 240.8828125 168.020507812 c 2
 240.8828125 285.99609375 l 2
 240.8828125 333.330078125 218.4765625 334.74609375 207.733398438 334.74609375 c 0
 187.211914062 334.74609375 180.091796875 322.12109375 170.536132812 300.62109375 c 1
 46.857421875 300.62109375 l 1
 46.857421875 690.62109375 l 1
 378.357421875 690.62109375 l 1
 378.357421875 563.87109375 l 1
 173.607421875 563.87109375 l 1
 173.607421875 439.881835938 l 1
 192.169921875 451.159179688 214.79296875 456.62109375 240.881835938 456.62109375 c 0
 312.872070312 456.62109375 378.357421875 420.888671875 378.357421875 290.87109375 c 2
 378.357421875 166.071289062 l 2
 378.357421875 109.4375 364.177734375 65.2470703125 334.384765625 35.103515625 c 0
 304.677734375 5.0458984375 262.240234375 -9.4296875 208.708007812 -9.4296875 c 0xec
EndSplineSet
EndChar

StartChar: six
Encoding: 54 54 24
Width: 401
GlyphClass: 2
Flags: MW
HStem: -9.42969 125.774<199.033 216.834 199.033 232.255> 670.62 20G<190.326 333.246 333.246 333.246>
VStem: 35.1592 137.475<164.12 264.545 264.545 274.295 139.437 290.591> 238.935 137.475<160.219 160.22 160.22 269.419 269.419 278.195 134.06 289.227>
LayerCount: 2
Fore
SplineSet
35.1591796875 164.120117188 m 2
 35.1591796875 264.544921875 l 2
 35.1591796875 316.63671875 40.9033203125 351.579101562 69.05859375 417.271484375 c 2
 190.326171875 690.620117188 l 1
 333.24609375 690.620117188 l 1
 221.342773438 433.337890625 l 1
 228.08203125 434.572265625 235.251953125 435.169921875 242.833984375 435.169921875 c 0
 283.889648438 435.169921875 317.306640625 421.014648438 341.20703125 392.543945312 c 0
 365.010742188 364.190429688 376.409179688 325.708984375 376.409179688 278.1953125 c 2
 376.409179688 160.219726562 l 2
 376.409179688 107.900390625 361.697265625 65.8251953125 331.424804688 35.5537109375 c 0
 301.12890625 5.2578125 258.725585938 -9.4296875 205.784179688 -9.4296875 c 0
 151.608398438 -9.4296875 108.818359375 5.205078125 79.095703125 35.626953125 c 0
 49.4111328125 66.009765625 35.1591796875 109.354492188 35.1591796875 164.120117188 c 2
205.784179688 116.344726562 m 0
 227.884765625 116.344726562 238.934570312 130.969726562 238.934570312 160.21875 c 2
 238.934570312 269.418945312 l 2
 238.934570312 309.03515625 219.287109375 312.319335938 205.784179688 312.319335938 c 0
 195.98046875 312.319335938 172.633789062 310.793945312 172.633789062 274.294921875 c 2
 172.633789062 159.245117188 l 2
 172.633789062 119.62890625 192.28125 116.344726562 205.784179688 116.344726562 c 0
EndSplineSet
EndChar

StartChar: seven
Encoding: 55 55 25
Width: 383
GlyphClass: 2
Flags: MW
HStem: 0.320312 21G<63.4297 201.641 63.4297 63.4297> 564.845 125.775<24.4346 228.205 24.4346 368.609>
LayerCount: 2
Fore
SplineSet
368.609375 690.620117188 m 1
 368.609375 572.359375 l 1
 201.640625 0.3203125 l 1
 63.4296875 0.3203125 l 1
 228.205078125 564.844726562 l 1
 24.4345703125 564.844726562 l 1
 24.4345703125 690.620117188 l 1
 368.609375 690.620117188 l 1
EndSplineSet
EndChar

StartChar: eight
Encoding: 56 56 26
Width: 411
GlyphClass: 2
Flags: MW
HStem: -9.42969 123.824<203.422 218.302 203.422 237.462> 295.745 121.875<203.779 216.031> 576.544 123.827<201.946 223.639>
VStem: 39.0596 138.449<168.996 238.221 238.221 246.995 158.001 265.139 473.196 535.594> 243.81 138.449<168.02 168.996 168.996 238.221 140.652 246.995 140.652 270.662 467.791 473.195 473.195 535.594 535.594 536.57>
LayerCount: 2
Fore
SplineSet
210.659179688 -9.4296875 m 0
 179.900390625 -9.4296875 39.0595703125 -7.9951171875 39.0595703125 168.99609375 c 2
 39.0595703125 238.220703125 l 2
 39.0595703125 292.056640625 55.80078125 333.693359375 89.94140625 360.813476562 c 1
 74.8544921875 372.17578125 62.9755859375 387.067382812 54.5087890625 405.12890625 c 0
 44.251953125 427.010742188 39.0595703125 449.772460938 39.0595703125 473.196289062 c 2
 39.0595703125 536.571289062 l 2
 39.0595703125 585.890625 54.6416015625 626.250976562 86.171875 656.048828125 c 0
 117.643554688 685.791015625 159.58984375 700.37109375 210.659179688 700.37109375 c 0
 262.345703125 700.37109375 304.483398438 685.815429688 335.668945312 656.014648438 c 0
 366.86328125 626.20703125 382.258789062 585.864257812 382.258789062 536.5703125 c 2
 382.258789062 473.1953125 l 2
 382.258789062 462.38671875 380.125 398.926757812 331.326171875 361.014648438 c 1
 365.54296875 334.350585938 382.258789062 292.6015625 382.258789062 238.220703125 c 2
 382.258789062 168.99609375 l 2
 382.258789062 112.307617188 367.706054688 67.6591796875 337.345703125 36.6005859375 c 0
 307.041992188 5.599609375 264.264648438 -9.4296875 210.659179688 -9.4296875 c 0
210.659179688 576.543945312 m 0
 193.232421875 576.543945312 177.508789062 567.659179688 177.508789062 535.59375 c 2
 177.508789062 467.34375 l 2
 177.508789062 449.395507812 180.578125 436.537109375 185.483398438 428.533203125 c 0
 189.666992188 421.708007812 196.8984375 417.620117188 210.659179688 417.620117188 c 0
 225.2265625 417.620117188 232.426757812 421.831054688 236.21484375 428.354492188 c 0
 240.8828125 436.39453125 243.809570312 449.3515625 243.809570312 467.34375 c 2
 243.809570312 535.59375 l 2
 243.809570312 557.120117188 236.618164062 576.543945312 210.659179688 576.543945312 c 0
243.809570312 246.995117188 m 2
 243.809570312 294.329101562 221.403320312 295.745117188 210.659179688 295.745117188 c 0
 196.8984375 295.745117188 189.666992188 291.657226562 185.483398438 284.831054688 c 0
 180.541015625 276.767578125 177.508789062 264.251953125 177.508789062 246.995117188 c 2
 177.508789062 168.01953125 l 2
 177.508789062 147.983398438 180.508789062 133.787109375 185.163085938 125.512695312 c 0
 189.018554688 118.658203125 196.184570312 114.39453125 210.659179688 114.39453125 c 0
 225.944335938 114.39453125 233.065429688 118.784179688 236.541992188 125.328125 c 0
 240.962890625 133.650390625 243.809570312 147.946289062 243.809570312 168.01953125 c 2
 243.809570312 246.995117188 l 2
EndSplineSet
EndChar

StartChar: nine
Encoding: 57 57 27
Width: 401
GlyphClass: 2
Flags: MW
HStem: 0.320312 21G<78.3223 221.224 78.3223 78.3223> 574.595 125.775<199.726 212.96>
VStem: 35.1592 137.476<412.745 421.52 421.52 530.72 402.027 556.88> 238.936 137.474<416.645 426.395 426.395 526.82 398.79 531.695 398.79 551.812>
LayerCount: 2
Fore
SplineSet
168.734375 255.76953125 m 0
 127.678710938 255.76953125 94.26171875 269.92578125 70.361328125 298.395507812 c 0
 46.556640625 326.75 35.1591796875 365.231445312 35.1591796875 412.745117188 c 2
 35.1591796875 530.719726562 l 2
 35.1591796875 583.040039062 49.87109375 625.114257812 80.142578125 655.385742188 c 0
 110.462890625 685.706054688 153.197265625 700.370117188 206.758789062 700.370117188 c 0
 260.9296875 700.370117188 303.584960938 685.737304688 332.99609375 655.275390625 c 0
 362.338867188 624.885742188 376.409179688 581.565429688 376.409179688 526.8203125 c 2
 376.409179688 426.39453125 l 2
 376.409179688 371.185546875 369.926757812 333.896484375 343.473632812 273.64453125 c 2
 221.223632812 0.3203125 l 1
 78.322265625 0.3203125 l 1
 190.13671875 257.397460938 l 1
 183.619140625 256.283203125 176.485351562 255.76953125 168.734375 255.76953125 c 0
206.759765625 378.620117188 m 0
 214.291015625 378.620117188 238.935546875 379.294921875 238.935546875 416.64453125 c 2
 238.935546875 531.6953125 l 2
 238.935546875 571.9296875 219.16015625 574.594726562 206.759765625 574.594726562 c 0
 192.69140625 574.594726562 172.634765625 571.051757812 172.634765625 530.719726562 c 2
 172.634765625 421.51953125 l 2
 172.634765625 382.53515625 192.123046875 378.620117188 206.759765625 378.620117188 c 0
EndSplineSet
EndChar

StartChar: colon
Encoding: 58 58 28
Width: 182
GlyphClass: 2
Flags: MW
HStem: 0.320312 146.25<30.2842 161.909 30.2842 161.909> 329.87 146.25<30.2842 161.909 30.2842 161.909>
VStem: 30.2842 131.625<0.320312 146.57 0.320312 146.57 329.87 476.12>
LayerCount: 2
Fore
SplineSet
30.2841796875 146.5703125 m 1
 161.909179688 146.5703125 l 1
 161.909179688 0.3203125 l 1
 30.2841796875 0.3203125 l 1
 30.2841796875 146.5703125 l 1
30.2841796875 476.120117188 m 1
 161.909179688 476.120117188 l 1
 161.909179688 329.870117188 l 1
 30.2841796875 329.870117188 l 1
 30.2841796875 476.120117188 l 1
EndSplineSet
EndChar

StartChar: semicolon
Encoding: 59 59 29
Width: 182
GlyphClass: 2
Flags: MW
HStem: 329.87 146.25<30.2842 161.909 30.2842 161.909>
VStem: 34.1846 127.725<-62.3779 147.545 -62.3779 147.545 -62.3779 147.545>
LayerCount: 2
Fore
SplineSet
30.2841796875 476.120117188 m 1
 161.909179688 476.120117188 l 1
 161.909179688 329.870117188 l 1
 30.2841796875 329.870117188 l 1
 30.2841796875 476.120117188 l 1
34.1845703125 147.544921875 m 1
 161.909179688 147.544921875 l 1
 161.909179688 -62.3779296875 l 1
 34.1845703125 -165.236328125 l 1
 34.1845703125 147.544921875 l 1
EndSplineSet
EndChar

StartChar: less
Encoding: 60 60 30
Width: 420
GlyphClass: 2
Flags: W
LayerCount: 2
Fore
SplineSet
33.208984375 229.372070312 m 1
 33.208984375 327.018554688 l 1
 384.208984375 468.649414062 l 1
 384.208984375 353.069335938 l 1
 187.549804688 278.1953125 l 1
 384.208984375 203.3203125 l 1
 384.208984375 87.740234375 l 1
 33.208984375 229.372070312 l 1
EndSplineSet
Substitution2: "'rtla' Right to Left Alternates lookup 0 subtable" greater
EndChar

StartChar: equal
Encoding: 61 61 31
Width: 420
GlyphClass: 2
Flags: MW
HStem: 129.02 110.176<33.209 384.209 33.209 384.209> 317.195 109.199<33.209 384.209 33.209 384.209>
LayerCount: 2
Fore
SplineSet
33.208984375 426.39453125 m 1
 384.208984375 426.39453125 l 1
 384.208984375 317.1953125 l 1
 33.208984375 317.1953125 l 1
 33.208984375 426.39453125 l 1
33.208984375 239.1953125 m 1
 384.208984375 239.1953125 l 1
 384.208984375 129.01953125 l 1
 33.208984375 129.01953125 l 1
 33.208984375 239.1953125 l 1
EndSplineSet
EndChar

StartChar: greater
Encoding: 62 62 32
Width: 420
GlyphClass: 2
Flags: W
LayerCount: 2
Fore
SplineSet
33.208984375 353.080078125 m 1
 33.208984375 468.649414062 l 1
 384.208984375 327.018554688 l 1
 384.208984375 229.372070312 l 1
 33.208984375 87.740234375 l 1
 33.208984375 203.310546875 l 1
 228.9921875 278.1953125 l 1
 33.208984375 353.080078125 l 1
EndSplineSet
Substitution2: "'rtla' Right to Left Alternates lookup 0 subtable" less
EndChar

StartChar: question
Encoding: 63 63 33
Width: 378
GlyphClass: 2
Flags: MW
HStem: 0.320312 141.375<127.784 252.584 127.784 252.584> 579.47 119.925<181.134 196.657>
VStem: 21.5088 130.65<484.895 493.67 484.895 568.263> 127.784 124.8<0.320312 141.695 0.320312 141.695 193.37 244.07 244.07 245.045 0.320312 276.055> 227.235 133.574<507.528 551.918>
LayerCount: 2
Fore
SplineSet
21.5087890625 493.669921875 m 2xe8
 21.5087890625 642.856445312 84.5703125 699.39453125 191.158203125 699.39453125 c 0
 242.244140625 699.39453125 283.934570312 684.6328125 314.778320312 654.481445312 c 0
 345.729492188 624.2265625 360.809570312 582.110351562 360.809570312 529.745117188 c 0xe8
 360.809570312 470.659179688 346.793945312 435.774414062 315.40625 389.2734375 c 2
 277.26171875 333.524414062 l 2
 258.025390625 306.806640625 252.583984375 291.198242188 252.583984375 245.044921875 c 2
 252.583984375 193.370117188 l 1
 127.784179688 193.370117188 l 1
 127.784179688 244.0703125 l 2xd0
 127.784179688 308.040039062 135.771484375 332.729492188 168.112304688 384.236328125 c 0
 168.122070312 384.251953125 202.288085938 438.916015625 202.288085938 438.916015625 c 2
 221.620117188 469.120117188 227.235351562 488.236328125 227.235351562 526.8203125 c 0
 227.235351562 577.015625 203.12890625 579.469726562 190.185546875 579.469726562 c 0
 172.083007812 579.469726562 163.776367188 573.771484375 159.860351562 563.63671875 c 0
 155.115234375 551.35546875 152.159179688 527.65234375 152.159179688 493.669921875 c 2
 152.159179688 484.89453125 l 1
 21.5087890625 484.89453125 l 1
 21.5087890625 493.669921875 l 2xe8
127.784179688 141.6953125 m 1xd0
 252.583984375 141.6953125 l 1
 252.583984375 0.3203125 l 1
 127.784179688 0.3203125 l 1
 127.784179688 141.6953125 l 1xd0
EndSplineSet
EndChar

StartChar: at
Encoding: 64 64 34
Width: 708
GlyphClass: 2
Flags: MW
HStem: -130.33 107.251<305.312 399.584 305.312 416.341> 54.9199 105.301<523.64 542.464 523.64 558.009> 401.045 107.251<294.913 363.747> 595.071 107.249<304.917 392.843>
VStem: 39.0596 115.049<203.12 212.871 212.871 368.871> 211.633 118.952<209.946 359.12> 388.11 118.949<209.945 359.12 359.12 379.463> 565.56 113.1<206.046 219.695 219.695 373.745>
LayerCount: 2
Fore
SplineSet
358.859375 -130.330078125 m 0
 149.638671875 -130.330078125 39.0595703125 8.2421875 39.0595703125 203.120117188 c 2
 39.0595703125 369.844726562 l 2
 39.0595703125 573.698242188 165.782226562 702.3203125 358.859375 702.3203125 c 0
 553.42578125 702.3203125 678.659179688 572.7421875 678.659179688 373.745117188 c 2
 678.659179688 219.6953125 l 2
 678.659179688 167.739257812 666.868164062 126.7578125 641.907226562 97.9306640625 c 0
 616.866210938 69.0107421875 580.684570312 54.919921875 535.333007812 54.919921875 c 0
 502.204101562 54.919921875 452.403320312 63.5849609375 420.713867188 109.418945312 c 1
 403.401367188 74.1123046875 374.426757812 54.919921875 322.783203125 54.919921875 c 0
 236.94921875 54.919921875 211.6328125 120.342773438 211.6328125 209.946289062 c 2
 211.6328125 363.99609375 l 2
 211.6328125 487.046875 269.966796875 508.295898438 319.858398438 508.295898438 c 0
 357.202148438 508.295898438 376.625 493.099609375 387.133789062 482.008789062 c 1
 387.133789062 500.49609375 l 1
 507.059570312 500.49609375 l 1
 507.059570312 196.295898438 l 2
 507.059570312 180.830078125 510.969726562 160.220703125 536.309570312 160.220703125 c 0
 548.618164062 160.220703125 554.763671875 163.955078125 558.40625 170.387695312 c 0
 562.860351562 178.247070312 565.559570312 190.068359375 565.559570312 206.045898438 c 2
 565.559570312 382.520507812 l 2
 565.559570312 451.881835938 547.493164062 503.952148438 512.448242188 540.225585938 c 0
 477.458007812 576.443359375 426.827148438 595.071289062 358.859375 595.071289062 c 0
 250.973632812 595.071289062 154.108398438 548.927734375 154.108398438 368.87109375 c 2
 154.108398438 212.87109375 l 2
 154.108398438 23.12109375 251.764648438 -23.0791015625 358.858398438 -23.0791015625 c 0
 440.309570312 -23.0791015625 478.142578125 0.5546875 515.990234375 27.1494140625 c 1
 575.770507812 -57.24609375 l 1
 540.357421875 -83.0673828125 473.823242188 -130.330078125 358.859375 -130.330078125 c 0
358.860351562 401.044921875 m 0
 350.061523438 401.044921875 330.584960938 400.364257812 330.584960938 359.120117188 c 2
 330.584960938 207.01953125 l 2
 330.584960938 190.327148438 333.365234375 178.5703125 337.603515625 171.58984375 c 0
 341.19921875 165.66796875 347.151367188 162.169921875 358.860351562 162.169921875 c 0
 371.885742188 162.169921875 377.953125 166.072265625 381.282226562 172.522460938 c 0
 385.538085938 180.76953125 388.110351562 193.233398438 388.110351562 209.9453125 c 2
 388.110351562 359.120117188 l 2
 388.110351562 399.806640625 368.633789062 401.044921875 358.860351562 401.044921875 c 0
EndSplineSet
EndChar

StartChar: A
Encoding: 65 65 35
Width: 484
GlyphClass: 2
Flags: MW
HStem: 0.320312 21G<5.32227 5.32227 5.32227 148.566 345.877 345.877 345.877 489.105> 130.97 124.8<201.939 293.479 201.939 318.577 175.866 293.479> 670.62 20G<182.399 313.028 313.028 313.028>
LayerCount: 2
Fore
SplineSet
5.322265625 0.3203125 m 1
 182.399414062 690.620117188 l 1
 313.028320312 690.620117188 l 1
 489.10546875 0.3203125 l 1
 345.876953125 0.3203125 l 1
 318.577148438 130.969726562 l 1
 175.866210938 130.969726562 l 1
 148.56640625 0.3203125 l 1
 5.322265625 0.3203125 l 1
201.939453125 255.76953125 m 1
 293.478515625 255.76953125 l 1
 247.708984375 476.7265625 l 1
 201.939453125 255.76953125 l 1
EndSplineSet
EndChar

StartChar: B
Encoding: 66 66 36
Width: 456
GlyphClass: 2
Flags: MW
HStem: 0.321289 124.799<179.459 220.409 220.409 234.059> 299.645 120.9<179.459 220.409 179.459 221.384> 565.821 124.8<179.459 221.384 179.459 179.459>
VStem: 42.958 136.501<125.12 299.645 125.12 420.545 420.545 565.821> 289.634 137.476<195.694 225.258 169.452 229.33>
LayerCount: 2
Fore
SplineSet
425.158203125 500.495117188 m 0
 425.158203125 401.98828125 378.649414062 372.28125 362.184570312 362.209960938 c 1
 384.987304688 348.84765625 401.495117188 330.661132812 410.856445312 307.844726562 c 0
 421.885742188 280.959960938 427.109375 246.419921875 427.109375 204.095703125 c 0
 427.109375 134.807617188 413.090820312 82.85546875 382.915039062 49.5224609375 c 0
 352.479492188 15.9013671875 302.150390625 0.3212890625 234.05859375 0.3212890625 c 2
 42.9580078125 0.3212890625 l 1
 42.9580078125 690.62109375 l 1
 234.05859375 690.62109375 l 2
 300.797851562 690.62109375 350.313476562 676.071289062 380.767578125 644.553710938 c 0
 411.038085938 613.228515625 425.158203125 564.692382812 425.158203125 500.495117188 c 0
179.458984375 420.544921875 m 1
 221.383789062 420.544921875 l 2
 248.2578125 420.544921875 264.774414062 426.801757812 273.267578125 436.543945312 c 0
 282.130859375 446.709960938 287.684570312 465.055664062 287.684570312 492.6953125 c 0
 287.684570312 521.729492188 282.028320312 540.518554688 273.34375 550.223632812 c 0
 264.87890625 559.684570312 248.295898438 565.821289062 221.383789062 565.821289062 c 2
 179.458984375 565.821289062 l 1
 179.458984375 420.544921875 l 1
289.633789062 212.870117188 m 0
 289.633789062 245.7890625 283.528320312 268.072265625 273.53125 280.500976562 c 0
 263.79296875 292.607421875 246.938476562 299.64453125 220.409179688 299.64453125 c 2
 179.458984375 299.64453125 l 1
 179.458984375 125.120117188 l 1
 220.409179688 125.120117188 l 2
 249.161132812 125.120117188 266.279296875 132.25 274.829101562 143.565429688 c 0
 283.892578125 155.561523438 289.633789062 178.518554688 289.633789062 212.870117188 c 0
EndSplineSet
EndChar

StartChar: C
Encoding: 67 67 37
Width: 468
GlyphClass: 2
Flags: MW
HStem: -7.48047 125.776<227.865 254.437 227.865 265.151> 574.596 125.775<227.32 270.561>
VStem: 39.0605 137.474<194.346 207.996 207.996 478.071> 301.334 137.476<465.396 493.671 493.671 494.646 465.396 501.872>
LayerCount: 2
Fore
SplineSet
239.909179688 118.295898438 m 0
 268.963867188 118.295898438 301.333984375 134.248046875 301.333984375 198.24609375 c 2
 301.333984375 224.571289062 l 1
 437.833984375 224.571289062 l 1
 437.833984375 197.270507812 l 2
 437.833984375 130.697265625 419.244140625 78.9775390625 380.848632812 44.041015625 c 0
 342.9765625 9.580078125 294.29296875 -7.48046875 236.008789062 -7.48046875 c 0
 176.491210938 -7.48046875 128.149414062 9.541015625 92.4228515625 44.23828125 c 0
 56.451171875 79.171875 39.060546875 129.776367188 39.060546875 194.345703125 c 2
 39.060546875 497.571289062 l 2
 39.060546875 562.875 57.5126953125 613.916992188 95.5283203125 648.822265625 c 0
 133.151367188 683.3671875 182.676757812 700.37109375 242.834960938 700.37109375 c 0
 300.46484375 700.37109375 348.084960938 683.467773438 384.377929688 649.228515625 c 0
 421.163085938 614.526367188 438.809570312 562.380859375 438.809570312 494.645507812 c 2
 438.809570312 465.395507812 l 1
 301.333984375 465.395507812 l 1
 301.333984375 493.670898438 l 2
 301.333984375 510.072265625 301.211914062 574.595703125 239.909179688 574.595703125 c 0
 214.731445312 574.595703125 176.534179688 568.440429688 176.534179688 478.071289062 c 2
 176.534179688 207.99609375 l 2
 176.534179688 125.400390625 215.8203125 118.295898438 239.909179688 118.295898438 c 0
EndSplineSet
EndChar

StartChar: D
Encoding: 68 68 38
Width: 463
GlyphClass: 2
Flags: MW
HStem: 0.320312 124.801<179.459 232.109> 564.846 125.774<179.459 235.034 179.459 179.459>
VStem: 42.959 136.5<125.121 564.846 125.121 690.62 125.121 690.62> 296.459 137.476<215.797 468.322 468.322 488.796>
LayerCount: 2
Fore
SplineSet
433.934570312 488.795898438 m 2
 433.934570312 202.145507812 l 2
 433.934570312 137.466796875 415.459960938 86.75390625 377.465820312 51.8681640625 c 0
 339.884765625 17.361328125 291.015625 0.3203125 232.109375 0.3203125 c 2
 42.958984375 0.3203125 l 1
 42.958984375 690.620117188 l 1
 237.958984375 690.620117188 l 2
 296.2109375 690.620117188 344.018554688 673.737304688 380.021484375 639.450195312 c 0
 416.384765625 604.817382812 433.934570312 554.004882812 433.934570312 488.795898438 c 2
296.458984375 468.322265625 m 2
 296.458984375 563.982421875 250.043945312 564.845703125 235.034179688 564.845703125 c 2
 179.458984375 564.845703125 l 1
 179.458984375 125.12109375 l 1
 235.034179688 125.12109375 l 2
 255.346679688 125.12109375 269.569335938 132.46875 279.953125 147.623046875 c 0
 290.583007812 163.137695312 296.458984375 185.673828125 296.458984375 215.796875 c 2
 296.458984375 468.322265625 l 2
EndSplineSet
EndChar

StartChar: E
Encoding: 69 69 39
Width: 377
GlyphClass: 2
Flags: MW
HStem: 0.320312 124.8<179.459 360.81 179.459 360.81> 288.92 124.8<179.459 335.459 179.459 335.459> 564.845 125.775<179.459 360.81 179.459 179.459>
VStem: 42.959 136.5<125.12 125.12 125.12 288.92 413.72 564.845> 42.959 317.851<0.320312 125.12 564.845 690.62>
LayerCount: 2
Fore
SplineSet
179.458984375 125.120117188 m 1xf0
 360.809570312 125.120117188 l 1
 360.809570312 0.3203125 l 1
 42.958984375 0.3203125 l 1
 42.958984375 690.620117188 l 1
 360.809570312 690.620117188 l 1
 360.809570312 564.844726562 l 1xe8
 179.458984375 564.844726562 l 1
 179.458984375 413.719726562 l 1
 335.458984375 413.719726562 l 1
 335.458984375 288.919921875 l 1
 179.458984375 288.919921875 l 1
 179.458984375 125.120117188 l 1xf0
EndSplineSet
EndChar

StartChar: F
Encoding: 70 70 40
Width: 373
GlyphClass: 2
Flags: MW
HStem: 0.320312 21G<42.959 180.435 42.959 42.959> 285.02 125.775<180.435 336.435 180.435 336.435> 564.845 125.775<180.435 360.81 180.435 180.435>
VStem: 42.959 137.476<0.320312 285.02 0.320312 410.795 410.795 564.845>
LayerCount: 2
Fore
SplineSet
180.434570312 285.01953125 m 1
 180.434570312 0.3203125 l 1
 42.958984375 0.3203125 l 1
 42.958984375 690.620117188 l 1
 360.809570312 690.620117188 l 1
 360.809570312 564.844726562 l 1
 180.434570312 564.844726562 l 1
 180.434570312 410.794921875 l 1
 336.434570312 410.794921875 l 1
 336.434570312 285.01953125 l 1
 180.434570312 285.01953125 l 1
EndSplineSet
EndChar

StartChar: G
Encoding: 71 71 41
Width: 468
GlyphClass: 2
Flags: MW
HStem: -7.48047 125.775<227.865 247.165 227.865 265.473> 264.545 112.125<230.159 301.334 230.159 438.81> 574.595 125.775<227.32 249.281>
VStem: 39.0596 137.475<194.345 207.995 207.995 478.07> 301.334 137.476<202.145 264.545 264.545 264.545>
LayerCount: 2
Fore
SplineSet
239.909179688 118.294921875 m 0
 254.419921875 118.294921875 301.333984375 118.873046875 301.333984375 202.14453125 c 2
 301.333984375 264.544921875 l 1
 230.159179688 264.544921875 l 1
 230.159179688 376.669921875 l 1
 438.809570312 376.669921875 l 1
 438.809570312 194.344726562 l 2
 438.809570312 130.268554688 420.130859375 79.7294921875 381.85546875 44.5576171875 c 0
 343.966796875 9.7412109375 294.9375 -7.48046875 236.008789062 -7.48046875 c 0
 176.491210938 -7.48046875 128.149414062 9.541015625 92.4228515625 44.23828125 c 0
 56.451171875 79.171875 39.0595703125 129.775390625 39.0595703125 194.344726562 c 2
 39.0595703125 497.5703125 l 2
 39.0595703125 562.874023438 57.51171875 613.916015625 95.52734375 648.822265625 c 0
 133.150390625 683.366210938 182.67578125 700.370117188 242.833984375 700.370117188 c 0
 300.423828125 700.370117188 348.008789062 683.828125 384.3125 650.263671875 c 0
 421.0390625 616.307617188 438.80859375 566.412109375 438.80859375 502.4453125 c 2
 438.80859375 473.1953125 l 1
 301.333007812 473.1953125 l 1
 301.333007812 502.4453125 l 2
 301.333007812 527.03515625 295.220703125 544.568359375 284.182617188 556.43359375 c 0
 272.90625 568.556640625 258.65234375 574.594726562 239.909179688 574.594726562 c 0
 214.731445312 574.594726562 176.534179688 568.439453125 176.534179688 478.0703125 c 2
 176.534179688 207.995117188 l 2
 176.534179688 125.399414062 215.8203125 118.294921875 239.909179688 118.294921875 c 0
EndSplineSet
EndChar

StartChar: H
Encoding: 72 72 42
Width: 460
GlyphClass: 2
Flags: MW
HStem: 0.320312 21G<42.959 180.435 42.959 42.959 289.634 427.109 289.634 289.634> 288.92 124.8<180.435 289.634 180.435 289.634> 670.62 20G<42.959 180.435 180.435 180.435 289.634 427.109 427.109 427.109>
VStem: 42.959 137.476<0.320312 288.92 0.320312 413.72 413.72 690.62> 289.634 137.476<0.320312 288.92 288.92 288.92 413.72 690.62 0.320312 690.62>
LayerCount: 2
Fore
SplineSet
427.109375 690.620117188 m 1
 427.109375 0.3203125 l 1
 289.633789062 0.3203125 l 1
 289.633789062 288.919921875 l 1
 180.434570312 288.919921875 l 1
 180.434570312 0.3203125 l 1
 42.958984375 0.3203125 l 1
 42.958984375 690.620117188 l 1
 180.434570312 690.620117188 l 1
 180.434570312 413.719726562 l 1
 289.633789062 413.719726562 l 1
 289.633789062 690.620117188 l 1
 427.109375 690.620117188 l 1
EndSplineSet
EndChar

StartChar: I
Encoding: 73 73 43
Width: 220
GlyphClass: 2
Flags: MW
HStem: 0.320312 21G<46.8594 183.359 46.8594 46.8594> 670.62 20G<46.8594 183.359 183.359 183.359>
VStem: 46.8594 136.5<0.320312 690.62 0.320312 690.62>
LayerCount: 2
Fore
SplineSet
46.859375 690.620117188 m 1
 183.359375 690.620117188 l 1
 183.359375 0.3203125 l 1
 46.859375 0.3203125 l 1
 46.859375 690.620117188 l 1
EndSplineSet
EndChar

StartChar: J
Encoding: 74 74 44
Width: 271
GlyphClass: 2
Flags: MW
HStem: 0.320312 125.774<18.584 42.959 42.959 50.7588 18.584 42.959> 670.62 20G<96.584 234.06 234.06 234.06>
VStem: 96.584 137.476<182.645 690.62>
LayerCount: 2
Fore
SplineSet
234.059570312 168.995117188 m 2
 234.059570312 79.060546875 193.345703125 0.3203125 50.7587890625 0.3203125 c 2
 18.583984375 0.3203125 l 1
 18.583984375 126.094726562 l 1
 42.958984375 126.094726562 l 2
 74.033203125 126.094726562 96.583984375 138.470703125 96.583984375 182.64453125 c 2
 96.583984375 690.620117188 l 1
 234.059570312 690.620117188 l 1
 234.059570312 168.995117188 l 2
EndSplineSet
EndChar

StartChar: K
Encoding: 75 75 45
Width: 460
GlyphClass: 2
Flags: MW
HStem: 0.320312 21G<42.959 179.459 42.959 42.959 321.68 468.453 321.68 321.68> 670.62 20G<42.959 179.459 179.459 179.459 308.346 448.223 448.223 448.223>
VStem: 42.959 136.5<0.320312 159.105 405.666 690.62>
LayerCount: 2
Fore
SplineSet
321.6796875 0.3203125 m 1
 224.290039062 247.966796875 l 1
 179.458984375 159.10546875 l 1
 179.458984375 0.3203125 l 1
 42.958984375 0.3203125 l 1
 42.958984375 690.620117188 l 1
 179.458984375 690.620117188 l 1
 179.458984375 405.666015625 l 1
 308.345703125 690.620117188 l 1
 448.22265625 690.620117188 l 1
 303.17578125 404.5546875 l 1
 468.453125 0.3203125 l 1
 321.6796875 0.3203125 l 1
EndSplineSet
EndChar

StartChar: L
Encoding: 76 76 46
Width: 369
GlyphClass: 2
Flags: MW
HStem: 0.320312 124.8<180.435 360.81 180.435 360.81> 670.62 20G<42.959 180.435 180.435 180.435>
VStem: 42.959 137.476<125.12 690.62 125.12 690.62 125.12 690.62>
LayerCount: 2
Fore
SplineSet
42.958984375 690.620117188 m 1
 180.434570312 690.620117188 l 1
 180.434570312 125.120117188 l 1
 360.809570312 125.120117188 l 1
 360.809570312 0.3203125 l 1
 42.958984375 0.3203125 l 1
 42.958984375 690.620117188 l 1
EndSplineSet
EndChar

StartChar: M
Encoding: 77 77 47
Width: 569
GlyphClass: 2
Flags: MW
HStem: 0.320312 21G<42.959 180.435 42.959 42.959 397.859 535.334 397.859 397.859> 670.62 20G<42.959 178.008 178.008 178.008 400.302 535.334 535.334 535.334>
VStem: 42.959 137.476<0.320312 344.811 0.320312 690.62> 397.859 137.475<0.320312 347.749 347.749 347.749>
LayerCount: 2
Fore
SplineSet
535.333984375 690.620117188 m 1
 535.333984375 0.3203125 l 1
 397.859375 0.3203125 l 1
 397.859375 347.749023438 l 1
 327.205078125 130.969726562 l 1
 250.112304688 130.969726562 l 1
 180.434570312 344.810546875 l 1
 180.434570312 0.3203125 l 1
 42.958984375 0.3203125 l 1
 42.958984375 690.620117188 l 1
 178.0078125 690.620117188 l 1
 288.693359375 354.872070312 l 1
 400.301757812 690.620117188 l 1
 535.333984375 690.620117188 l 1
EndSplineSet
EndChar

StartChar: N
Encoding: 78 78 48
Width: 473
GlyphClass: 2
Flags: MW
HStem: 0.320312 21G<42.959 180.435 42.959 42.959 306.068 440.759 306.068 306.068> 670.62 20G<42.959 177.742 177.742 177.742 303.284 440.759 440.759 440.759>
VStem: 42.959 137.476<0.320312 321.385 0.320312 690.62> 303.284 137.475<355.841 690.62 0.320312 690.62>
LayerCount: 2
Fore
SplineSet
440.758789062 690.620117188 m 1
 440.758789062 0.3203125 l 1
 306.068359375 0.3203125 l 1
 180.434570312 321.384765625 l 1
 180.434570312 0.3203125 l 1
 42.958984375 0.3203125 l 1
 42.958984375 690.620117188 l 1
 177.7421875 690.620117188 l 1
 303.284179688 355.840820312 l 1
 303.284179688 690.620117188 l 1
 440.758789062 690.620117188 l 1
EndSplineSet
EndChar

StartChar: O
Encoding: 79 79 49
Width: 468
GlyphClass: 2
Flags: MW
HStem: -7.48047 125.774<227.865 250.096 227.865 265.473> 574.594 125.776<227.32 247.414>
VStem: 39.0596 137.475<194.345 207.994 207.994 478.069> 301.334 137.476<207.995 478.07 478.07 497.57>
LayerCount: 2
Fore
SplineSet
39.0595703125 194.344726562 m 2
 39.0595703125 497.5703125 l 2
 39.0595703125 562.874023438 57.51171875 613.916015625 95.52734375 648.822265625 c 0
 133.150390625 683.366210938 182.67578125 700.370117188 242.833984375 700.370117188 c 0
 301.10546875 700.370117188 348.930664062 683.306640625 384.927734375 648.681640625 c 0
 421.2578125 613.735351562 438.809570312 562.783203125 438.809570312 497.5703125 c 2
 438.809570312 194.344726562 l 2
 438.809570312 130.268554688 420.130859375 79.7294921875 381.85546875 44.5576171875 c 0
 343.966796875 9.7412109375 294.9375 -7.48046875 236.008789062 -7.48046875 c 0
 176.491210938 -7.48046875 128.149414062 9.541015625 92.4228515625 44.23828125 c 0
 56.451171875 79.171875 39.0595703125 129.775390625 39.0595703125 194.344726562 c 2
176.534179688 207.994140625 m 2
 176.534179688 125.3984375 215.8203125 118.293945312 239.909179688 118.293945312 c 0
 260.283203125 118.293945312 274.518554688 125.541015625 284.87109375 140.37109375 c 0
 295.447265625 155.521484375 301.333984375 177.865234375 301.333984375 207.995117188 c 2
 301.333984375 478.0703125 l 2
 301.333984375 573.73046875 254.918945312 574.59375 239.909179688 574.59375 c 0
 214.731445312 574.59375 176.534179688 568.438476562 176.534179688 478.069335938 c 2
 176.534179688 207.994140625 l 2
EndSplineSet
EndChar

StartChar: P
Encoding: 80 80 50
Width: 434
GlyphClass: 2
Flags: MW
HStem: 0.320312 21G<42.959 179.459 42.959 42.959> 248.945 125.774<179.46 229.186 229.186 233.084 179.459 229.186> 565.82 124.8<179.46 229.186 179.46 179.46>
VStem: 42.959 136.5<0.320312 248.945 0.320312 690.62> 288.66 137.475<452.767 487.773>
LayerCount: 2
Fore
SplineSet
426.134765625 470.26953125 m 0
 426.134765625 397.69921875 411.58203125 342.211914062 380.747070312 304.794921875 c 0
 349.5703125 266.962890625 299.54296875 248.9453125 233.083984375 248.9453125 c 2
 179.458984375 248.9453125 l 1
 179.458984375 0.3203125 l 1
 42.958984375 0.3203125 l 1
 42.958984375 690.620117188 l 1
 233.083984375 690.620117188 l 2
 300.779296875 690.620117188 351.202148438 672.657226562 381.783203125 634.693359375 c 0
 411.911132812 597.293945312 426.134765625 542.180664062 426.134765625 470.26953125 c 0
288.66015625 470.26953125 m 0
 288.66015625 505.276367188 283.500976562 530.130859375 274.779296875 544.760742188 c 0
 266.6328125 558.42578125 252.600585938 565.8203125 229.185546875 565.8203125 c 2
 179.459960938 565.8203125 l 1
 179.459960938 374.719726562 l 1
 229.185546875 374.719726562 l 2
 252.600585938 374.719726562 266.6328125 382.11328125 274.779296875 395.779296875 c 0
 283.500976562 410.409179688 288.66015625 435.263671875 288.66015625 470.26953125 c 0
EndSplineSet
EndChar

StartChar: Q
Encoding: 81 81 51
Width: 468
GlyphClass: 2
Flags: MW
HStem: 574.594 125.776<227.32 247.414>
VStem: 39.0596 137.475<194.345 207.994 207.994 478.069> 301.334 137.476<207.995 478.07 478.07 497.57>
LayerCount: 2
Fore
SplineSet
39.0595703125 194.344726562 m 2
 39.0595703125 497.5703125 l 2
 39.0595703125 562.874023438 57.51171875 613.916015625 95.52734375 648.822265625 c 0
 133.150390625 683.366210938 182.67578125 700.370117188 242.833984375 700.370117188 c 0
 301.10546875 700.370117188 348.930664062 683.306640625 384.927734375 648.681640625 c 0
 421.2578125 613.735351562 438.809570312 562.783203125 438.809570312 497.5703125 c 2
 438.809570312 194.344726562 l 2
 438.809570312 152.909179688 430.786132812 117.091796875 414.323242188 87.2529296875 c 0
 399.2421875 59.919921875 378.7109375 38.2646484375 353.028320312 22.7099609375 c 1
 397.375976562 -100.4765625 l 1
 279.470703125 -143.557617188 l 1
 230.786132812 -7.4365234375 l 1
 173.658203125 -6.4638671875 127.098632812 10.5615234375 92.4228515625 44.2373046875 c 0
 56.451171875 79.1708984375 39.0595703125 129.775390625 39.0595703125 194.344726562 c 2
176.534179688 207.994140625 m 2
 176.534179688 125.3984375 215.8203125 118.293945312 239.909179688 118.293945312 c 0
 260.282226562 118.293945312 274.518554688 125.541992188 284.87109375 140.372070312 c 0
 295.447265625 155.522460938 301.333984375 177.865234375 301.333984375 207.995117188 c 2
 301.333984375 478.0703125 l 2
 301.333984375 573.73046875 254.918945312 574.59375 239.909179688 574.59375 c 0
 214.731445312 574.59375 176.534179688 568.438476562 176.534179688 478.069335938 c 2
 176.534179688 207.994140625 l 2
EndSplineSet
EndChar

StartChar: R
Encoding: 82 82 52
Width: 460
GlyphClass: 2
Flags: MW
HStem: 0.320312 21G<42.959 180.435 42.959 42.959 307.565 451.102 307.565 307.565> 565.82 124.8<180.435 180.435 180.435 234.06>
VStem: 42.959 137.476<0.320312 270.395 0.320312 395.195 395.195 565.82> 288.659 137.475<465.792 496.213>
LayerCount: 2
Fore
SplineSet
426.133789062 480.995117188 m 0
 426.133789062 359.57421875 382.29296875 317.53515625 349.049804688 297.55859375 c 1
 451.1015625 0.3203125 l 1
 307.565429688 0.3203125 l 1
 222.741210938 270.39453125 l 1
 180.434570312 270.39453125 l 1
 180.434570312 0.3203125 l 1
 42.958984375 0.3203125 l 1
 42.958984375 690.620117188 l 1
 235.034179688 690.620117188 l 2
 302.5390625 690.620117188 352.483398438 674.484375 382.552734375 639.815429688 c 0
 412.313476562 605.500976562 426.133789062 552.190429688 426.133789062 480.995117188 c 0
180.434570312 565.8203125 m 1
 180.434570312 395.1953125 l 1
 234.059570312 395.1953125 l 2
 256.2109375 395.1953125 268.994140625 402.112304688 276.16015625 414.651367188 c 0
 284.057617188 428.473632812 288.659179688 450.58984375 288.659179688 480.995117188 c 0
 288.659179688 511.431640625 284.197265625 533.428710938 276.618164062 546.90234375 c 0
 269.862304688 558.912109375 257.028320312 565.8203125 234.059570312 565.8203125 c 2
 180.434570312 565.8203125 l 1
EndSplineSet
EndChar

StartChar: S
Encoding: 83 83 53
Width: 427
GlyphClass: 2
Flags: MW
HStem: -7.48047 120.899<187.064 231.876 187.064 243.328> 580.444 120.899<204.345 228.234>
VStem: 20.5342 130.312<201.079 209.944> 26.3828 134.551<492.725 535.479> 274.033 134.55<164.354 206.683>
LayerCount: 2
Fore
SplineSet
217.483398438 580.444335938 m 0xd8
 191.20703125 580.444335938 160.93359375 571.44921875 160.93359375 512.194335938 c 0xd8
 160.93359375 473.255859375 174.486328125 449.03515625 225.915039062 426.618164062 c 2
 269.790039062 407.118164062 l 2
 374.090820312 360.762695312 408.583007812 294.62109375 408.583007812 196.294921875 c 0
 408.583007812 132.412109375 391.879882812 81.79296875 357.3828125 45.9150390625 c 0
 322.866210938 10.0166015625 274.046875 -7.48046875 212.609375 -7.48046875 c 0
 151.768554688 -7.48046875 103.80078125 10.4013671875 70.5791015625 47.0830078125 c 0
 37.4775390625 83.6328125 21.1982421875 135.387695312 20.5341796875 201.079101562 c 2
 20.4453125 209.944335938 l 1
 150.846679688 209.944335938 l 1xe8
 152.6484375 163.985351562 158.595703125 113.418945312 215.533203125 113.418945312 c 0
 248.219726562 113.418945312 274.033203125 126.23828125 274.033203125 194.34375 c 0
 274.033203125 219.021484375 268.337890625 237.541992188 257.872070312 250.834960938 c 0
 247.1875 264.408203125 228.159179688 277.971679688 200.26171875 290.653320312 c 0
 200.209960938 290.67578125 154.430664062 311.130859375 154.430664062 311.130859375 c 2
 59.51953125 353.627929688 26.3828125 412.630859375 26.3828125 506.34375 c 0
 26.3828125 564.61328125 43.4462890625 612.295898438 78.1015625 647.98046875 c 0
 112.802734375 683.712890625 159.782226562 701.34375 217.483398438 701.34375 c 0
 274.520507812 701.34375 320.037109375 683.865234375 352.209960938 648.233398438 c 0
 384.293945312 612.700195312 400.739257812 562.178710938 402.728515625 497.844726562 c 2
 403.008789062 488.793945312 l 1
 275.193359375 488.793945312 l 1
 274.764648438 508.916015625 274.088867188 540.676757812 260.365234375 561.484375 c 0
 252.258789062 573.774414062 238.984375 580.444335938 217.483398438 580.444335938 c 0xd8
EndSplineSet
EndChar

StartChar: T
Encoding: 84 84 54
Width: 371
GlyphClass: 2
Flags: MW
HStem: 0.320312 21G<122.909 259.409 122.909 122.909> 564.845 125.775<5.90918 122.909 5.90918 375.435 259.409 259.409 259.409 375.435>
VStem: 122.909 136.5<0.320312 564.845 0.320312 564.845>
LayerCount: 2
Fore
SplineSet
122.909179688 564.844726562 m 1
 5.9091796875 564.844726562 l 1
 5.9091796875 690.620117188 l 1
 375.434570312 690.620117188 l 1
 375.434570312 564.844726562 l 1
 259.409179688 564.844726562 l 1
 259.409179688 0.3203125 l 1
 122.909179688 0.3203125 l 1
 122.909179688 564.844726562 l 1
EndSplineSet
EndChar

StartChar: U
Encoding: 85 85 55
Width: 460
GlyphClass: 2
Flags: MW
HStem: -7.48047 125.776<219.094 246.588 219.094 289.808> 670.621 20G<42.959 180.435 180.435 180.435 289.634 427.109 427.109 427.109>
VStem: 42.959 137.476<185.571 188.496 188.496 690.621> 289.634 137.476<188.496 690.621>
LayerCount: 2
Fore
SplineSet
235.034179688 -7.48046875 m 0
 122.977539062 -7.48046875 42.958984375 71.4228515625 42.958984375 185.571289062 c 2
 42.958984375 690.62109375 l 1
 180.434570312 690.62109375 l 1
 180.434570312 188.49609375 l 2
 180.434570312 132.056640625 203.153320312 118.295898438 235.034179688 118.295898438 c 0
 258.141601562 118.295898438 289.633789062 125.510742188 289.633789062 188.49609375 c 2
 289.633789062 690.62109375 l 1
 427.109375 690.62109375 l 1
 427.109375 185.571289062 l 2
 427.109375 67.345703125 344.581054688 -7.48046875 235.034179688 -7.48046875 c 0
EndSplineSet
EndChar

StartChar: V
Encoding: 86 86 56
Width: 449
GlyphClass: 2
Flags: MW
HStem: 0.320312 21G<160.735 298.608 160.735 160.735> 670.62 20G<5.66797 155.736 155.736 155.736 303.621 453.676 453.676 453.676>
LayerCount: 2
Fore
SplineSet
5.66796875 690.620117188 m 1
 155.736328125 690.620117188 l 1
 229.236328125 233.68359375 l 1
 303.62109375 690.620117188 l 1
 453.67578125 690.620117188 l 1
 298.608398438 0.3203125 l 1
 160.735351562 0.3203125 l 1
 5.66796875 690.620117188 l 1
EndSplineSet
EndChar

StartChar: W
Encoding: 87 87 57
Width: 669
GlyphClass: 2
Flags: MW
HStem: 0.320312 21G<129.209 272.603 129.209 129.209 405.124 549.51 405.124 405.124> 670.62 20G<6.15527 146.219 146.219 146.219 259.47 421.199 421.199 421.199 534.449 672.562 672.562 672.562>
LayerCount: 2
Fore
SplineSet
405.124023438 0.3203125 m 1
 339.301757812 372.43359375 l 1
 272.602539062 0.3203125 l 1
 129.208984375 0.3203125 l 1
 6.1552734375 690.620117188 l 1
 146.21875 690.620117188 l 1
 203.702148438 247.915039062 l 1
 259.469726562 690.620117188 l 1
 421.19921875 690.620117188 l 1
 476.965820312 247.915039062 l 1
 534.44921875 690.620117188 l 1
 672.5625 690.620117188 l 1
 549.509765625 0.3203125 l 1
 405.124023438 0.3203125 l 1
EndSplineSet
EndChar

StartChar: X
Encoding: 88 88 58
Width: 416
GlyphClass: 2
Flags: MW
HStem: 0.320312 21G<3.74512 3.74512 3.74512 140.919 285.249 285.249 285.249 422.448> 670.62 20G<13.4863 150.714 150.714 150.714 275.452 412.706 412.706 412.706>
LayerCount: 2
Fore
SplineSet
3.7451171875 0.3203125 m 1
 144.67578125 358.141601562 l 1
 13.486328125 690.620117188 l 1
 150.713867188 690.620117188 l 1
 213.525390625 499.53125 l 1
 275.452148438 690.620117188 l 1
 412.706054688 690.620117188 l 1
 281.517578125 358.141601562 l 1
 422.448242188 0.3203125 l 1
 285.249023438 0.3203125 l 1
 213.532226562 216.3671875 l 1
 140.918945312 0.3203125 l 1
 3.7451171875 0.3203125 l 1
EndSplineSet
EndChar

StartChar: Y
Encoding: 89 89 59
Width: 416
GlyphClass: 2
Flags: MW
HStem: 0.320312 21G<144.359 281.834 144.359 144.359> 670.62 20G<4.44824 155.112 155.112 155.112 270.106 421.727 421.727 421.727>
VStem: 144.359 137.475<0.320312 269.943 0.320312 271.888 0.320312 271.888>
LayerCount: 2
Fore
SplineSet
270.106445312 690.620117188 m 1
 421.7265625 690.620117188 l 1
 281.833984375 269.943359375 l 1
 281.833984375 0.3203125 l 1
 144.359375 0.3203125 l 1
 144.359375 271.887695312 l 1
 4.4482421875 690.620117188 l 1
 155.112304688 690.620117188 l 1
 212.609375 460.631835938 l 1
 270.106445312 690.620117188 l 1
EndSplineSet
EndChar

StartChar: Z
Encoding: 90 90 60
Width: 361
GlyphClass: 2
Flags: MW
HStem: 0.320312 125.774<163.321 351.06 163.321 351.06> 564.845 125.775<32.2344 207.271 32.2344 347.159>
VStem: 22.4844 328.575<0.320312 119.07 119.07 119.07>
LayerCount: 2
Fore
SplineSet
351.059570312 126.094726562 m 1
 351.059570312 0.3203125 l 1
 22.484375 0.3203125 l 1
 22.484375 119.0703125 l 1
 207.271484375 564.844726562 l 1
 32.234375 564.844726562 l 1
 32.234375 690.620117188 l 1
 347.159179688 690.620117188 l 1
 347.159179688 571.877929688 l 1
 163.321289062 126.094726562 l 1
 351.059570312 126.094726562 l 1
EndSplineSet
EndChar

StartChar: bracketleft
Encoding: 91 91 61
Width: 287
GlyphClass: 2
Flags: MW
HStem: -81.5801 125.775<171.659 258.435 171.659 258.435> 613.595 125.775<171.659 258.435 171.659 171.659>
VStem: 42.959 128.7<44.1953 613.595 44.1953 739.37 44.1953 739.37> 42.959 215.476<-81.5801 44.1953 613.595 739.37>
LayerCount: 2
Fore
SplineSet
42.958984375 739.370117188 m 1xd0
 258.434570312 739.370117188 l 1
 258.434570312 613.594726562 l 1xd0
 171.659179688 613.594726562 l 1
 171.659179688 44.1953125 l 1xe0
 258.434570312 44.1953125 l 1
 258.434570312 -81.580078125 l 1
 42.958984375 -81.580078125 l 1
 42.958984375 739.370117188 l 1xd0
EndSplineSet
Substitution2: "'rtla' Right to Left Alternates lookup 0 subtable" bracketright
EndChar

StartChar: backslash
Encoding: 92 92 62
Width: 302
GlyphClass: 2
Flags: MW
HStem: 678.42 20G<37.2998 143.86 143.86 143.86>
VStem: 37.2998 237.533
LayerCount: 2
Fore
SplineSet
37.2998046875 698.419921875 m 1
 143.860351562 698.419921875 l 1
 274.833007812 -9.4296875 l 1
 167.272460938 -9.4296875 l 1
 37.2998046875 698.419921875 l 1
EndSplineSet
EndChar

StartChar: bracketright
Encoding: 93 93 63
Width: 287
GlyphClass: 2
Flags: MW
HStem: -81.5801 125.775<39.0596 124.859 39.0596 254.534 39.0596 124.859> 613.595 125.775<39.0596 124.859 39.0596 254.534>
VStem: 39.0596 215.475<-81.5801 44.1953 44.1953 44.1953 613.595 739.37 -81.5801 739.37> 124.859 129.675<44.1953 613.595 613.595 613.595>
LayerCount: 2
Fore
SplineSet
124.859375 613.594726562 m 1xd0
 39.0595703125 613.594726562 l 1
 39.0595703125 739.370117188 l 1
 254.534179688 739.370117188 l 1
 254.534179688 -81.580078125 l 1
 39.0595703125 -81.580078125 l 1
 39.0595703125 44.1953125 l 1xe0
 124.859375 44.1953125 l 1
 124.859375 613.594726562 l 1xd0
EndSplineSet
Substitution2: "'rtla' Right to Left Alternates lookup 0 subtable" bracketleft
EndChar

StartChar: asciicircum
Encoding: 94 94 64
Width: 420
GlyphClass: 2
Flags: MW
HStem: 678.42 20G<159.327 261.991 261.991 261.991>
LayerCount: 2
Fore
SplineSet
159.327148438 698.419921875 m 1
 261.991210938 698.419921875 l 1
 393.168945312 272.344726562 l 1
 286.021484375 272.344726562 l 1
 210.659179688 524.451171875 l 1
 135.296875 272.344726562 l 1
 28.1494140625 272.344726562 l 1
 159.327148438 698.419921875 l 1
EndSplineSet
EndChar

StartChar: underscore
Encoding: 95 95 65
Width: 426
GlyphClass: 2
Flags: MW
HStem: -113.755 84.8252<2.00879 433.935 2.00879 433.935>
LayerCount: 2
Fore
SplineSet
2.0087890625 -28.9296875 m 1
 433.934570312 -28.9296875 l 1
 433.934570312 -113.754882812 l 1
 2.0087890625 -113.754882812 l 1
 2.0087890625 -28.9296875 l 1
EndSplineSet
EndChar

StartChar: grave
Encoding: 96 96 66
Width: 499
GlyphClass: 2
Flags: MW
HStem: 575.57 150.149<262.341 270.699 126.544 379.999 262.341 262.341>
VStem: 126.544 253.455<575.57 725.72>
LayerCount: 2
Fore
SplineSet
126.543945312 725.719726562 m 1
 270.69921875 725.719726562 l 1
 379.999023438 575.5703125 l 1
 262.340820312 575.5703125 l 1
 126.543945312 725.719726562 l 1
EndSplineSet
EndChar

StartChar: a
Encoding: 97 97 67
Width: 406
GlyphClass: 2
Flags: MW
HStem: -7.48145 116.024<147.29 214.083> 0.319336 21G<251.611 374.461 251.611 251.611> 223.594 96.5254<209.686 223.336 223.336 243.811> 423.47 117<199.567 212.441>
VStem: 31.2607 130.65<137.767 179.205 137.767 185.167> 44.9102 121.875<364.97 377.645 377.645 381.545 364.97 403.801> 243.811 130.65<163.144 223.594 223.594 223.594 320.119 367.894 0.319336 376.669 0.319336 397.9>
LayerCount: 2
Fore
SplineSet
204.810546875 423.469726562 m 0xba
 194.32421875 423.469726562 166.78515625 419.825195312 166.78515625 381.544921875 c 2
 166.78515625 364.969726562 l 1
 44.91015625 364.969726562 l 1
 44.91015625 377.64453125 l 2
 44.91015625 429.958007812 59.7978515625 471.108398438 90.685546875 499.188476562 c 0
 121.110351562 526.84765625 160.53515625 540.469726562 207.735351562 540.469726562 c 0
 259.51953125 540.469726562 301.072265625 524.995117188 330.659179688 493.319335938 c 0
 360.083984375 461.817382812 374.4609375 419.561523438 374.4609375 367.893554688 c 2
 374.4609375 0.3193359375 l 1
 251.611328125 0.3193359375 l 1x76
 251.611328125 28.2724609375 l 1
 228.512695312 4.0732421875 207.197265625 -7.4814453125 169.7109375 -7.4814453125 c 0
 124.869140625 -7.4814453125 89.4638671875 7.421875 65.7724609375 37.8330078125 c 0
 42.3818359375 67.857421875 31.2607421875 108.94921875 31.2607421875 160.21875 c 0
 31.2607421875 210.114257812 46.634765625 250.111328125 78.044921875 278.379882812 c 0
 109.423828125 306.62109375 153.736328125 320.119140625 209.685546875 320.119140625 c 2
 243.810546875 320.119140625 l 1
 243.810546875 376.668945312 l 2
 243.810546875 419.131835938 220.071289062 423.469726562 204.810546875 423.469726562 c 0xba
202.861328125 108.54296875 m 0xba
 225.3046875 108.54296875 243.810546875 126.96484375 243.810546875 163.143554688 c 2
 243.810546875 223.59375 l 1
 223.3359375 223.59375 l 2
 169.067382812 223.59375 161.911132812 193.31640625 161.911132812 165.092773438 c 0
 161.911132812 110.44140625 190.916992188 108.54296875 202.861328125 108.54296875 c 0xba
EndSplineSet
EndChar

StartChar: b
Encoding: 98 98 68
Width: 411
GlyphClass: 2
Flags: MW
HStem: -7.48047 118.949<198.856 268.326> 0.318359 21G<41.9834 168.733 41.9834 41.9834> 421.519 118.949<203.096 270.574> 670.618 20G<41.9834 172.633 172.633 172.633>
VStem: 41.9834 128.699<158.912 186.544 186.544 346.444> 251.608 130.65<186.544 346.444 346.444 364.969>
LayerCount: 2
Fore
SplineSet
172.6328125 509.090820312 m 1x7c
 189.786132812 526.817382812 214.668945312 540.467773438 250.6328125 540.467773438 c 0
 290.515625 540.467773438 323.26953125 526.0390625 347.091796875 497.314453125 c 0
 371.21484375 468.224609375 382.258789062 423.791992188 382.258789062 364.96875 c 2
 382.258789062 168.018554688 l 2
 382.258789062 109.150390625 370.690429688 64.6142578125 345.506835938 35.5302734375 c 0
 320.774414062 6.966796875 287.967773438 -7.48046875 248.684570312 -7.48046875 c 0xbc
 215.022460938 -7.48046875 190.798828125 3.7236328125 168.733398438 23.640625 c 1
 168.733398438 0.318359375 l 1
 41.9833984375 0.318359375 l 1
 41.9833984375 690.618164062 l 1
 172.6328125 690.618164062 l 1
 172.6328125 509.090820312 l 1x7c
211.631835938 111.46875 m 0
 230.486328125 111.46875 251.608398438 119.545898438 251.608398438 186.543945312 c 2
 251.608398438 346.444335938 l 2
 251.608398438 416.0390625 227.719726562 421.518554688 211.6328125 421.518554688 c 0
 194.559570312 421.518554688 170.682617188 414.5234375 170.682617188 346.444335938 c 2
 170.682617188 186.543945312 l 2
 170.682617188 131.280273438 186.080078125 111.46875 211.631835938 111.46875 c 0
EndSplineSet
EndChar

StartChar: c
Encoding: 99 99 69
Width: 408
GlyphClass: 2
Flags: MW
HStem: -7.48047 118.95<202.121 219.365 202.121 238.099> 421.52 118.95<202.647 227.537>
VStem: 39.0596 130.65<187.52 345.47 345.47 346.445> 252.585 126.75<171.92 197.27 142.671 197.27 335.72 362.045 362.045 363.995>
LayerCount: 2
Fore
SplineSet
210.66015625 111.469726562 m 0
 228.0703125 111.469726562 252.584960938 118.150390625 252.584960938 171.919921875 c 2
 252.584960938 197.26953125 l 1
 379.334960938 197.26953125 l 1
 379.334960938 171.919921875 l 2
 379.334960938 113.422851562 365.397460938 68.142578125 335.922851562 37.6142578125 c 0
 306.559570312 7.203125 264.563476562 -7.48046875 211.634765625 -7.48046875 c 0
 156.768554688 -7.48046875 113.447265625 7.681640625 83.4150390625 39.1103515625 c 0
 53.109375 70.82421875 39.0595703125 120.794921875 39.0595703125 187.51953125 c 2
 39.0595703125 345.469726562 l 2
 39.0595703125 412.1953125 53.109375 462.165039062 83.4150390625 493.879882812 c 0
 113.447265625 525.30859375 156.768554688 540.469726562 211.634765625 540.469726562 c 0
 284.743164062 540.469726562 379.334960938 511.893554688 379.334960938 363.995117188 c 2
 379.334960938 335.719726562 l 1
 252.584960938 335.719726562 l 1
 252.584960938 362.044921875 l 2
 252.584960938 393.862304688 243.438476562 421.51953125 211.634765625 421.51953125 c 0
 193.659179688 421.51953125 169.709960938 414.826171875 169.709960938 346.4453125 c 2
 169.709960938 186.544921875 l 2
 169.709960938 118.47265625 193.58203125 111.469726562 210.66015625 111.469726562 c 0
EndSplineSet
EndChar

StartChar: d
Encoding: 100 100 70
Width: 411
GlyphClass: 2
Flags: MW
HStem: -7.48047 118.952<153.667 223.437> 0.320312 21G<253.56 379.334 253.56 253.56> 421.521 118.948<151.719 218.68> 670.62 20G<249.659 379.334 379.334 379.334>
VStem: 39.0605 130.651<168.021 186.547 186.547 346.447> 251.611 127.723<186.547 346.447 346.447 380.633>
LayerCount: 2
Fore
SplineSet
171.661132812 540.469726562 m 0xbc
 192.984375 540.469726562 224.15234375 535.098632812 249.659179688 508.974609375 c 1
 249.659179688 690.620117188 l 1
 379.333984375 690.620117188 l 1
 379.333984375 0.3203125 l 1
 253.559570312 0.3203125 l 1x7c
 253.559570312 23.5537109375 l 1
 230.581054688 3.107421875 203.721679688 -7.48046875 173.610351562 -7.48046875 c 0
 133.724609375 -7.48046875 100.576171875 6.9296875 75.810546875 35.5302734375 c 0
 50.6279296875 64.6142578125 39.060546875 109.15234375 39.060546875 168.020507812 c 2
 39.060546875 364.970703125 l 2
 39.060546875 423.80859375 50.2802734375 468.276367188 74.7568359375 497.364257812 c 0
 98.892578125 526.047851562 131.77734375 540.469726562 171.661132812 540.469726562 c 0xbc
169.711914062 186.546875 m 2
 169.711914062 119.107421875 190.974609375 111.471679688 210.661132812 111.471679688 c 0xbc
 236.212890625 111.471679688 251.611328125 131.283203125 251.611328125 186.546875 c 2
 251.611328125 346.447265625 l 2
 251.611328125 414.818359375 227.672851562 421.521484375 209.686523438 421.521484375 c 0
 193.596679688 421.521484375 169.711914062 416.037109375 169.711914062 346.447265625 c 2
 169.711914062 186.546875 l 2
EndSplineSet
EndChar

StartChar: e
Encoding: 101 101 71
Width: 412
GlyphClass: 2
Flags: MW
HStem: -7.48047 116.999<205.809 219.22 205.809 238.074> 217.745 99.4492<169.709 252.583 169.708 383.234 169.709 169.709> 421.519 118.951<202.111 219.646>
VStem: 39.0586 130.648<145.096 328.895> 252.583 130.651<317.194 328.895 217.745 346.444 217.745 380.636>
LayerCount: 2
Fore
SplineSet
39.05859375 328.89453125 m 2
 39.05859375 406.46875 52.6181640625 540.469726562 208.708984375 540.469726562 c 0
 263.236328125 540.469726562 306.85546875 523.067382812 337.685546875 487.734375 c 0
 368.658203125 452.23828125 383.234375 398.899414062 383.234375 328.89453125 c 2
 383.234375 217.745117188 l 1
 169.708984375 217.745117188 l 1
 169.708984375 205.069335938 169.70703125 192.39453125 169.70703125 179.71875 c 0
 169.70703125 110.473632812 199.986328125 109.518554688 211.631835938 109.518554688 c 0
 226.807617188 109.518554688 252.58203125 113.024414062 252.58203125 166.069335938 c 2
 252.58203125 179.71875 l 1
 379.33203125 179.71875 l 1
 379.33203125 165.09375 l 2
 379.33203125 109.735351562 365.291992188 66.3603515625 335.84765625 36.5654296875 c 0
 306.466796875 6.8359375 264.516601562 -7.48046875 211.631835938 -7.48046875 c 0
 157.865234375 -7.48046875 114.815429688 8.8388671875 84.263671875 42.1689453125 c 0
 53.3330078125 75.912109375 39.05859375 129.998046875 39.05859375 203.120117188 c 2
 39.05859375 328.89453125 l 2
210.658203125 421.518554688 m 0
 193.563476562 421.518554688 169.708007812 414.498046875 169.708007812 346.444335938 c 2
 169.708007812 317.194335938 l 1
 252.583007812 317.194335938 l 1
 252.583007812 346.444335938 l 2
 252.583007812 414.828125 228.6328125 421.518554688 210.658203125 421.518554688 c 0
EndSplineSet
EndChar

StartChar: f
Encoding: 102 102 72
Width: 291
GlyphClass: 2
Flags: MW
HStem: 0.320312 21G<80.0088 209.685 80.0088 80.0088> 436.145 96.5254<28.334 80.0088 28.334 80.0088 209.685 278.909> 593.12 97.5<245.926 255.509 255.509 278.909>
VStem: 80.0088 129.676<0.320312 436.145 0.320312 436.145 532.67 545.345 0.320312 553.145 0.320312 585.94>
LayerCount: 2
Fore
SplineSet
80.0087890625 553.14453125 m 2
 80.0087890625 618.735351562 105.41015625 690.620117188 221.383789062 690.620117188 c 2
 278.909179688 690.620117188 l 1
 278.909179688 593.120117188 l 1
 255.508789062 593.120117188 l 2
 236.34375 593.120117188 224.936523438 588.875976562 219.421875 583.140625 c 0
 213.841796875 577.336914062 209.684570312 565.234375 209.684570312 545.344726562 c 2
 209.684570312 532.669921875 l 1
 278.909179688 532.669921875 l 1
 278.909179688 436.14453125 l 1
 209.684570312 436.14453125 l 1
 209.684570312 0.3203125 l 1
 80.0087890625 0.3203125 l 1
 80.0087890625 436.14453125 l 1
 28.333984375 436.14453125 l 1
 28.333984375 532.669921875 l 1
 80.0087890625 532.669921875 l 1
 80.0087890625 553.14453125 l 2
EndSplineSet
EndChar

StartChar: g
Encoding: 103 103 73
Width: 411
GlyphClass: 2
Flags: MW
HStem: -163.48 115.051<201.935 218.827 201.935 236.591> -19.6797 20G<47.5967 170.687 170.687 170.687> 40.2959 118.95<153.67 223.438> 421.521 118.948<151.72 218.681> 512.669 20G<249.66 379.335 379.335 379.335>
VStem: 39.0615 130.651<215.795 234.321 234.321 346.446 200.602 364.97 200.602 394.389> 251.612 127.723<234.321 346.446 346.446 380.632>
LayerCount: 2
Fore
SplineSet
171.662109375 540.46875 m 0xf6
 192.985351562 540.46875 224.153320312 535.09765625 249.66015625 508.973632812 c 1
 249.66015625 532.668945312 l 1
 379.334960938 532.668945312 l 1xee
 379.334960938 14.9443359375 l 2
 379.334960938 -38.6435546875 364.661132812 -82.345703125 334.587890625 -114.837890625 c 0
 304.403320312 -147.450195312 262.522460938 -163.48046875 210.66015625 -163.48046875 c 0
 181.703125 -163.48046875 51.9580078125 -161.080078125 47.83984375 -8.6962890625 c 2
 47.5966796875 0.3203125 l 1
 170.686523438 0.3203125 l 1
 170.686523438 -8.455078125 l 2
 170.686523438 -41.9638671875 192.232421875 -48.4296875 211.63671875 -48.4296875 c 0
 226.017578125 -48.4296875 253.561523438 -44.537109375 253.561523438 4.220703125 c 2
 253.561523438 71.330078125 l 1
 230.583984375 50.8828125 203.724609375 40.2958984375 173.61328125 40.2958984375 c 0
 133.727539062 40.2958984375 100.579101562 54.705078125 75.8134765625 83.306640625 c 0
 50.630859375 112.389648438 39.0615234375 156.92578125 39.0615234375 215.794921875 c 2
 39.0615234375 364.969726562 l 2
 39.0615234375 423.807617188 50.28125 468.275390625 74.7578125 497.36328125 c 0
 98.8935546875 526.046875 131.778320312 540.46875 171.662109375 540.46875 c 0xf6
169.712890625 234.321289062 m 2
 169.712890625 166.881835938 190.975585938 159.24609375 210.662109375 159.24609375 c 0
 236.213867188 159.24609375 251.612304688 179.057617188 251.612304688 234.321289062 c 2
 251.612304688 346.446289062 l 2
 251.612304688 414.817382812 227.673828125 421.520507812 209.6875 421.520507812 c 0xf6
 193.59765625 421.520507812 169.712890625 416.036132812 169.712890625 346.446289062 c 2
 169.712890625 234.321289062 l 2
EndSplineSet
EndChar

StartChar: h
Encoding: 104 104 74
Width: 411
GlyphClass: 2
Flags: MW
HStem: 0.320312 21G<41.9844 172.634 41.9844 41.9844 248.686 248.686 248.686 379.335> 421.52 118.949<199.146 265.526> 670.62 20G<41.9844 172.633 172.633 172.633>
VStem: 41.9844 130.649<0.320312 375.695 0.320312 690.62> 248.686 130.649<0.320312 375.695 375.695 376.67 0.320312 383.766>
LayerCount: 2
Fore
SplineSet
210.66015625 421.51953125 m 0
 187.6328125 421.51953125 172.633789062 407.001953125 172.633789062 375.6953125 c 2
 172.633789062 0.3203125 l 1
 41.984375 0.3203125 l 1
 41.984375 690.620117188 l 1
 172.6328125 690.620117188 l 1
 172.6328125 511.868164062 l 1
 194.229492188 530.62109375 218.419921875 540.46875 244.784179688 540.46875 c 0
 286.268554688 540.46875 379.334960938 531.180664062 379.334960938 376.669921875 c 2
 379.334960938 0.3203125 l 1
 248.685546875 0.3203125 l 1
 248.685546875 375.6953125 l 2
 248.685546875 391.8359375 244.684570312 402.866210938 237.875 410.180664062 c 0
 230.770507812 417.811523438 222.18359375 421.51953125 210.66015625 421.51953125 c 0
EndSplineSet
EndChar

StartChar: i
Encoding: 105 105 75
Width: 212
GlyphClass: 2
Flags: MW
HStem: 0.320312 21G<45.8838 176.534 45.8838 45.8838> 512.67 20G<45.8838 176.534 176.534 176.534> 578.495 112.125<45.8838 176.534 45.8838 176.534>
VStem: 45.8838 130.65<0.320312 532.67 0.320312 532.67 578.495 690.62>
LayerCount: 2
Fore
SplineSet
45.8837890625 532.669921875 m 1
 176.534179688 532.669921875 l 1
 176.534179688 0.3203125 l 1
 45.8837890625 0.3203125 l 1
 45.8837890625 532.669921875 l 1
45.8837890625 690.620117188 m 1
 176.534179688 690.620117188 l 1
 176.534179688 578.495117188 l 1
 45.8837890625 578.495117188 l 1
 45.8837890625 690.620117188 l 1
EndSplineSet
EndChar

StartChar: j
Encoding: 106 106 76
Width: 212
GlyphClass: 2
Flags: MW
HStem: -153.73 118.95<-21.3906 -7.74121 -7.74121 -6.76562 -21.3906 -7.74121> 512.67 20G<45.8838 176.534 176.534 176.534> 578.495 112.125<45.8838 176.534 45.8838 176.534>
VStem: 45.8838 130.65<21.7695 532.67 578.495 690.62>
LayerCount: 2
Fore
SplineSet
45.8837890625 690.620117188 m 1
 176.534179688 690.620117188 l 1
 176.534179688 578.495117188 l 1
 45.8837890625 578.495117188 l 1
 45.8837890625 690.620117188 l 1
176.534179688 14.9453125 m 2
 176.534179688 -74.9892578125 135.8203125 -153.73046875 -6.765625 -153.73046875 c 2
 -21.390625 -153.73046875 l 1
 -21.390625 -34.7802734375 l 1
 -7.7412109375 -34.7802734375 l 2
 23.3330078125 -34.7802734375 45.8837890625 -22.404296875 45.8837890625 21.76953125 c 2
 45.8837890625 532.669921875 l 1
 176.534179688 532.669921875 l 1
 176.534179688 14.9453125 l 2
EndSplineSet
EndChar

StartChar: k
Encoding: 107 107 77
Width: 420
GlyphClass: 2
Flags: MW
HStem: 0.320312 21G<41.9844 172.634 41.9844 41.9844 278.816 422.961 278.816 278.816> 512.67 20G<281.681 420.883 420.883 420.883> 670.62 20G<41.9844 172.634 172.634 172.634>
VStem: 41.9844 130.649<0.320312 151.75 346.599 690.62>
LayerCount: 2
Fore
SplineSet
278.81640625 0.3203125 m 1
 200.963867188 194.953125 l 1
 172.633789062 151.75 l 1
 172.633789062 0.3203125 l 1
 41.984375 0.3203125 l 1
 41.984375 690.620117188 l 1
 172.633789062 690.620117188 l 1
 172.633789062 346.598632812 l 1
 281.680664062 532.669921875 l 1
 420.8828125 532.669921875 l 1
 282.995117188 321.2421875 l 1
 422.9609375 0.3203125 l 1
 278.81640625 0.3203125 l 1
EndSplineSet
EndChar

StartChar: l
Encoding: 108 108 78
Width: 245
GlyphClass: 2
Flags: MW
HStem: 0.320312 118.949<191.474 239.909 226.259 239.909 226.259 239.909> 670.62 20G<41.9844 172.634 172.634 172.634>
VStem: 41.9844 130.649<168.995 175.82 175.82 690.62>
LayerCount: 2
Fore
SplineSet
225.284179688 0.3203125 m 2
 157.6640625 0.3203125 41.984375 17.0234375 41.984375 168.995117188 c 2
 41.984375 690.620117188 l 1
 172.633789062 690.620117188 l 1
 172.633789062 175.8203125 l 2
 172.633789062 131.643554688 195.186523438 119.26953125 226.258789062 119.26953125 c 2
 239.909179688 119.26953125 l 1
 239.909179688 0.3203125 l 1
 225.284179688 0.3203125 l 2
EndSplineSet
EndChar

StartChar: m
Encoding: 109 109 79
Width: 619
GlyphClass: 2
Flags: MW
HStem: 0.320312 21G<41.9844 172.634 41.9844 41.9844 248.686 248.686 248.686 379.335 455.385 455.385 455.385 586.035> 421.52 118.951<199.146 256.246 423.102 423.122> 512.67 20G<41.9844 167.76 167.76 167.76>
VStem: 41.9844 130.649<0.320312 375.695 0.320312 532.67> 248.686 130.649<0.320312 375.695 0.320312 383.766> 455.385 130.65<0.320312 375.695 375.695 376.67 0.320312 383.766>
LayerCount: 2
Fore
SplineSet
210.66015625 421.51953125 m 0xdc
 187.6328125 421.51953125 172.633789062 407.001953125 172.633789062 375.6953125 c 2
 172.633789062 0.3203125 l 1
 41.984375 0.3203125 l 1
 41.984375 532.669921875 l 1
 167.759765625 532.669921875 l 1xbc
 167.759765625 508.80078125 l 1
 189.719726562 529.637695312 215.944335938 540.470703125 245.759765625 540.470703125 c 0
 266.731445312 540.470703125 313.178710938 535.131835938 346.919921875 492.096679688 c 1
 361.739257812 507.73046875 398.618164062 540.470703125 447.584960938 540.470703125 c 0
 495.875976562 540.470703125 532.4375 526.950195312 554.504882812 498.009765625 c 0
 576.048828125 469.75390625 586.03515625 429.055664062 586.03515625 376.669921875 c 2
 586.03515625 0.3203125 l 1
 455.384765625 0.3203125 l 1
 455.384765625 375.6953125 l 2
 455.384765625 391.8359375 451.384765625 402.866210938 444.57421875 410.180664062 c 0
 437.470703125 417.811523438 428.8828125 421.51953125 417.360351562 421.51953125 c 0
 400.294921875 421.51953125 379.334960938 411.874023438 379.334960938 375.6953125 c 2
 379.334960938 0.3203125 l 1
 248.685546875 0.3203125 l 1
 248.685546875 375.6953125 l 2
 248.685546875 391.8359375 244.684570312 402.866210938 237.875 410.180664062 c 0
 230.770507812 417.811523438 222.18359375 421.51953125 210.66015625 421.51953125 c 0xdc
EndSplineSet
EndChar

StartChar: n
Encoding: 110 110 80
Width: 411
GlyphClass: 2
Flags: MW
HStem: 0.320312 21G<41.9844 172.634 41.9844 41.9844 248.686 248.686 248.686 379.335> 421.52 118.95<199.146 279.954> 512.67 20G<41.9844 167.76 167.76 167.76>
VStem: 41.9844 130.649<0.320312 375.695 0.320312 532.67> 248.686 130.649<0.320312 375.695 375.695 376.67 0.320312 383.766>
LayerCount: 2
Fore
SplineSet
210.66015625 421.51953125 m 0xd8
 187.6328125 421.51953125 172.633789062 407.001953125 172.633789062 375.6953125 c 2
 172.633789062 0.3203125 l 1
 41.984375 0.3203125 l 1
 41.984375 532.669921875 l 1
 167.759765625 532.669921875 l 1xb8
 167.759765625 508.545898438 l 1
 189.927734375 529.501953125 215.790039062 540.469726562 244.78515625 540.469726562 c 0
 315.122070312 540.469726562 379.334960938 505.256835938 379.334960938 376.669921875 c 2
 379.334960938 0.3203125 l 1
 248.685546875 0.3203125 l 1
 248.685546875 375.6953125 l 2
 248.685546875 391.8359375 244.684570312 402.866210938 237.875 410.180664062 c 0
 230.770507812 417.811523438 222.18359375 421.51953125 210.66015625 421.51953125 c 0xd8
EndSplineSet
EndChar

StartChar: o
Encoding: 111 111 81
Width: 412
GlyphClass: 2
Flags: MW
HStem: -7.48047 118.95<202.12 219.642 202.12 239.066> 421.52 118.95<202.124 219.647>
VStem: 39.0596 130.649<187.52 345.47 345.47 346.445> 252.585 130.65<186.545 187.52 187.52 345.47>
LayerCount: 2
Fore
SplineSet
39.0595703125 187.51953125 m 2
 39.0595703125 345.469726562 l 2
 39.0595703125 412.1953125 53.109375 462.165039062 83.4150390625 493.879882812 c 0
 113.447265625 525.30859375 156.768554688 540.469726562 211.634765625 540.469726562 c 0
 266.497070312 540.469726562 309.682617188 525.310546875 339.40234375 493.842773438 c 0
 369.360351562 462.122070312 383.235351562 412.180664062 383.235351562 345.469726562 c 2
 383.235351562 187.51953125 l 2
 383.235351562 120.809570312 369.360351562 70.8681640625 339.40234375 39.1474609375 c 0
 309.682617188 7.6796875 266.497070312 -7.48046875 211.634765625 -7.48046875 c 0
 156.768554688 -7.48046875 113.447265625 7.681640625 83.4150390625 39.1103515625 c 0
 53.109375 70.82421875 39.0595703125 120.794921875 39.0595703125 187.51953125 c 2
210.659179688 111.469726562 m 0
 228.624023438 111.469726562 252.584960938 118.151367188 252.584960938 186.544921875 c 2
 252.584960938 346.4453125 l 2
 252.584960938 414.829101562 228.634765625 421.51953125 210.66015625 421.51953125 c 0
 193.586914062 421.51953125 169.708984375 414.524414062 169.708984375 346.4453125 c 2
 169.708984375 186.544921875 l 2
 169.708984375 118.47265625 193.581054688 111.469726562 210.659179688 111.469726562 c 0
EndSplineSet
EndChar

StartChar: p
Encoding: 112 112 82
Width: 411
GlyphClass: 2
Flags: MW
HStem: -7.48047 118.948<198.857 268.326> 421.518 118.95<203.097 270.574> 512.67 20G<41.9844 168.733 168.733 168.733>
VStem: 41.9844 130.649<-153.73 19.2158 -153.73 532.67> 251.609 130.649<186.543 346.443 346.443 364.969>
LayerCount: 2
Fore
SplineSet
168.733398438 532.669921875 m 1xb8
 168.733398438 507.401367188 l 1
 190.518554688 529.243164062 218.130859375 540.467773438 250.6328125 540.467773438 c 0xd8
 290.515625 540.467773438 323.26953125 526.0390625 347.091796875 497.314453125 c 0
 371.21484375 468.224609375 382.258789062 423.791992188 382.258789062 364.96875 c 2
 382.258789062 168.018554688 l 2
 382.258789062 109.150390625 370.690429688 64.6142578125 345.506835938 35.5302734375 c 0
 320.774414062 6.966796875 287.967773438 -7.48046875 248.684570312 -7.48046875 c 0
 219.409179688 -7.48046875 193.802734375 1.521484375 172.633789062 19.2158203125 c 1
 172.633789062 -153.73046875 l 1
 41.984375 -153.73046875 l 1
 41.984375 532.669921875 l 1
 168.733398438 532.669921875 l 1xb8
211.6328125 111.467773438 m 0
 230.487304688 111.467773438 251.609375 119.544921875 251.609375 186.54296875 c 2
 251.609375 346.443359375 l 2
 251.609375 416.038085938 227.720703125 421.517578125 211.633789062 421.517578125 c 0
 194.560546875 421.517578125 170.68359375 414.522460938 170.68359375 346.443359375 c 2
 170.68359375 186.54296875 l 2
 170.68359375 131.279296875 186.081054688 111.467773438 211.6328125 111.467773438 c 0
EndSplineSet
EndChar

StartChar: q
Encoding: 113 113 83
Width: 411
GlyphClass: 2
Flags: MW
HStem: -7.47852 118.95<153.667 223.436> 421.521 118.948<151.717 218.679> 512.67 20G<253.56 379.334 379.334 379.334>
VStem: 39.0596 130.651<168.021 186.547 186.547 346.447> 249.659 129.675<-153.73 19.2158 19.2158 19.2158>
LayerCount: 2
Fore
SplineSet
253.559570312 506.775390625 m 1xd8
 253.559570312 532.669921875 l 1
 379.333984375 532.669921875 l 1xb8
 379.333984375 -153.73046875 l 1
 249.659179688 -153.73046875 l 1
 249.659179688 19.2158203125 l 1
 228.491210938 1.521484375 202.884765625 -7.478515625 173.610351562 -7.478515625 c 0
 133.724609375 -7.478515625 100.576171875 6.931640625 75.810546875 35.5322265625 c 0
 50.6279296875 64.6162109375 39.0595703125 109.15234375 39.0595703125 168.020507812 c 2
 39.0595703125 364.970703125 l 2
 39.0595703125 423.80859375 50.2783203125 468.276367188 74.7548828125 497.364257812 c 0
 98.890625 526.047851562 131.775390625 540.469726562 171.659179688 540.469726562 c 0
 203.555664062 540.469726562 231.120117188 528.977539062 253.559570312 506.775390625 c 1xd8
169.7109375 186.546875 m 2
 169.7109375 119.107421875 190.973632812 111.471679688 210.66015625 111.471679688 c 0
 236.211914062 111.471679688 251.610351562 131.283203125 251.610351562 186.546875 c 2
 251.610351562 346.447265625 l 2
 251.610351562 414.818359375 227.671875 421.521484375 209.685546875 421.521484375 c 0xd8
 193.595703125 421.521484375 169.7109375 416.037109375 169.7109375 346.447265625 c 2
 169.7109375 186.546875 l 2
EndSplineSet
EndChar

StartChar: r
Encoding: 114 114 84
Width: 310
GlyphClass: 2
Flags: MW
HStem: 0.320312 21G<41.9844 172.634 41.9844 41.9844> 411.77 130.65<232.743 255.696> 512.67 20G<41.9844 167.759 167.759 167.759>
VStem: 41.9844 130.649<0.320312 332.795 0.320312 532.67>
LayerCount: 2
Fore
SplineSet
167.758789062 502.758789062 m 1xb0
 177.901367188 514.284179688 204.516601562 542.419921875 260.383789062 542.419921875 c 0
 280.97265625 542.419921875 291.666992188 539.74609375 304.258789062 536.59765625 c 1
 304.258789062 398.185546875 l 1
 282.948242188 406.079101562 267.583007812 411.76953125 243.809570312 411.76953125 c 0xd0
 221.676757812 411.76953125 204.9609375 404.961914062 192.134765625 391.56640625 c 0
 179.484375 378.353515625 172.633789062 359.25 172.633789062 332.794921875 c 2
 172.633789062 0.3203125 l 1
 41.984375 0.3203125 l 1
 41.984375 532.669921875 l 1
 167.758789062 532.669921875 l 1
 167.758789062 502.758789062 l 1xb0
EndSplineSet
EndChar

StartChar: s
Encoding: 115 115 85
Width: 393
GlyphClass: 2
Flags: MW
HStem: -7.48047 112.124<184.955 215.493 184.955 228.715> 429.32 111.148<193.117 221.381>
VStem: 31.2568 126.75<157.294 171.919 146.321 171.919> 247.707 127.727<132.016 161.281>
LayerCount: 2
Fore
SplineSet
200.907226562 429.3203125 m 0
 185.327148438 429.3203125 160.932617188 423.815429688 160.932617188 389.344726562 c 0
 160.932617188 364.40234375 171.373046875 351.240234375 202.422851562 337.93359375 c 2
 265.850585938 310.610351562 l 2
 343.258789062 276.659179688 375.43359375 230.297851562 375.43359375 153.39453125 c 0
 375.43359375 106.533203125 359.7421875 67.3701171875 328.357421875 37.365234375 c 0
 296.868164062 7.259765625 254.571289062 -7.48046875 202.859375 -7.48046875 c 0
 151.1953125 -7.48046875 109.079101562 6.8935546875 77.88671875 36.3525390625 c 0
 46.6025390625 65.8994140625 31.2568359375 106.768554688 31.2568359375 157.293945312 c 2
 31.2568359375 171.918945312 l 1
 158.006835938 171.918945312 l 1
 158.006835938 157.293945312 l 2
 158.006835938 135.34765625 165.102539062 104.643554688 204.807617188 104.643554688 c 0
 226.177734375 104.643554688 247.70703125 112.5859375 247.70703125 151.4453125 c 0
 247.70703125 171.1171875 238.770507812 189.580078125 202.299804688 205.7890625 c 0
 202.225585938 205.822265625 143.84765625 231.118164062 143.84765625 231.118164062 c 2
 103.352539062 248.37890625 74.416015625 268.9453125 58.0439453125 293.859375 c 0
 41.9482421875 318.353515625 34.1826171875 348.752929688 34.1826171875 384.46875 c 0
 34.1826171875 428.853515625 49.8046875 466.521484375 80.7724609375 496.11328125 c 0
 111.858398438 525.817382812 152.67578125 540.46875 201.881835938 540.46875 c 0
 251.088867188 540.46875 291.90625 525.817382812 322.9921875 496.11328125 c 0
 354.075195312 466.411132812 369.58203125 427.403320312 369.58203125 380.569335938 c 2
 369.58203125 362.043945312 l 1
 242.83203125 362.043945312 l 1
 242.83203125 376.668945312 l 2
 242.83203125 388.514648438 241.85546875 429.3203125 200.907226562 429.3203125 c 0
EndSplineSet
EndChar

StartChar: t
Encoding: 116 116 86
Width: 306
GlyphClass: 2
Flags: MW
HStem: 0.320312 118.949<180.52 277.935 265.259 277.935> 436.145 96.5254<20.5342 78.0596 20.5342 78.0596 208.709 290.609>
VStem: 78.0596 130.649<168.995 175.82 175.82 436.145 532.67 620.484 620.484 620.484>
LayerCount: 2
Fore
SplineSet
265.258789062 0.3203125 m 2
 95.7802734375 0.3203125 78.0595703125 105.211914062 78.0595703125 168.995117188 c 2
 78.0595703125 436.14453125 l 1
 20.5341796875 436.14453125 l 1
 20.5341796875 532.669921875 l 1
 78.0595703125 532.669921875 l 1
 78.0595703125 620.484375 l 1
 208.708984375 673.419921875 l 1
 208.708984375 532.669921875 l 1
 290.609375 532.669921875 l 1
 290.609375 436.14453125 l 1
 208.708984375 436.14453125 l 1
 208.708984375 175.8203125 l 2
 208.708984375 134.640625 229.206054688 119.26953125 265.258789062 119.26953125 c 2
 277.934570312 119.26953125 l 1
 277.934570312 0.3203125 l 1
 265.258789062 0.3203125 l 2
EndSplineSet
EndChar

StartChar: u
Encoding: 117 117 87
Width: 411
GlyphClass: 2
Flags: MW
HStem: -7.48047 118.95<193.851 219.829 193.851 232.242> 512.669 20G<248.685 379.334 379.334 379.334>
VStem: 41.9834 130.649<181.67 205.07 205.07 532.67> 248.685 130.649<205.069 532.669>
LayerCount: 2
Fore
SplineSet
172.6328125 205.0703125 m 2
 172.6328125 130.795898438 177.04296875 111.469726562 210.658203125 111.469726562 c 0
 228.999023438 111.469726562 242.813476562 115.750976562 246.314453125 143.767578125 c 0
 247.84765625 156.030273438 248.684570312 176.66015625 248.684570312 205.069335938 c 2
 248.684570312 532.668945312 l 1
 379.333984375 532.668945312 l 1
 379.333984375 181.668945312 l 2
 379.333984375 80.8505859375 353.34375 39.0673828125 313.182617188 14.74609375 c 0
 288.081054688 -0.4560546875 253.825195312 -7.48046875 210.659179688 -7.48046875 c 0
 147.7734375 -7.48046875 102.27734375 7.8076171875 77.3447265625 41.4111328125 c 0
 53.248046875 73.890625 41.9833984375 120.866210938 41.9833984375 181.669921875 c 2
 41.9833984375 532.669921875 l 1
 172.6328125 532.669921875 l 1
 172.6328125 205.0703125 l 2
EndSplineSet
EndChar

StartChar: v
Encoding: 118 118 88
Width: 410
GlyphClass: 2
Flags: MW
HStem: 0.320312 21G<143.356 276.987 143.356 143.356> 512.67 20G<10.2686 153.558 153.558 153.558 266.765 410.074 410.074 410.074>
LayerCount: 2
Fore
SplineSet
10.2685546875 532.669921875 m 1
 153.557617188 532.669921875 l 1
 210.59375 236.258789062 l 1
 266.764648438 532.669921875 l 1
 410.07421875 532.669921875 l 1
 276.987304688 0.3203125 l 1
 143.356445312 0.3203125 l 1
 10.2685546875 532.669921875 l 1
EndSplineSet
EndChar

StartChar: w
Encoding: 119 119 89
Width: 606
GlyphClass: 2
Flags: MW
HStem: 0.320312 21G<131.503 254.983 131.503 131.503 358.388 482.853 358.388 358.388> 512.67 20G<10.5146 153.833 153.833 153.833 253.094 361.274 361.274 361.274 460.535 604.849 604.849 604.849>
LayerCount: 2
Fore
SplineSet
10.5146484375 532.669921875 m 1
 153.833007812 532.669921875 l 1
 198.797851562 241.67578125 l 1
 253.09375 532.669921875 l 1
 361.274414062 532.669921875 l 1
 415.5703125 241.67578125 l 1
 460.53515625 532.669921875 l 1
 604.848632812 532.669921875 l 1
 482.852539062 0.3203125 l 1
 358.387695312 0.3203125 l 1
 307.11328125 276.349609375 l 1
 254.983398438 0.3203125 l 1
 131.502929688 0.3203125 l 1
 10.5146484375 532.669921875 l 1
EndSplineSet
EndChar

StartChar: x
Encoding: 120 120 90
Width: 382
GlyphClass: 2
Flags: MW
HStem: 0.320312 21G<8.12988 143.598 8.12988 8.12988 249.777 384.033 249.777 249.777> 512.67 20G<14.873 149.093 149.093 149.093 242.563 378.409 378.409 378.409>
LayerCount: 2
Fore
SplineSet
249.77734375 0.3203125 m 1
 192.739257812 130.193359375 l 1
 143.59765625 0.3203125 l 1
 8.1298828125 0.3203125 l 1
 127.954101562 276.21875 l 1
 14.873046875 532.669921875 l 1
 149.092773438 532.669921875 l 1
 200.155273438 417.561523438 l 1
 242.563476562 532.669921875 l 1
 378.409179688 532.669921875 l 1
 261.236328125 278.122070312 l 1
 384.033203125 0.3203125 l 1
 249.77734375 0.3203125 l 1
EndSplineSet
EndChar

StartChar: y
Encoding: 121 121 91
Width: 410
GlyphClass: 2
Flags: MW
HStem: -153.73 117<49.7842 62.459 49.7842 99.5088> 512.67 20G<10.1162 153.356 153.356 153.356 272.729 410.104 410.104 410.104>
LayerCount: 2
Fore
SplineSet
62.458984375 -153.73046875 m 2
 49.7841796875 -153.73046875 l 1
 49.7841796875 -36.73046875 l 1
 99.5087890625 -36.73046875 l 2
 129.846679688 -36.73046875 147.1484375 -29.3896484375 155.380859375 -17.75390625 c 1
 10.1162109375 532.669921875 l 1
 153.356445312 532.669921875 l 1
 215.220703125 252.974609375 l 1
 272.728515625 532.669921875 l 1
 410.103515625 532.669921875 l 1
 267.932617188 -30.0478515625 l 2
 259.13671875 -65.9638671875 238.56640625 -125.579101562 162.040039062 -144.21875 c 0
 135.688476562 -150.637695312 102.573242188 -153.73046875 62.458984375 -153.73046875 c 2
EndSplineSet
EndChar

StartChar: z
Encoding: 122 122 92
Width: 386
GlyphClass: 2
Flags: MW
HStem: 0.320312 113.1<178.952 356.909 178.952 356.909> 419.57 113.1<39.0596 356.909 39.0596 219.822>
VStem: 39.0596 317.85<0.320312 107 107 107 426.021 532.67>
LayerCount: 2
Fore
SplineSet
39.0595703125 419.5703125 m 1
 39.0595703125 532.669921875 l 1
 356.909179688 532.669921875 l 1
 356.909179688 426.021484375 l 1
 178.952148438 113.419921875 l 1
 356.909179688 113.419921875 l 1
 356.909179688 0.3203125 l 1
 39.0595703125 0.3203125 l 1
 39.0595703125 107 l 1
 219.822265625 419.5703125 l 1
 39.0595703125 419.5703125 l 1
EndSplineSet
EndChar

StartChar: braceleft
Encoding: 123 123 93
Width: 322
GlyphClass: 2
Flags: MW
HStem: -81.5801 117.975<207.594 293.534 265.259 293.534 265.259 293.534> 272.344 117.976<39.0605 47.835 39.0605 47.835> 621.394 117.976<259.757 265.259 265.259 293.534>
VStem: 103.409 129.675<55.4106 72.4697 72.4697 201.17 55.4106 210.919 452.719 461.494 461.494 585.319>
LayerCount: 2
Fore
SplineSet
230.159179688 -81.580078125 m 2
 185.029296875 -81.580078125 103.409179688 -65.83203125 103.409179688 48.09375 c 2
 103.409179688 210.918945312 l 2
 103.409179688 235.41015625 98.7294921875 251.240234375 91.8408203125 259.359375 c 0
 85.4091796875 266.939453125 71.578125 272.34375 47.8349609375 272.34375 c 2
 39.060546875 272.34375 l 1
 39.060546875 390.319335938 l 1
 47.8349609375 390.319335938 l 2
 71.578125 390.319335938 85.4091796875 395.723632812 91.8408203125 403.303710938 c 0
 98.6865234375 411.372070312 103.409179688 427.538085938 103.409179688 452.71875 c 2
 103.409179688 609.694335938 l 2
 103.409179688 655.866210938 118.802734375 739.369140625 230.159179688 739.369140625 c 2
 293.534179688 739.369140625 l 1
 293.534179688 621.393554688 l 1
 265.258789062 621.393554688 l 2
 254.254882812 621.393554688 233.083984375 619.436523438 233.083984375 585.319335938 c 2
 233.083984375 461.494140625 l 2
 233.083984375 375.862304688 219.356445312 350.161132812 185.615234375 331.59765625 c 1
 218.826171875 312.474609375 233.083984375 286.651367188 233.083984375 201.169921875 c 2
 233.083984375 72.4697265625 l 2
 233.083984375 38.3515625 254.255859375 36.39453125 265.258789062 36.39453125 c 2
 293.534179688 36.39453125 l 1
 293.534179688 -81.580078125 l 1
 230.159179688 -81.580078125 l 2
EndSplineSet
Substitution2: "'rtla' Right to Left Alternates lookup 0 subtable" braceright
EndChar

StartChar: bar
Encoding: 124 124 94
Width: 269
GlyphClass: 2
Flags: MW
VStem: 76.1094 126.75<-81.5801 739.37 -81.5801 739.37>
LayerCount: 2
Fore
SplineSet
76.109375 739.370117188 m 1
 202.859375 739.370117188 l 1
 202.859375 -81.580078125 l 1
 76.109375 -81.580078125 l 1
 76.109375 739.370117188 l 1
EndSplineSet
EndChar

StartChar: braceright
Encoding: 125 125 95
Width: 322
GlyphClass: 2
Flags: MW
HStem: -81.5801 117.975<39.0596 67.335 67.335 72.8374 39.0596 103.409 39.0596 67.335> 272.345 117.976<272.886 293.533 284.758 293.533> 621.395 117.976<39.0605 67.335 39.0605 103.41>
VStem: 99.5098 129.674<72.4697 201.17 201.17 210.92>
LayerCount: 2
Fore
SplineSet
229.18359375 48.0947265625 m 2
 229.18359375 25.8798828125 228.606445312 -81.580078125 103.409179688 -81.580078125 c 2
 39.0595703125 -81.580078125 l 1
 39.0595703125 36.39453125 l 1
 67.3349609375 36.39453125 l 2
 78.33984375 36.39453125 99.509765625 38.3525390625 99.509765625 72.4697265625 c 2
 99.509765625 201.169921875 l 2
 99.509765625 284.3125 113.616210938 311.708007812 147.1796875 331.48828125 c 1
 113.23828125 350.07421875 99.509765625 375.829101562 99.509765625 461.495117188 c 2
 99.509765625 585.3203125 l 2
 99.509765625 619.438476562 78.337890625 621.39453125 67.3349609375 621.39453125 c 2
 39.060546875 621.39453125 l 1
 39.060546875 739.370117188 l 1
 103.41015625 739.370117188 l 2
 150.533203125 739.370117188 229.184570312 722.477539062 229.184570312 609.6953125 c 2
 229.184570312 452.719726562 l 2
 229.184570312 427.5390625 233.90625 411.373046875 240.752929688 403.3046875 c 0
 247.18359375 395.724609375 261.015625 390.3203125 284.7578125 390.3203125 c 2
 293.533203125 390.3203125 l 1
 293.533203125 272.344726562 l 1
 284.7578125 272.344726562 l 2
 261.014648438 272.344726562 247.18359375 266.940429688 240.751953125 259.360351562 c 0
 233.862304688 251.241210938 229.18359375 235.411132812 229.18359375 210.919921875 c 2
 229.18359375 48.0947265625 l 2
EndSplineSet
Substitution2: "'rtla' Right to Left Alternates lookup 0 subtable" braceleft
EndChar

StartChar: asciitilde
Encoding: 126 126 96
Width: 420
GlyphClass: 2
Flags: MW
HStem: 197.269 104.324<259.558 269.514 259.558 309.889> 241.145 104.323<148.074 158.313 113.259 172.14>
LayerCount: 2
Fore
SplineSet
274.03515625 197.268554688 m 0x80
 217.989257812 197.268554688 186.26953125 241.14453125 158.009765625 241.14453125 c 0
 138.138671875 241.14453125 128.131835938 225.220703125 108.856445312 189.080078125 c 1
 23.703125 237.5703125 l 1
 45.974609375 283.895507812 78.2578125 345.467773438 148.260742188 345.467773438 c 0x40
 168.366210938 345.467773438 187.380859375 341.71875 225.895507812 317.895507812 c 0
 232.90234375 313.810546875 253.85546875 301.592773438 265.259765625 301.592773438 c 0
 273.767578125 301.592773438 279.9453125 304.0625 285.047851562 308.921875 c 0
 292.76171875 316.268554688 301.981445312 331.748046875 314.57421875 354.712890625 c 1
 398.423828125 305.111328125 l 1
 377.006835938 258.706054688 345.7421875 197.268554688 274.03515625 197.268554688 c 0x80
EndSplineSet
EndChar

StartChar: exclamdown
Encoding: 161 161 98
Width: 214
GlyphClass: 2
Flags: MW
HStem: 387.395 145.275<46.8594 177.509 46.8594 177.509>
VStem: 46.8594 130.649<387.395 532.67 387.395 532.67> 65.8252 92.7178<317.195 317.195>
LayerCount: 2
Fore
SplineSet
46.859375 532.669921875 m 1xc0
 177.508789062 532.669921875 l 1
 177.508789062 387.39453125 l 1
 46.859375 387.39453125 l 1
 46.859375 532.669921875 l 1xc0
158.54296875 317.1953125 m 1xa0
 182.848632812 -153.73046875 l 1
 41.51953125 -153.73046875 l 1
 65.8251953125 317.1953125 l 1
 158.54296875 317.1953125 l 1xa0
EndSplineSet
EndChar

StartChar: cent
Encoding: 162 162 99
Width: 443
GlyphClass: 2
Flags: MW
VStem: 39.0596 130.649<187.521 345.471 345.471 346.446> 194.084 75.0752<-97.1787 -7.12109 -7.12109 -7.12109 540.113 636.996> 252.584 126.75<171.921 197.271 155.542 197.271 335.72 362.046 362.046 363.995>
LayerCount: 2
Fore
SplineSet
379.333984375 171.920898438 m 2xa0
 379.333984375 139.162109375 377.473632812 27.5 269.159179688 -0.751953125 c 1
 269.159179688 -97.1787109375 l 1
 194.083984375 -97.1787109375 l 1
 194.083984375 -7.12109375 l 1
 145.814453125 -4.33203125 107.548828125 11.53125 80.7978515625 41.2548828125 c 0
 52.267578125 72.9541015625 39.0595703125 122.130859375 39.0595703125 187.520507812 c 2
 39.0595703125 345.470703125 l 2
 39.0595703125 410.860351562 52.267578125 460.037109375 80.7978515625 491.737304688 c 0
 107.548828125 521.459960938 145.814453125 537.32421875 194.083984375 540.11328125 c 1
 194.083984375 636.99609375 l 1
 269.159179688 636.99609375 l 1
 269.159179688 533.733398438 l 1xc0
 342.59765625 514.560546875 379.333984375 455.998046875 379.333984375 363.995117188 c 2
 379.333984375 335.719726562 l 1
 252.583984375 335.719726562 l 1
 252.583984375 362.045898438 l 2
 252.583984375 393.86328125 243.4375 421.520507812 211.633789062 421.520507812 c 0
 193.658203125 421.520507812 169.708984375 414.827148438 169.708984375 346.446289062 c 2
 169.708984375 186.545898438 l 2
 169.708984375 118.473632812 193.581054688 111.470703125 210.659179688 111.470703125 c 0
 228.069335938 111.470703125 252.583984375 118.151367188 252.583984375 171.920898438 c 2
 252.583984375 197.270507812 l 1
 379.333984375 197.270507812 l 1
 379.333984375 171.920898438 l 2xa0
EndSplineSet
EndChar

StartChar: sterling
Encoding: 163 163 100
Width: 421
GlyphClass: 2
Flags: MW
HStem: 0.322266 125.774<195.583 402.735 195.583 402.735> 282.095 125.775<217.484 334.484 217.484 334.484> 587.271 113.102<241.394 256.724>
VStem: 80.0098 137.475<207.021 282.095 184.36 282.097 184.36 282.097 407.872 534.622 534.622 543.395> 278.91 131.625<521.946 530.721 521.946 557.751>
LayerCount: 2
Fore
SplineSet
249.66015625 587.270507812 m 0
 233.127929688 587.270507812 217.484375 582.708007812 217.484375 543.39453125 c 2
 217.484375 407.870117188 l 1
 334.484375 407.870117188 l 1
 334.484375 282.094726562 l 1
 217.484375 282.094726562 l 1
 217.484375 205.0703125 l 2
 217.484375 163.650390625 207.030273438 141.290039062 195.583007812 126.096679688 c 1
 402.735351562 126.096679688 l 1
 402.735351562 0.322265625 l 1
 37.1103515625 0.322265625 l 1
 37.1103515625 125.380859375 l 1
 50.154296875 130.212890625 65.658203125 135.955078125 72.44921875 151.534179688 c 0
 77.12109375 162.250976562 80.009765625 180.955078125 80.009765625 207.021484375 c 2
 80.009765625 282.096679688 l 1
 20.53515625 282.096679688 l 1
 20.53515625 407.872070312 l 1
 80.009765625 407.872070312 l 1
 80.009765625 534.622070312 l 2
 80.009765625 603.767578125 105.16796875 700.372070312 245.759765625 700.372070312 c 0
 299.881835938 700.372070312 341.846679688 685.938476562 369.7109375 655.604492188 c 0
 397.305664062 625.563476562 410.53515625 583.486328125 410.53515625 530.720703125 c 2
 410.53515625 521.946289062 l 1
 278.91015625 521.946289062 l 1
 278.91015625 530.720703125 l 2
 278.91015625 584.78125 263.788085938 587.270507812 249.66015625 587.270507812 c 0
EndSplineSet
EndChar

StartChar: currency
Encoding: 164 164 101
Width: 569
GlyphClass: 2
Flags: MW
HStem: 104.645 117.976<276.073 301.245 276.073 306.451> 402.02 117.976<276.073 301.245>
VStem: 80.9834 121.876<299.319 325.321 299.319 329.489> 375.435 121.875<299.339 325.301>
LayerCount: 2
Fore
SplineSet
288.659179688 104.64453125 m 0
 251.994140625 104.64453125 218.552734375 112.69140625 188.704101562 128.85546875 c 1
 122.819335938 63.96875 l 1
 38.4384765625 149.489257812 l 1
 103.354492188 215.403320312 l 1
 88.416015625 244.541992188 80.9833984375 276.955078125 80.9833984375 312.3203125 c 0
 80.9833984375 346.657226562 88.791015625 379.061523438 104.329101562 409.236328125 c 1
 38.3974609375 476.166015625 l 1
 123.930664062 561.700195312 l 1
 188.912109375 495.71875 l 1
 220.286132812 511.864257812 253.62890625 519.995117188 288.659179688 519.995117188 c 0
 323.672851562 519.995117188 356.741210938 511.868164062 387.560546875 495.708984375 c 1
 454.497070312 561.646484375 l 1
 538.924804688 476.078125 l 1
 473.047851562 410.202148438 l 1
 489.1796875 379.455078125 497.309570312 346.729492188 497.309570312 312.3203125 c 0
 497.309570312 277.982421875 489.501953125 245.578125 473.963867188 215.403320312 c 1
 539.89453125 148.473632812 l 1
 454.409179688 62.9873046875 l 1
 388.48828125 128.908203125 l 1
 357.624023438 112.751953125 324.2421875 104.64453125 288.659179688 104.64453125 c 0
375.434570312 312.3203125 m 0
 375.434570312 338.28125 367.190429688 359.2421875 350.596679688 376.426757812 c 0
 334.032226562 393.583007812 313.830078125 402.01953125 288.659179688 402.01953125 c 0
 263.487304688 402.01953125 243.485351562 393.590820312 227.263671875 376.484375 c 0
 210.977539062 359.309570312 202.859375 338.322265625 202.859375 312.3203125 c 0
 202.859375 286.317382812 210.977539062 265.330078125 227.263671875 248.155273438 c 0
 243.485351562 231.049804688 263.487304688 222.620117188 288.659179688 222.620117188 c 0
 313.830078125 222.620117188 334.032226562 231.056640625 350.596679688 248.212890625 c 0
 367.190429688 265.3984375 375.434570312 286.358398438 375.434570312 312.3203125 c 0
EndSplineSet
EndChar

StartChar: yen
Encoding: 165 165 102
Width: 410
GlyphClass: 2
Flags: MW
HStem: 0.320312 21G<141.435 278.909 141.435 141.435> 107.57 100.425<41.0088 141.435 41.0088 141.435 278.909 379.334> 242.12 100.425<41.0088 126.104 41.0088 141.435 41.0088 126.104 294.238 379.334> 670.62 20G<3.25488 149.133 149.133 149.133 273.087 417.089 417.089 417.089>
VStem: 141.435 137.475<0.320312 107.57 0.320312 107.57 207.995 242.12 0.320312 242.12>
LayerCount: 2
Fore
SplineSet
278.909179688 107.5703125 m 1
 278.909179688 0.3203125 l 1
 141.434570312 0.3203125 l 1
 141.434570312 107.5703125 l 1
 41.0087890625 107.5703125 l 1
 41.0087890625 207.995117188 l 1
 141.434570312 207.995117188 l 1
 141.434570312 242.120117188 l 1
 41.0087890625 242.120117188 l 1
 41.0087890625 342.544921875 l 1
 126.104492188 342.544921875 l 1
 3.2548828125 690.620117188 l 1
 149.1328125 690.620117188 l 1
 212.428710938 455.8984375 l 1
 273.086914062 690.620117188 l 1
 417.088867188 690.620117188 l 1
 294.23828125 342.544921875 l 1
 379.333984375 342.544921875 l 1
 379.333984375 242.120117188 l 1
 278.909179688 242.120117188 l 1
 278.909179688 207.995117188 l 1
 379.333984375 207.995117188 l 1
 379.333984375 107.5703125 l 1
 278.909179688 107.5703125 l 1
EndSplineSet
EndChar

StartChar: brokenbar
Encoding: 166 166 103
Width: 269
GlyphClass: 2
Flags: MW
VStem: 76.1094 126.75<-81.5801 279.17 -81.5801 279.17 378.62 739.37>
LayerCount: 2
Fore
SplineSet
76.109375 739.370117188 m 1
 202.859375 739.370117188 l 1
 202.859375 378.620117188 l 1
 76.109375 378.620117188 l 1
 76.109375 739.370117188 l 1
76.109375 279.169921875 m 1
 202.859375 279.169921875 l 1
 202.859375 -81.580078125 l 1
 76.109375 -81.580078125 l 1
 76.109375 279.169921875 l 1
EndSplineSet
EndChar

StartChar: section
Encoding: 167 167 104
Width: 410
GlyphClass: 2
Flags: MW
HStem: -163.48 107.251<199.865 214.971 199.865 270.527> 602.869 107.25<204.761 219.582>
VStem: 42.957 124.801<259.632 290.92 259.632 323.202> 55.6328 126.751<534.534 560.592 526.209 586.32> 240.883 125.776<-14.521 14.6177> 252.583 124.801<259.632 291.242>
LayerCount: 2
Fore
SplineSet
366.659179688 -1.6298828125 m 0xc8
 366.659179688 -86.7802734375 332.344726562 -163.48046875 208.708984375 -163.48046875 c 0
 154.135742188 -163.48046875 113.567382812 -149.697265625 89.712890625 -119.697265625 c 0
 66.3408203125 -90.3056640625 55.6328125 -45.8046875 55.6328125 12.99609375 c 2
 55.6328125 21.7705078125 l 1xd8
 175.55859375 21.7705078125 l 1
 175.55859375 12.99609375 l 2
 175.55859375 -15.119140625 178.215820312 -34.5234375 182.19921875 -44.0849609375 c 0
 185.306640625 -51.54296875 191.99609375 -56.2294921875 207.733398438 -56.2294921875 c 0
 222.208007812 -56.2294921875 229.374023438 -51.9658203125 233.229492188 -45.111328125 c 0
 237.977539062 -36.669921875 240.8828125 -23.5126953125 240.8828125 -5.529296875 c 0
 240.8828125 34.7646484375 231.213867188 52.2255859375 211.942382812 64.0029296875 c 0
 201.088867188 70.634765625 183.583984375 78.6513671875 159.849609375 87.6337890625 c 0
 117.091796875 103.01171875 86.146484375 125.358398438 68.5380859375 155.291992188 c 0
 51.130859375 184.883789062 42.95703125 224.950195312 42.95703125 275.268554688 c 0xe8
 42.95703125 371.134765625 78.2177734375 403.646484375 108.076171875 420.647460938 c 1
 90.595703125 431.359375 77.6650390625 446.434570312 69.923828125 465.512695312 c 0
 60.271484375 489.298828125 55.6328125 517.873046875 55.6328125 551.194335938 c 0
 55.6328125 621.446289062 81.26171875 710.119140625 210.659179688 710.119140625 c 0
 265.188476562 710.119140625 305.490234375 696.537109375 328.73046875 666.76171875 c 0
 351.416015625 637.694335938 361.784179688 593.725585938 361.784179688 535.59375 c 2
 361.784179688 526.819335938 l 1
 241.859375 526.819335938 l 1
 241.859375 535.59375 l 2
 241.859375 563.098632812 239.55078125 582.154296875 236.067382812 591.530273438 c 0
 233.56640625 598.264648438 227.529296875 602.869140625 211.633789062 602.869140625 c 0
 197.887695312 602.869140625 191.903320312 598.794921875 188.872070312 592.327148438 c 0
 184.8671875 583.783203125 182.383789062 569.990234375 182.383789062 551.194335938 c 0
 182.383789062 501.224609375 197.403320312 484.538085938 260.383789062 462.944335938 c 0
 303.791992188 447.584960938 334.971679688 425.423828125 352.306640625 395.706054688 c 0
 369.400390625 366.401367188 377.383789062 326.201171875 377.383789062 275.268554688 c 0xd4
 377.383789062 181.20703125 344.619140625 148.1796875 312.182617188 130.458007812 c 1
 334.341796875 116.560546875 366.659179688 89.0361328125 366.659179688 -1.6298828125 c 0xc8
252.583007812 275.270507812 m 0xe4
 252.583007812 307.212890625 249.166992188 329.842773438 243.584960938 342.401367188 c 0
 238.857421875 353.0390625 229.209960938 359.12109375 209.68359375 359.12109375 c 0
 190.223632812 359.12109375 180.84765625 352.9921875 176.360351562 342.126953125 c 0
 170.9765625 329.09375 167.7578125 306.5703125 167.7578125 275.270507812 c 0
 167.7578125 243.994140625 171.143554688 221.537109375 176.784179688 208.563476562 c 0
 181.616210938 197.450195312 191.010742188 191.420898438 209.68359375 191.420898438 c 0
 229.12890625 191.420898438 238.77734375 197.571289062 243.556640625 208.563476562 c 0
 249.198242188 221.537109375 252.583007812 243.994140625 252.583007812 275.270507812 c 0xe4
187.2578125 695.49609375 m 1024
EndSplineSet
EndChar

StartChar: dieresis
Encoding: 168 168 105
Width: 499
GlyphClass: 2
Flags: MW
HStem: 576.545 128.7<123.884 232.109 123.884 232.109 123.884 275.984 275.984 384.209>
VStem: 123.884 108.226<576.545 705.245 576.545 705.245> 275.984 108.225<576.545 705.245 576.545 705.245>
LayerCount: 2
Fore
SplineSet
123.883789062 705.245117188 m 1
 232.109375 705.245117188 l 1
 232.109375 576.544921875 l 1
 123.883789062 576.544921875 l 1
 123.883789062 705.245117188 l 1
275.984375 705.245117188 m 1
 384.208984375 705.245117188 l 1
 384.208984375 576.544921875 l 1
 275.984375 576.544921875 l 1
 275.984375 705.245117188 l 1
EndSplineSet
EndChar

StartChar: copyright
Encoding: 169 169 106
Width: 698
GlyphClass: 2
Flags: MW
HStem: -5.53027 83.8506<316.54 391.419 316.54 403.337> 145.595 89.7002<349.668 358.885 349.668 406.538> 453.695 88.7236<346.711 366.484> 608.72 83.8506<316.548 391.09>
VStem: 39.0596 91.6484<300.262 386.444 300.262 397.852> 229.183 98.4746<287.944 401.044 401.044 402.02> 382.257 95.5508<277.22 297.695 248.727 297.695 392.269 412.744 412.744 414.694> 576.283 91.6514<300.59 386.777>
LayerCount: 2
Fore
SplineSet
39.0595703125 343.51953125 m 0
 39.0595703125 452.18359375 66.0986328125 538.073242188 121.232421875 599.9296875 c 0
 176.46875 661.901367188 254.668945312 692.5703125 353.984375 692.5703125 c 0
 453.322265625 692.5703125 531.392578125 661.551757812 586.297851562 598.899414062 c 0
 641.041015625 536.430664062 667.934570312 450.90234375 667.934570312 343.51953125 c 0
 667.934570312 236.126953125 640.87109375 150.586914062 585.79296875 88.12109375 c 0
 530.580078125 25.501953125 452.690429688 -5.5302734375 353.984375 -5.5302734375 c 0
 254.64453125 -5.5302734375 176.42578125 25.4873046875 121.201171875 88.12109375 c 0
 66.1220703125 150.586914062 39.0595703125 236.126953125 39.0595703125 343.51953125 c 0
576.283203125 343.51953125 m 0
 576.283203125 430.034179688 557.0234375 495.435546875 519.776367188 540.75390625 c 0
 482.744140625 585.809570312 428.196289062 608.719726562 353.983398438 608.719726562 c 0
 279.11328125 608.719726562 224.2578125 585.643554688 187.233398438 540.2890625 c 0
 149.953125 494.620117188 130.708007812 429.368164062 130.708007812 343.51953125 c 0
 130.708007812 257.004882812 149.967773438 191.603515625 187.21484375 146.286132812 c 0
 224.23046875 101.25 279.096679688 78.3203125 353.983398438 78.3203125 c 0
 428.85546875 78.3203125 483.529296875 101.395507812 520.223632812 146.72265625 c 0
 557.193359375 192.390625 576.283203125 257.66015625 576.283203125 343.51953125 c 0
354.95703125 145.594726562 m 0
 235.166015625 145.594726562 229.182617188 243.556640625 229.182617188 287.944335938 c 2
 229.182617188 401.043945312 l 2
 229.182617188 448.912109375 239.163085938 485.225585938 261.342773438 508.49609375 c 0
 283.275390625 531.505859375 315.069335938 542.418945312 354.95703125 542.418945312 c 0
 417.072265625 542.418945312 477.807617188 516.411132812 477.807617188 414.694335938 c 2
 477.807617188 392.268554688 l 1
 382.256835938 392.268554688 l 1
 382.256835938 412.744140625 l 2
 382.256835938 430.116210938 378.010742188 453.6953125 354.95703125 453.6953125 c 0
 338.46484375 453.6953125 327.657226562 441.643554688 327.657226562 402.01953125 c 2
 327.657226562 286.969726562 l 2
 327.657226562 236.8046875 344.379882812 235.294921875 354.95703125 235.294921875 c 0
 362.813476562 235.294921875 382.256835938 235.430664062 382.256835938 277.219726562 c 2
 382.256835938 297.6953125 l 1
 477.807617188 297.6953125 l 1
 477.807617188 277.219726562 l 2
 477.807617188 220.234375 458.118164062 145.594726562 354.95703125 145.594726562 c 0
EndSplineSet
EndChar

StartChar: ordfeminine
Encoding: 170 170 107
Width: 311
GlyphClass: 2
Flags: MW
HStem: 414.695 84.8252<145.375 146.053> 547.296 71.1738<159.96 168.735 168.735 180.436> 660.395 84.8252<153.426 167.642>
VStem: 38.085 92.625<516.961 525.734 516.961 547.25> 180.436 91.6494<520.971 547.296 547.296 547.296 618.47 636.995 419.57 640.895 419.57 645.556>
LayerCount: 2
Fore
SplineSet
158.008789062 745.219726562 m 0
 235.484375 745.219726562 272.084960938 695.778320312 272.084960938 636.995117188 c 2
 272.084960938 419.5703125 l 1
 184.334960938 419.5703125 l 1
 184.334960938 432.364257812 l 1
 171.290039062 421.71875 158.471679688 414.6953125 133.634765625 414.6953125 c 0
 99.8037109375 414.6953125 38.0849609375 427.268554688 38.0849609375 519.01953125 c 0
 38.0849609375 575.481445312 73.8544921875 618.469726562 159.959960938 618.469726562 c 2
 180.435546875 618.469726562 l 1
 180.435546875 640.89453125 l 2
 180.435546875 650.216796875 178.249023438 660.39453125 157.03515625 660.39453125 c 0
 149.817382812 660.39453125 133.634765625 658.732421875 133.634765625 643.8203125 c 2
 133.634765625 632.120117188 l 1
 46.8603515625 632.120117188 l 1
 46.8603515625 642.844726562 l 2
 46.8603515625 675.797851562 57.0234375 702.181640625 78.3212890625 719.807617188 c 0
 99.0576171875 736.969726562 125.967773438 745.219726562 158.008789062 745.219726562 c 0
155.084960938 499.520507812 m 0
 166.474609375 499.520507812 180.435546875 504.918945312 180.435546875 520.970703125 c 2
 180.435546875 547.295898438 l 1
 168.735351562 547.295898438 l 2
 130.918945312 547.295898438 130.709960938 529.522460938 130.709960938 521.946289062 c 0
 130.709960938 511.975585938 135.6640625 499.520507812 155.084960938 499.520507812 c 0
147.28515625 834.920898438 m 1024
EndSplineSet
EndChar

StartChar: guillemotleft
Encoding: 171 171 108
Width: 442
GlyphClass: 2
Flags: W
LayerCount: 2
Fore
SplineSet
222.359375 481.037109375 m 1
 222.359375 348.721679688 l 1
 142.000976562 266.495117188 l 1
 222.359375 184.268554688 l 1
 222.359375 51.953125 l 1
 12.1513671875 266.495117188 l 1
 222.359375 481.037109375 l 1
410.534179688 481.037109375 m 1
 410.534179688 348.692382812 l 1
 329.271484375 266.495117188 l 1
 410.534179688 184.297851562 l 1
 410.534179688 51.953125 l 1
 200.326171875 266.495117188 l 1
 410.534179688 481.037109375 l 1
EndSplineSet
EndChar

StartChar: logicalnot
Encoding: 172 172 109
Width: 420
GlyphClass: 2
Flags: MW
HStem: 151.445 217.425<262.334 392.984 262.334 262.334> 249.92 118.95<36.1338 262.334 36.1338 392.984>
VStem: 262.334 130.65<151.445 249.92 249.92 249.92>
LayerCount: 2
Fore
SplineSet
262.333984375 249.919921875 m 1x60
 36.1337890625 249.919921875 l 1
 36.1337890625 368.870117188 l 1x60
 392.984375 368.870117188 l 1
 392.984375 151.4453125 l 1
 262.333984375 151.4453125 l 1xa0
 262.333984375 249.919921875 l 1x60
EndSplineSet
EndChar

StartChar: uni00AD
Encoding: 173 173 110
Width: 354
GlyphClass: 2
Flags: MW
HStem: 284.045 124.8<39.0596 324.734 39.0596 324.734>
VStem: 39.0596 285.675<284.045 408.845 284.045 408.845>
LayerCount: 2
Fore
SplineSet
39.0595703125 408.844726562 m 1
 324.734375 408.844726562 l 1
 324.734375 284.044921875 l 1
 39.0595703125 284.044921875 l 1
 39.0595703125 408.844726562 l 1
EndSplineSet
EndChar

StartChar: registered
Encoding: 174 174 111
Width: 429
GlyphClass: 2
Flags: MW
HStem: 307.445 54.6006<190.899 230.41 172.053 246.036> 639.921 54.5986<198.567 246.047 191.526 267.633>
VStem: 42.9609 57.5254<471.831 524.229 465.205 531.127> 155.086 60.4502<390.321 459.998 526.821 558.021> 230.161 60.4502<538.865 547.407> 336.436 59.4746<472.123 530.191 472.123 532.204>
LayerCount: 2
Fore
SplineSet
42.9609375 501.470703125 m 0
 42.9609375 560.784179688 58.181640625 608.36328125 89.607421875 642.897460938 c 0
 121.0625 677.463867188 164.592773438 694.51953125 218.459960938 694.51953125 c 0
 273.633789062 694.51953125 317.876953125 676.9609375 349.350585938 641.337890625 c 0
 380.625976562 605.936523438 395.91015625 558.913085938 395.91015625 501.469726562 c 0
 395.91015625 442.775390625 380.666015625 395.240234375 349.322265625 360.107421875 c 0
 317.838867188 324.818359375 273.611328125 307.4453125 218.459960938 307.4453125 c 0
 163.337890625 307.4453125 119.400390625 324.634765625 88.5361328125 359.66015625 c 0
 57.82421875 394.512695312 42.9609375 442.19140625 42.9609375 501.470703125 c 0
218.4609375 362.045898438 m 0
 242.358398438 362.045898438 336.435546875 362.784179688 336.435546875 501.470703125 c 0
 336.435546875 562.936523438 316.805664062 639.920898438 218.4609375 639.920898438 c 0
 178.672851562 639.920898438 150.095703125 627.870117188 130.623046875 604.5625 c 0
 110.9296875 580.991210938 100.486328125 546.986328125 100.486328125 501.470703125 c 0
 100.486328125 428.939453125 125.645507812 362.045898438 218.4609375 362.045898438 c 0
221.385742188 614.571289062 m 2
 243.404296875 614.571289062 290.611328125 608.999023438 290.611328125 544.37109375 c 0
 290.611328125 520.877929688 283.470703125 501.422851562 268.640625 487.825195312 c 1
 300.796875 390.321289062 l 1
 288.661132812 390.321289062 l 1
 237.362304688 390.321289062 l 1
 215.536132812 459.998046875 l 1
 215.536132812 390.321289062 l 1
 155.0859375 390.321289062 l 1
 155.0859375 614.571289062 l 1
 221.385742188 614.571289062 l 2
216.510742188 526.821289062 m 2
 224.002929688 526.821289062 226.973632812 528.654296875 227.56640625 529.306640625 c 0
 228.200195312 530.00390625 230.161132812 534.333984375 230.161132812 543.395507812 c 0
 230.161132812 551.41796875 228.524414062 555.454101562 228.17578125 555.8984375 c 0
 227.729492188 556.302734375 224.205078125 558.020507812 216.510742188 558.020507812 c 2
 215.536132812 558.020507812 l 1
 215.536132812 526.821289062 l 1
 216.510742188 526.821289062 l 2
EndSplineSet
EndChar

StartChar: macron
Encoding: 175 175 112
Width: 499
GlyphClass: 2
Flags: MW
HStem: 581.42 118.95<129.734 378.359 129.734 378.359>
VStem: 129.734 248.625<581.42 700.37 581.42 700.37>
LayerCount: 2
Fore
SplineSet
129.734375 700.370117188 m 1
 378.359375 700.370117188 l 1
 378.359375 581.419921875 l 1
 129.734375 581.419921875 l 1
 129.734375 700.370117188 l 1
EndSplineSet
EndChar

StartChar: degree
Encoding: 176 176 113
Width: 328
GlyphClass: 2
Flags: MW
HStem: 441.995 79.9502<154.346 175.814 154.346 187.289> 621.395 79.9502<154.335 175.814>
VStem: 39.0596 82.874<557.472 585.855 557.472 589.922> 216.509 82.875<564.185 579.157>
LayerCount: 2
Fore
SplineSet
39.0595703125 571.669921875 m 0
 39.0595703125 608.173828125 51.513671875 639.432617188 76.2431640625 664.161132812 c 0
 100.971679688 688.889648438 132.229492188 701.344726562 168.734375 701.344726562 c 0
 205.842773438 701.344726562 237.4375 688.923828125 262.200195312 664.161132812 c 0
 286.928710938 639.432617188 299.383789062 608.173828125 299.383789062 571.669921875 c 0
 299.383789062 535.166015625 286.928710938 503.907226562 262.200195312 479.178710938 c 0
 237.4375 454.416015625 205.842773438 441.995117188 168.734375 441.995117188 c 0
 132.229492188 441.995117188 100.971679688 454.450195312 76.2431640625 479.178710938 c 0
 51.513671875 503.907226562 39.0595703125 535.166015625 39.0595703125 571.669921875 c 0
121.93359375 571.669921875 m 0
 121.93359375 543.2734375 139.958007812 521.9453125 168.734375 521.9453125 c 0
 182.893554688 521.9453125 193.833007812 526.512695312 202.900390625 535.854492188 c 0
 211.958007812 545.186523438 216.508789062 556.698242188 216.508789062 571.670898438 c 0
 216.508789062 586.643554688 211.958007812 598.153320312 202.900390625 607.485351562 c 0
 193.833007812 616.827148438 182.893554688 621.39453125 168.734375 621.39453125 c 0
 139.935546875 621.39453125 121.93359375 600.040039062 121.93359375 571.669921875 c 0
EndSplineSet
EndChar

StartChar: plusminus
Encoding: 177 177 114
Width: 420
GlyphClass: 2
Flags: MW
HStem: 9.09473 125.775<33.209 396.884 33.209 396.884> 281.12 125.774<33.209 152.159 33.209 152.159 277.935 396.884>
VStem: 33.209 363.675<9.09473 134.87 9.09473 134.87 281.12 406.895 9.09473 406.895> 152.159 125.775<162.17 281.12 162.17 281.12 406.895 525.845>
LayerCount: 2
Fore
SplineSet
277.934570312 281.120117188 m 1xd0
 277.934570312 162.169921875 l 1
 152.159179688 162.169921875 l 1
 152.159179688 281.120117188 l 1xd0
 33.208984375 281.120117188 l 1
 33.208984375 406.89453125 l 1xe0
 152.159179688 406.89453125 l 1
 152.159179688 525.844726562 l 1
 277.934570312 525.844726562 l 1
 277.934570312 406.89453125 l 1xd0
 396.883789062 406.89453125 l 1
 396.883789062 281.120117188 l 1xe0
 277.934570312 281.120117188 l 1xd0
33.208984375 134.870117188 m 1xe0
 396.883789062 134.870117188 l 1
 396.883789062 9.0947265625 l 1
 33.208984375 9.0947265625 l 1
 33.208984375 134.870117188 l 1xe0
EndSplineSet
EndChar

StartChar: uni00B2
Encoding: 178 178 115
Width: 287
GlyphClass: 2
Flags: MW
HStem: 419.57 89.6992<147.686 264.284 147.686 264.284> 759.846 89.7002<140.189 156.281>
VStem: 35.1592 95.5498<706.221 745.221 706.221 753.021 706.221 783.382> 167.759 95.5508<720.847 742.297 742.297 746.357>
LayerCount: 2
Fore
SplineSet
35.1591796875 753.020507812 m 2
 35.1591796875 813.743164062 82.5205078125 849.545898438 150.208984375 849.545898438 c 0
 184.108398438 849.545898438 211.912109375 841.206054688 232.461914062 823.540039062 c 0
 253.1015625 805.796875 263.309570312 781.03125 263.309570312 751.071289062 c 2
 263.309570312 720.845703125 l 2
 263.309570312 687.212890625 257.493164062 665.7734375 230.497070312 626.078125 c 2
 147.685546875 509.26953125 l 1
 264.284179688 509.26953125 l 1
 264.284179688 419.5703125 l 1
 32.234375 419.5703125 l 1
 32.234375 497.326171875 l 1
 33.728515625 499.541992188 l 1
 33.728515625 499.541992188 148.778320312 670.169921875 148.885742188 670.325195312 c 0
 165.211914062 693.453125 167.758789062 702.459960938 167.758789062 720.846679688 c 2
 167.758789062 742.296875 l 2
 167.758789062 750.41796875 164.303710938 759.845703125 148.258789062 759.845703125 c 0
 132.119140625 759.845703125 130.708984375 752.427734375 130.708984375 745.220703125 c 2
 130.708984375 706.220703125 l 1
 35.1591796875 706.220703125 l 1
 35.1591796875 753.020507812 l 2
EndSplineSet
EndChar

StartChar: uni00B3
Encoding: 179 179 116
Width: 282
GlyphClass: 2
Flags: MW
HStem: 413.72 89.7002<135.836 148.484 135.836 161.987> 592.145 89.7002<114.134 138.509 114.134 140.459> 758.87 90.6748<135.836 148.01>
VStem: 29.3096 95.5498<515.572 520.97 520.97 553.145 515.572 553.145 708.17 741.32> 162.884 97.5<524.87 562.895 562.895 567.77 505.829 569.342 706.22 713.045 713.045 737.42 737.42 742.095>
LayerCount: 2
Fore
SplineSet
225.59765625 640.327148438 m 1
 247.098632812 627.755859375 260.383789062 611.57421875 260.383789062 567.76953125 c 2
 260.383789062 522.919921875 l 2
 260.383789062 488.737304688 250.311523438 461.100585938 229.25 441.853515625 c 0
 208.353515625 422.758789062 179.615234375 413.719726562 144.359375 413.719726562 c 0
 108.62890625 413.719726562 79.9755859375 421.958007812 59.6103515625 439.776367188 c 0
 39.2099609375 457.625976562 29.3095703125 483.047851562 29.3095703125 514.14453125 c 2
 29.3095703125 553.14453125 l 1
 124.859375 553.14453125 l 1
 124.859375 520.969726562 l 2
 124.859375 510.173828125 128.288085938 503.419921875 143.383789062 503.419921875 c 0
 153.584960938 503.419921875 158.01171875 505.854492188 159.14453125 507.17578125 c 0
 160.765625 509.067382812 162.883789062 514.645507812 162.883789062 524.870117188 c 2
 162.883789062 562.89453125 l 2
 162.883789062 575.7890625 160.579101562 583.725585938 158.203125 587.015625 c 0
 156.759765625 589.013671875 151.38671875 592.14453125 138.508789062 592.14453125 c 2
 114.133789062 592.14453125 l 1
 114.133789062 681.844726562 l 1
 140.458984375 681.844726562 l 2
 151.961914062 681.844726562 157.045898438 684.59765625 158.5078125 686.397460938 c 0
 160.692382812 689.0859375 162.883789062 695.416992188 162.883789062 706.219726562 c 2
 162.883789062 737.419921875 l 2
 162.883789062 746.76953125 160.833984375 752.114257812 158.688476562 754.58984375 c 0
 156.958984375 756.5859375 152.63671875 758.870117188 143.383789062 758.870117188 c 0
 128.288085938 758.870117188 124.859375 752.1171875 124.859375 741.3203125 c 2
 124.859375 708.169921875 l 1
 29.3095703125 708.169921875 l 1
 29.3095703125 746.1953125 l 2
 29.3095703125 810.463867188 72.337890625 849.544921875 144.359375 849.544921875 c 0
 180.157226562 849.544921875 209.01953125 840.923828125 229.668945312 822.448242188 c 0
 250.33203125 803.959960938 260.383789062 777.936523438 260.383789062 746.1953125 c 2
 260.383789062 713.044921875 l 2
 260.383789062 671.025390625 246.451171875 653.708007812 225.59765625 640.327148438 c 1
EndSplineSet
EndChar

StartChar: acute
Encoding: 180 180 117
Width: 499
GlyphClass: 2
Flags: MW
HStem: 575.57 150.149<238.369 246.728 129.069 382.524>
VStem: 129.069 253.455<575.57 725.72>
LayerCount: 2
Fore
SplineSet
238.369140625 725.719726562 m 1
 382.524414062 725.719726562 l 1
 246.727539062 575.5703125 l 1
 129.069335938 575.5703125 l 1
 238.369140625 725.719726562 l 1
EndSplineSet
EndChar

StartChar: uni00B5
Encoding: 181 181 118
Width: 411
GlyphClass: 2
Flags: MW
HStem: -4.55469 116.024<204.897 212.46> 512.67 20G<41.9844 172.634 172.634 172.634 248.685 379.334 379.334 379.334>
VStem: 41.9844 130.649<149.225 157.295 157.295 532.67> 248.685 130.649<157.295 532.67 0.320312 532.67>
LayerCount: 2
Fore
SplineSet
253.559570312 18.7685546875 m 1
 248.799804688 14.0859375 227.911132812 -4.5546875 197.008789062 -4.5546875 c 0
 185.703125 -4.5546875 175.270507812 -3.1201171875 165.809570312 -0.126953125 c 1
 165.809570312 -153.73046875 l 1
 41.984375 -153.73046875 l 1
 41.984375 532.669921875 l 1
 172.633789062 532.669921875 l 1
 172.633789062 157.294921875 l 2
 172.633789062 141.154296875 176.633789062 130.124023438 183.444335938 122.80859375 c 0
 190.547851562 115.178710938 199.135742188 111.469726562 210.659179688 111.469726562 c 0
 227.724609375 111.469726562 248.684570312 121.116210938 248.684570312 157.294921875 c 2
 248.684570312 532.669921875 l 1
 379.333984375 532.669921875 l 1
 379.333984375 0.3203125 l 1
 253.559570312 0.3203125 l 1
 253.559570312 18.7685546875 l 1
EndSplineSet
EndChar

StartChar: paragraph
Encoding: 182 182 119
Width: 551
GlyphClass: 2
Flags: MW
HStem: 670.62 20G<246.734 497.31 497.31 497.31>
VStem: 42.96 287.624<414.769 532.104> 204.81 125.774<-153.73 255.508 255.508 255.508> 372.509 124.801<-153.73 581.42 581.42 581.42>
LayerCount: 2
Fore
SplineSet
42.9599609375 473.1953125 m 0xd0
 42.9599609375 591.013671875 119.4375 690.620117188 246.734375 690.620117188 c 2
 497.309570312 690.620117188 l 1
 497.309570312 -153.73046875 l 1
 372.508789062 -153.73046875 l 1
 372.508789062 581.419921875 l 1
 330.583984375 581.419921875 l 1
 330.583984375 -153.73046875 l 1
 204.809570312 -153.73046875 l 1
 204.809570312 255.5078125 l 1xb0
 110.67578125 265.708984375 42.9599609375 356.342773438 42.9599609375 473.1953125 c 0xd0
EndSplineSet
EndChar

StartChar: periodcentered
Encoding: 183 183 120
Width: 182
GlyphClass: 2
Flags: MW
HStem: 208.97 146.25<30.2842 161.909 30.2842 161.909>
VStem: 30.2842 131.625<208.97 355.22 208.97 355.22>
LayerCount: 2
Fore
SplineSet
30.2841796875 355.219726562 m 1
 161.909179688 355.219726562 l 1
 161.909179688 208.969726562 l 1
 30.2841796875 208.969726562 l 1
 30.2841796875 355.219726562 l 1
EndSplineSet
EndChar

StartChar: cedilla
Encoding: 184 184 121
Width: 499
GlyphClass: 2
Flags: MW
HStem: -153.73 181.351<226.354 266.604 147.552 330.293>
VStem: 147.552 182.741<-153.73 27.6201>
LayerCount: 2
Fore
SplineSet
330.29296875 27.6201171875 m 1
 266.604492188 -153.73046875 l 1
 147.551757812 -153.73046875 l 1
 226.353515625 27.6201171875 l 1
 330.29296875 27.6201171875 l 1
EndSplineSet
EndChar

StartChar: uni00B9
Encoding: 185 185 122
Width: 221
GlyphClass: 2
Flags: MW
VStem: 87.8096 98.4746<419.57 724.854 724.854 724.854>
LayerCount: 2
Fore
SplineSet
25.4091796875 682.928710938 m 1
 25.4091796875 797.669921875 l 1
 93.9111328125 843.6953125 l 1
 186.284179688 843.6953125 l 1
 186.284179688 419.5703125 l 1
 87.8095703125 419.5703125 l 1
 87.8095703125 724.853515625 l 1
 25.4091796875 682.928710938 l 1
EndSplineSet
EndChar

StartChar: ordmasculine
Encoding: 186 186 123
Width: 314
GlyphClass: 2
Flags: MW
HStem: 414.695 85.7998<157.904 167.766 157.904 181.12> 659.42 85.8008<155.28 167.767>
VStem: 43.9346 92.625<534.621 537.545 537.545 622.37 519.28 625.296 519.28 649.429> 186.284 93.5996<537.545 622.37 622.37 625.295 514.201 639.279>
LayerCount: 2
Fore
SplineSet
162.883789062 414.6953125 m 0
 55.3193359375 414.6953125 43.9345703125 486.321289062 43.9345703125 534.62109375 c 2
 43.9345703125 625.295898438 l 2
 43.9345703125 673.561523438 55.2958984375 745.220703125 162.883789062 745.220703125 c 0
 199.35546875 745.220703125 228.624023438 736.254882812 249.293945312 717.03515625 c 0
 270.43359375 697.37890625 279.883789062 666.133789062 279.883789062 625.294921875 c 2
 279.883789062 534.620117188 l 2
 279.883789062 493.78125 270.43359375 462.536132812 249.293945312 442.880859375 c 0
 228.624023438 423.661132812 199.35546875 414.6953125 162.883789062 414.6953125 c 0
161.909179688 500.495117188 m 0
 173.622070312 500.495117188 186.284179688 503.724609375 186.284179688 537.544921875 c 2
 186.284179688 622.370117188 l 2
 186.284179688 656.1875 173.625 659.419921875 161.909179688 659.419921875 c 0
 148.650390625 659.419921875 136.559570312 654.399414062 136.559570312 622.370117188 c 2
 136.559570312 537.544921875 l 2
 136.559570312 501.014648438 153.8984375 500.495117188 161.909179688 500.495117188 c 0
149.234375 834.919921875 m 1024
EndSplineSet
EndChar

StartChar: guillemotright
Encoding: 187 187 124
Width: 442
GlyphClass: 2
Flags: W
LayerCount: 2
Fore
SplineSet
41.984375 348.721679688 m 1
 41.984375 481.037109375 l 1
 252.19140625 266.495117188 l 1
 41.984375 51.953125 l 1
 41.984375 184.268554688 l 1
 122.341796875 266.495117188 l 1
 41.984375 348.721679688 l 1
230.159179688 348.721679688 m 1
 230.159179688 481.037109375 l 1
 440.3671875 266.495117188 l 1
 230.159179688 51.953125 l 1
 230.159179688 184.268554688 l 1
 310.516601562 266.495117188 l 1
 230.159179688 348.721679688 l 1
EndSplineSet
EndChar

StartChar: onequarter
Encoding: 188 188 125
Width: 691
GlyphClass: 3
Flags: MW
HStem: 0.320312 21G<135.625 234.307 135.625 135.625 552.884 650.384 552.884 552.884> 62.7197 89.7002<520.087 552.884 520.087 552.884 650.384 678.659> 529.854 21G<25.4092 25.4092> 670.62 21G
VStem: 87.8096 98.4746<266.495 571.778 571.778 571.778> 552.884 97.5<0.320312 62.7197 0.320312 62.7197 152.42 231.395>
LayerCount: 2
Fore
SplineSet
25.4091796875 529.853515625 m 1
 25.4091796875 644.594726562 l 1
 93.9111328125 690.620117188 l 1
 186.284179688 690.620117188 l 1
 186.284179688 266.495117188 l 1
 87.8095703125 266.495117188 l 1
 87.8095703125 571.778320312 l 1
 25.4091796875 529.853515625 l 1
650.383789062 152.419921875 m 1
 678.659179688 152.419921875 l 1
 678.659179688 62.7197265625 l 1
 650.383789062 62.7197265625 l 1
 650.383789062 0.3203125 l 1
 552.883789062 0.3203125 l 1
 552.883789062 62.7197265625 l 1
 418.333984375 62.7197265625 l 1
 418.333984375 145.044921875 l 1
 509.46484375 424.4453125 l 1
 607.836914062 424.4453125 l 1
 520.086914062 152.419921875 l 1
 552.883789062 152.419921875 l 1
 552.883789062 231.39453125 l 1
 650.383789062 231.39453125 l 1
 650.383789062 152.419921875 l 1
494.34375 698.419921875 m 1
 234.306640625 0.3203125 l 1
 135.625 0.3203125 l 1
 395.662109375 698.419921875 l 1
 494.34375 698.419921875 l 1
EndSplineSet
Ligature2: "'frac' Diagonal Fractions lookup 2 subtable" one slash four
EndChar

StartChar: onehalf
Encoding: 189 189 126
Width: 687
GlyphClass: 3
Flags: MW
HStem: 0.320312 89.6992<546.461 663.06 546.461 663.06> 340.596 89.7002<538.964 555.055> 529.854 21G<25.4092 25.4092> 670.62 21G
VStem: 87.8096 98.4746<266.495 571.778 571.778 571.778> 433.935 95.5498<286.971 325.971 286.971 333.771 286.971 364.132> 566.534 95.5498<301.596 323.046 323.046 327.109>
LayerCount: 2
Fore
SplineSet
25.4091796875 529.853515625 m 1
 25.4091796875 644.594726562 l 1
 93.9111328125 690.620117188 l 1
 186.284179688 690.620117188 l 1
 186.284179688 266.495117188 l 1
 87.8095703125 266.495117188 l 1
 87.8095703125 571.778320312 l 1
 25.4091796875 529.853515625 l 1
433.934570312 333.770507812 m 2
 433.934570312 394.493164062 481.295898438 430.295898438 548.984375 430.295898438 c 0
 582.883789062 430.295898438 610.686523438 421.956054688 631.237304688 404.290039062 c 0
 651.876953125 386.546875 662.083984375 361.78125 662.083984375 331.821289062 c 2
 662.083984375 301.595703125 l 2
 662.083984375 267.962890625 656.268554688 246.5234375 629.272460938 206.828125 c 2
 546.4609375 90.01953125 l 1
 663.059570312 90.01953125 l 1
 663.059570312 0.3203125 l 1
 431.008789062 0.3203125 l 1
 431.008789062 78.076171875 l 1
 432.502929688 80.2919921875 l 1
 432.502929688 80.2919921875 547.553710938 250.918945312 547.66015625 251.07421875 c 0
 563.986328125 274.202148438 566.534179688 283.208984375 566.534179688 301.595703125 c 2
 566.534179688 323.045898438 l 2
 566.534179688 331.171875 563.076171875 340.595703125 547.034179688 340.595703125 c 0
 530.893554688 340.595703125 529.484375 333.177734375 529.484375 325.970703125 c 2
 529.484375 286.970703125 l 1
 433.934570312 286.970703125 l 1
 433.934570312 333.770507812 l 2
494.34375 698.421875 m 1
 234.306640625 0.322265625 l 1
 135.625 0.322265625 l 1
 395.662109375 698.421875 l 1
 494.34375 698.421875 l 1
EndSplineSet
Ligature2: "'frac' Diagonal Fractions lookup 2 subtable" one slash two
EndChar

StartChar: threequarters
Encoding: 190 190 127
Width: 752
GlyphClass: 3
Flags: MW
HStem: 0.320312 21G<197.05 295.731 197.05 197.05 614.31 711.81 614.31 614.31> 62.7197 89.7002<581.512 614.31 581.512 614.31 711.81 740.084> 260.645 89.7002<135.836 148.484 135.836 161.987> 439.07 89.6992<114.134 138.509 114.134 140.459> 605.795 90.6748<135.836 148.01>
VStem: 29.3096 95.5498<362.497 367.895 367.895 400.07 362.497 400.07 555.095 588.245> 162.884 97.5<371.795 409.82 409.82 414.695 352.753 416.267 553.145 559.97 559.97 584.345 584.345 589.02> 614.31 97.5<0.320312 62.7197 0.320312 62.7197 152.42 231.395>
LayerCount: 2
Fore
SplineSet
225.59765625 487.251953125 m 1
 247.098632812 474.681640625 260.383789062 458.499023438 260.383789062 414.6953125 c 2
 260.383789062 369.844726562 l 2
 260.383789062 335.662109375 250.311523438 308.025390625 229.25 288.779296875 c 0
 208.353515625 269.68359375 179.615234375 260.64453125 144.359375 260.64453125 c 0
 108.62890625 260.64453125 79.9755859375 268.8828125 59.6103515625 286.702148438 c 0
 39.2099609375 304.55078125 29.3095703125 329.97265625 29.3095703125 361.0703125 c 2
 29.3095703125 400.0703125 l 1
 124.859375 400.0703125 l 1
 124.859375 367.89453125 l 2
 124.859375 357.098632812 128.288085938 350.344726562 143.383789062 350.344726562 c 0
 153.584960938 350.344726562 158.01171875 352.779296875 159.14453125 354.100585938 c 0
 160.765625 355.9921875 162.883789062 361.5703125 162.883789062 371.794921875 c 2
 162.883789062 409.8203125 l 2
 162.883789062 422.713867188 160.579101562 430.650390625 158.203125 433.940429688 c 0
 156.759765625 435.938476562 151.38671875 439.0703125 138.508789062 439.0703125 c 2
 114.133789062 439.0703125 l 1
 114.133789062 528.76953125 l 1
 140.458984375 528.76953125 l 2
 151.961914062 528.76953125 157.045898438 531.5234375 158.5078125 533.322265625 c 0
 160.692382812 536.010742188 162.883789062 542.341796875 162.883789062 553.14453125 c 2
 162.883789062 584.344726562 l 2
 162.883789062 593.694335938 160.833984375 599.0390625 158.688476562 601.515625 c 0
 156.958984375 603.510742188 152.63671875 605.794921875 143.383789062 605.794921875 c 0
 128.288085938 605.794921875 124.859375 599.041992188 124.859375 588.245117188 c 2
 124.859375 555.094726562 l 1
 29.3095703125 555.094726562 l 1
 29.3095703125 593.120117188 l 2
 29.3095703125 657.388671875 72.337890625 696.469726562 144.359375 696.469726562 c 0
 180.157226562 696.469726562 209.01953125 687.848632812 229.668945312 669.373046875 c 0
 250.33203125 650.884765625 260.383789062 624.862304688 260.383789062 593.120117188 c 2
 260.383789062 559.969726562 l 2
 260.383789062 517.950195312 246.451171875 500.6328125 225.59765625 487.251953125 c 1
711.809570312 152.419921875 m 1
 740.083984375 152.419921875 l 1
 740.083984375 62.7197265625 l 1
 711.809570312 62.7197265625 l 1
 711.809570312 0.3203125 l 1
 614.309570312 0.3203125 l 1
 614.309570312 62.7197265625 l 1
 479.758789062 62.7197265625 l 1
 479.758789062 145.044921875 l 1
 570.889648438 424.4453125 l 1
 669.26171875 424.4453125 l 1
 581.51171875 152.419921875 l 1
 614.309570312 152.419921875 l 1
 614.309570312 231.39453125 l 1
 711.809570312 231.39453125 l 1
 711.809570312 152.419921875 l 1
555.768554688 698.419921875 m 1
 295.731445312 0.3203125 l 1
 197.049804688 0.3203125 l 1
 457.086914062 698.419921875 l 1
 555.768554688 698.419921875 l 1
EndSplineSet
Ligature2: "'frac' Diagonal Fractions lookup 2 subtable" three slash four
EndChar

StartChar: questiondown
Encoding: 191 191 128
Width: 378
GlyphClass: 2
Flags: MW
HStem: -163.48 119.926<191.024 207.035 191.024 253.184> 391.295 141.375<135.584 259.409 135.584 259.409>
VStem: 27.3594 132.6<-15.7305 27.5176 -15.7305 37.8384> 135.584 123.825<291.845 339.62 276.697 339.62 391.295 532.67> 236.009 130.65<43.2197 51.9951 -28.6851 51.9951>
LayerCount: 2
Fore
SplineSet
135.583984375 532.669921875 m 1xd0
 259.409179688 532.669921875 l 1
 259.409179688 391.294921875 l 1
 135.583984375 391.294921875 l 1
 135.583984375 532.669921875 l 1xd0
366.659179688 43.2197265625 m 2xe8
 366.659179688 -100.58984375 309.358398438 -163.48046875 197.009765625 -163.48046875 c 0
 145.900390625 -163.48046875 104.190429688 -148.533203125 73.353515625 -118.043945312 c 0
 42.439453125 -87.4775390625 27.359375 -45.224609375 27.359375 7.1435546875 c 0xe8
 27.359375 68.533203125 40.7958984375 101.876953125 71.8466796875 146.727539062 c 2
 110.908203125 202.388671875 l 2
 129.81640625 228.651367188 135.583984375 244.754882812 135.583984375 291.844726562 c 2
 135.583984375 339.620117188 l 1
 259.409179688 339.620117188 l 1
 259.409179688 291.844726562 l 2xd0
 259.409179688 261.549804688 257.486328125 237.796875 253.326171875 220.118164062 c 0
 249.021484375 201.82421875 237.838867188 179.340820312 220.017578125 151.618164062 c 0
 219.99609375 151.583984375 185.880859375 97.9736328125 185.880859375 97.9736328125 c 2
 165.568359375 66.2373046875 159.958984375 45.9404296875 159.958984375 9.0947265625 c 0
 159.958984375 -40.5556640625 184.063476562 -43.5546875 197.984375 -43.5546875 c 0
 216.0859375 -43.5546875 224.393554688 -37.85546875 228.307617188 -27.7216796875 c 0
 233.041992188 -15.46875 236.008789062 8.580078125 236.008789062 43.2197265625 c 2
 236.008789062 51.9951171875 l 1
 366.659179688 51.9951171875 l 1
 366.659179688 43.2197265625 l 2xe8
EndSplineSet
EndChar

StartChar: Agrave
Encoding: 192 192 129
Width: 484
GlyphClass: 2
Flags: MW
HStem: 0.320312 21G<5.32227 5.32227 5.32227 148.566 345.877 345.877 345.877 489.105> 130.97 124.8<201.939 293.479 201.939 318.577 175.866 293.479> 670.62 20G<182.399 313.028 313.028 313.028>
LayerCount: 2
Fore
SplineSet
5.322265625 0.3203125 m 1
 182.399414062 690.620117188 l 1
 313.028320312 690.620117188 l 1
 489.10546875 0.3203125 l 1
 345.876953125 0.3203125 l 1
 318.577148438 130.969726562 l 1
 175.866210938 130.969726562 l 1
 148.56640625 0.3203125 l 1
 5.322265625 0.3203125 l 1
201.939453125 255.76953125 m 1
 293.478515625 255.76953125 l 1
 247.708984375 476.7265625 l 1
 201.939453125 255.76953125 l 1
90.46875 883.669921875 m 1
 234.624023438 883.669921875 l 1
 343.924804688 733.51953125 l 1
 226.265625 733.51953125 l 1
 90.46875 883.669921875 l 1
EndSplineSet
EndChar

StartChar: Aacute
Encoding: 193 193 130
Width: 484
GlyphClass: 2
Flags: MW
HStem: 0.320312 21G<5.32227 5.32227 5.32227 148.566 345.877 345.877 345.877 489.105> 130.97 124.8<201.939 293.479 201.939 318.577 175.866 293.479> 670.62 20G<182.399 313.028 313.028 313.028>
LayerCount: 2
Fore
SplineSet
5.322265625 0.3203125 m 1
 182.399414062 690.620117188 l 1
 313.028320312 690.620117188 l 1
 489.10546875 0.3203125 l 1
 345.876953125 0.3203125 l 1
 318.577148438 130.969726562 l 1
 175.866210938 130.969726562 l 1
 148.56640625 0.3203125 l 1
 5.322265625 0.3203125 l 1
201.939453125 255.76953125 m 1
 293.478515625 255.76953125 l 1
 247.708984375 476.7265625 l 1
 201.939453125 255.76953125 l 1
260.793945312 883.669921875 m 1
 404.94921875 883.669921875 l 1
 269.15234375 733.51953125 l 1
 151.494140625 733.51953125 l 1
 260.793945312 883.669921875 l 1
EndSplineSet
EndChar

StartChar: Acircumflex
Encoding: 194 194 131
Width: 484
GlyphClass: 2
Flags: MW
HStem: 0.320312 21G<5.32227 5.32227 5.32227 148.566 345.877 345.877 345.877 489.105> 130.97 124.8<201.939 293.479 201.939 318.577 175.866 293.479> 670.62 20G<182.399 313.028 313.028 313.028>
LayerCount: 2
Fore
SplineSet
5.322265625 0.3203125 m 1
 182.399414062 690.620117188 l 1
 313.028320312 690.620117188 l 1
 489.10546875 0.3203125 l 1
 345.876953125 0.3203125 l 1
 318.577148438 130.969726562 l 1
 175.866210938 130.969726562 l 1
 148.56640625 0.3203125 l 1
 5.322265625 0.3203125 l 1
201.939453125 255.76953125 m 1
 293.478515625 255.76953125 l 1
 247.708984375 476.7265625 l 1
 201.939453125 255.76953125 l 1
291.291992188 889.51953125 m 1
 403.930664062 727.669921875 l 1
 297.741210938 727.669921875 l 1
 247.645507812 799.235351562 l 1
 196.655273438 727.669921875 l 1
 90.6982421875 727.669921875 l 1
 201.149414062 889.51953125 l 1
 291.291992188 889.51953125 l 1
EndSplineSet
EndChar

StartChar: Atilde
Encoding: 195 195 132
Width: 484
GlyphClass: 2
Flags: MW
HStem: 0.320312 21G<5.32227 5.32227 5.32227 148.566 345.877 345.877 345.877 489.105> 130.97 124.8<201.939 293.479 201.939 318.577 175.866 293.479> 670.62 20G<182.399 313.028 313.028 313.028> 736.444 105.3<283.898 307.082 279.296 308.822> 770.569 105.3<187.059 203.69>
LayerCount: 2
Fore
SplineSet
5.322265625 0.3203125 m 1xe0
 182.399414062 690.620117188 l 1
 313.028320312 690.620117188 l 1
 489.10546875 0.3203125 l 1
 345.876953125 0.3203125 l 1
 318.577148438 130.969726562 l 1
 175.866210938 130.969726562 l 1
 148.56640625 0.3203125 l 1
 5.322265625 0.3203125 l 1xe0
201.939453125 255.76953125 m 1
 293.478515625 255.76953125 l 1
 247.708984375 476.7265625 l 1
 201.939453125 255.76953125 l 1
201.883789062 875.869140625 m 0xe8
 250.137695312 875.869140625 261.158203125 841.744140625 297.434570312 841.744140625 c 0
 316.729492188 841.744140625 322.426757812 847.689453125 365.684570312 892.83203125 c 1
 365.684570312 777.916015625 l 1
 338.822265625 748.2265625 324.110351562 736.444335938 293.534179688 736.444335938 c 0xf0
 274.262695312 736.444335938 264.203125 739.52734375 236.4609375 756.165039062 c 0
 213.197265625 769.454101562 209.396484375 770.569335938 197.984375 770.569335938 c 0
 176.1328125 770.569335938 166.514648438 760.0390625 128.758789062 718.704101562 c 1
 128.758789062 835.501953125 l 1
 154.719726562 862.76171875 170.700195312 875.869140625 201.883789062 875.869140625 c 0xe8
EndSplineSet
EndChar

StartChar: Adieresis
Encoding: 196 196 133
Width: 484
GlyphClass: 2
Flags: MW
HStem: 0.320312 21G<5.32227 5.32227 5.32227 148.566 345.877 345.877 345.877 489.105> 130.97 124.8<201.939 293.479 201.939 318.577 175.866 293.479> 670.62 20G<182.399 313.028 313.028 313.028> 734.495 128.7<117.06 225.284 117.06 225.284 117.06 269.159 269.159 377.384>
VStem: 117.06 108.225<734.495 863.195 734.495 863.195> 269.159 108.225<734.495 863.195 734.495 863.195>
LayerCount: 2
Fore
SplineSet
5.322265625 0.3203125 m 1
 182.399414062 690.620117188 l 1
 313.028320312 690.620117188 l 1
 489.10546875 0.3203125 l 1
 345.876953125 0.3203125 l 1
 318.577148438 130.969726562 l 1
 175.866210938 130.969726562 l 1
 148.56640625 0.3203125 l 1
 5.322265625 0.3203125 l 1
201.939453125 255.76953125 m 1
 293.478515625 255.76953125 l 1
 247.708984375 476.7265625 l 1
 201.939453125 255.76953125 l 1
117.059570312 863.1953125 m 1
 225.284179688 863.1953125 l 1
 225.284179688 734.495117188 l 1
 117.059570312 734.495117188 l 1
 117.059570312 863.1953125 l 1
269.159179688 863.1953125 m 1
 377.383789062 863.1953125 l 1
 377.383789062 734.495117188 l 1
 269.159179688 734.495117188 l 1
 269.159179688 863.1953125 l 1
EndSplineSet
EndChar

StartChar: Aring
Encoding: 197 197 134
Width: 484
GlyphClass: 2
Flags: MW
HStem: 0.321289 21G<5.32227 148.566 5.32227 5.32227> 130.971 124.8<175.866 293.477> 789.096 65.3262<236.466 257.774>
VStem: 147.284 65.3232<742.943 763.149 742.943 767.353> 281.833 66.3008<745.113 763.726>
LayerCount: 2
Fore
SplineSet
348.133789062 753.021484375 m 0
 348.133789062 737.204101562 344.30078125 704.5625 316.055664062 678.752929688 c 1
 489.10546875 0.3203125 l 1
 345.876953125 0.3203125 l 1
 318.577148438 130.969726562 l 1
 271.006835938 130.969726562 223.436523438 130.970703125 175.866210938 130.970703125 c 1
 148.56640625 0.3212890625 l 1
 5.322265625 0.3212890625 l 1
 179.356445312 678.759765625 l 1
 172.986328125 684.58203125 147.284179688 709.163085938 147.284179688 753.021484375 c 0
 147.284179688 781.684570312 156.946289062 806.291015625 176.180664062 825.525390625 c 0
 195.370117188 844.71484375 219.634765625 854.421875 247.708984375 854.421875 c 0
 275.783203125 854.421875 300.047851562 844.71484375 319.237304688 825.525390625 c 0
 338.47265625 806.291015625 348.133789062 781.684570312 348.133789062 753.021484375 c 0
247.708007812 789.095703125 m 0
 225.223632812 789.095703125 212.607421875 773.27734375 212.607421875 753.020507812 c 0
 212.607421875 732.865234375 227.551757812 717.919921875 247.708007812 717.919921875 c 0
 268.616210938 717.919921875 281.833007812 733.6953125 281.833007812 753.020507812 c 0
 281.833007812 774.431640625 267.840820312 789.095703125 247.708007812 789.095703125 c 0
201.9375 255.770507812 m 1
 293.4765625 255.770507812 l 1
 247.70703125 476.727539062 l 1
 201.9375 255.770507812 l 1
273.057617188 661.37109375 m 1024
EndSplineSet
EndChar

StartChar: AE
Encoding: 198 198 135
Width: 674
GlyphClass: 2
Flags: MW
HStem: 0.320312 124.8<476.834 657.209 476.834 657.209> 129.995 124.8<240.755 339.359 240.755 339.359 195.329 339.359> 288.92 124.8<476.834 632.834 476.834 632.834> 564.845 125.775<476.834 657.209 476.834 476.834>
VStem: 339.359 137.475<125.12 129.995 129.995 129.995 254.795 288.92 413.72 524.955 524.955 524.955>
LayerCount: 2
Fore
SplineSet
3.9482421875 0.3203125 m 1
 264.061523438 690.620117188 l 1
 657.208984375 690.620117188 l 1
 657.208984375 564.844726562 l 1
 476.833984375 564.844726562 l 1
 476.833984375 413.719726562 l 1
 632.833984375 413.719726562 l 1
 632.833984375 288.919921875 l 1
 476.833984375 288.919921875 l 1
 476.833984375 125.120117188 l 1
 657.208984375 125.120117188 l 1
 657.208984375 0.3203125 l 1
 339.359375 0.3203125 l 1
 339.359375 129.995117188 l 1
 195.329101562 129.995117188 l 1
 147.5546875 0.3203125 l 1
 3.9482421875 0.3203125 l 1
339.359375 254.794921875 m 1
 339.359375 524.955078125 l 1
 240.754882812 254.794921875 l 1
 339.359375 254.794921875 l 1
EndSplineSet
EndChar

StartChar: Ccedilla
Encoding: 199 199 136
Width: 468
GlyphClass: 2
Flags: MW
HStem: 574.595 125.775<227.321 270.561>
VStem: 39.0605 137.475<194.345 207.995 207.995 478.07> 301.334 137.476<465.395 493.67 493.67 494.645 465.395 501.873>
LayerCount: 2
Fore
SplineSet
301.333984375 493.669921875 m 2
 301.333984375 510.076171875 301.211914062 574.594726562 239.91015625 574.594726562 c 0
 214.732421875 574.594726562 176.53515625 568.439453125 176.53515625 478.0703125 c 2
 176.53515625 207.995117188 l 2
 176.53515625 125.399414062 215.821289062 118.294921875 239.91015625 118.294921875 c 0
 268.96484375 118.294921875 301.334960938 134.247070312 301.334960938 198.245117188 c 2
 301.334960938 224.5703125 l 1
 437.834960938 224.5703125 l 1
 437.834960938 197.26953125 l 2
 437.834960938 143.309570312 425.5 99.162109375 399.965820312 65.6923828125 c 0
 375.59765625 33.7509765625 342.73828125 12.048828125 302.231445312 0.830078125 c 1
 248.0859375 -153.73046875 l 1
 129.032226562 -153.73046875 l 1
 194.061523438 -3.9638671875 l 1
 148.374023438 3.041015625 111.220703125 22.150390625 83.654296875 53.51953125 c 0
 53.564453125 87.759765625 39.060546875 135.108398438 39.060546875 194.344726562 c 2
 39.060546875 497.5703125 l 2
 39.060546875 562.874023438 57.5126953125 613.916015625 95.5283203125 648.822265625 c 0
 133.151367188 683.366210938 182.676757812 700.370117188 242.834960938 700.370117188 c 0
 300.46484375 700.370117188 348.084960938 683.466796875 384.377929688 649.227539062 c 0
 421.163085938 614.525390625 438.809570312 562.379882812 438.809570312 494.64453125 c 2
 438.809570312 465.39453125 l 1
 301.333984375 465.39453125 l 1
 301.333984375 493.669921875 l 2
EndSplineSet
EndChar

StartChar: Egrave
Encoding: 200 200 137
Width: 377
GlyphClass: 2
Flags: MW
HStem: 0.320312 124.8<179.459 360.81 179.459 360.81> 288.92 124.8<179.459 335.459 179.459 335.459> 564.845 125.775<179.459 360.81 179.459 179.459>
VStem: 42.959 136.5<125.12 125.12 125.12 288.92 413.72 564.845> 42.959 317.851<0.320312 125.12 564.845 690.62>
LayerCount: 2
Fore
SplineSet
179.458984375 125.120117188 m 1xf0
 360.809570312 125.120117188 l 1
 360.809570312 0.3203125 l 1
 42.958984375 0.3203125 l 1
 42.958984375 690.620117188 l 1
 360.809570312 690.620117188 l 1
 360.809570312 564.844726562 l 1xe8
 179.458984375 564.844726562 l 1
 179.458984375 413.719726562 l 1
 335.458984375 413.719726562 l 1
 335.458984375 288.919921875 l 1
 179.458984375 288.919921875 l 1
 179.458984375 125.120117188 l 1xf0
48.5439453125 883.669921875 m 1
 192.69921875 883.669921875 l 1
 301.999023438 733.51953125 l 1
 184.340820312 733.51953125 l 1
 48.5439453125 883.669921875 l 1
EndSplineSet
EndChar

StartChar: Eacute
Encoding: 201 201 138
Width: 377
GlyphClass: 2
Flags: MW
HStem: 0.320312 124.8<179.459 360.81 179.459 360.81> 288.92 124.8<179.459 335.459 179.459 335.459> 564.845 125.775<179.459 360.81 179.459 179.459>
VStem: 42.959 136.5<125.12 125.12 125.12 288.92 413.72 564.845> 42.959 317.851<0.320312 125.12 564.845 690.62>
LayerCount: 2
Fore
SplineSet
179.458984375 125.120117188 m 1xf0
 360.809570312 125.120117188 l 1
 360.809570312 0.3203125 l 1
 42.958984375 0.3203125 l 1
 42.958984375 690.620117188 l 1
 360.809570312 690.620117188 l 1
 360.809570312 564.844726562 l 1xe8
 179.458984375 564.844726562 l 1
 179.458984375 413.719726562 l 1
 335.458984375 413.719726562 l 1
 335.458984375 288.919921875 l 1
 179.458984375 288.919921875 l 1
 179.458984375 125.120117188 l 1xf0
218.869140625 883.669921875 m 1
 363.024414062 883.669921875 l 1
 227.227539062 733.51953125 l 1
 109.569335938 733.51953125 l 1
 218.869140625 883.669921875 l 1
EndSplineSet
EndChar

StartChar: Ecircumflex
Encoding: 202 202 139
Width: 377
GlyphClass: 2
Flags: MW
HStem: 0.320312 124.8<179.459 360.81 179.459 360.81> 288.92 124.8<179.459 335.459 179.459 335.459> 564.845 125.775<179.459 360.81 179.459 179.459>
VStem: 42.959 136.5<125.12 125.12 125.12 288.92 413.72 564.845> 42.959 317.851<0.320312 125.12 564.845 690.62>
LayerCount: 2
Fore
SplineSet
179.458984375 125.120117188 m 1xf0
 360.809570312 125.120117188 l 1
 360.809570312 0.3203125 l 1
 42.958984375 0.3203125 l 1
 42.958984375 690.620117188 l 1
 360.809570312 690.620117188 l 1
 360.809570312 564.844726562 l 1xe8
 179.458984375 564.844726562 l 1
 179.458984375 413.719726562 l 1
 335.458984375 413.719726562 l 1
 335.458984375 288.919921875 l 1
 179.458984375 288.919921875 l 1
 179.458984375 125.120117188 l 1xf0
159.224609375 889.51953125 m 1
 249.3671875 889.51953125 l 1
 362.005859375 727.669921875 l 1
 255.81640625 727.669921875 l 1
 205.720703125 799.235351562 l 1
 154.73046875 727.669921875 l 1
 48.7734375 727.669921875 l 1
 159.224609375 889.51953125 l 1
EndSplineSet
EndChar

StartChar: Edieresis
Encoding: 203 203 140
Width: 377
GlyphClass: 2
Flags: MW
HStem: 0.320312 124.8<179.459 360.81 179.459 360.81> 288.92 124.8<179.459 335.459 179.459 335.459> 564.845 125.775<179.459 360.81 179.459 179.459> 734.495 128.7<75.1338 183.359 75.1338 183.359 75.1338 227.234 227.234 335.459>
VStem: 42.959 136.5<125.12 125.12 125.12 288.92 413.72 564.845> 42.959 317.851<0.320312 125.12 564.845 690.62> 75.1338 108.226<734.495 863.195 734.495 863.195> 227.234 108.225<734.495 863.195>
LayerCount: 2
Fore
SplineSet
179.458984375 125.120117188 m 1xf9
 360.809570312 125.120117188 l 1
 360.809570312 0.3203125 l 1
 42.958984375 0.3203125 l 1
 42.958984375 690.620117188 l 1
 360.809570312 690.620117188 l 1
 360.809570312 564.844726562 l 1xf4
 179.458984375 564.844726562 l 1
 179.458984375 413.719726562 l 1
 335.458984375 413.719726562 l 1
 335.458984375 288.919921875 l 1
 179.458984375 288.919921875 l 1
 179.458984375 125.120117188 l 1xf9
75.1337890625 863.1953125 m 1xf2
 183.359375 863.1953125 l 1
 183.359375 734.495117188 l 1
 75.1337890625 734.495117188 l 1
 75.1337890625 863.1953125 l 1xf2
227.234375 863.1953125 m 1xf1
 335.458984375 863.1953125 l 1
 335.458984375 734.495117188 l 1
 227.234375 734.495117188 l 1
 227.234375 863.1953125 l 1xf1
EndSplineSet
EndChar

StartChar: Igrave
Encoding: 204 204 141
Width: 220
GlyphClass: 2
Flags: MW
HStem: 0.320312 21G<46.8594 183.359 46.8594 46.8594> 670.62 20G<46.8594 183.359 183.359 183.359>
VStem: 46.8594 136.5<0.320312 690.62 0.320312 690.62>
LayerCount: 2
Fore
SplineSet
46.859375 690.620117188 m 1
 183.359375 690.620117188 l 1
 183.359375 0.3203125 l 1
 46.859375 0.3203125 l 1
 46.859375 690.620117188 l 1
-42.1318359375 883.669921875 m 1
 102.024414062 883.669921875 l 1
 211.32421875 733.51953125 l 1
 93.666015625 733.51953125 l 1
 -42.1318359375 883.669921875 l 1
EndSplineSet
EndChar

StartChar: Iacute
Encoding: 205 205 142
Width: 220
GlyphClass: 2
Flags: MW
HStem: 0.320312 21G<46.8594 183.359 46.8594 46.8594> 670.62 20G<46.8594 183.359 183.359 183.359>
VStem: 46.8594 136.5<0.320312 690.62 0.320312 690.62>
LayerCount: 2
Fore
SplineSet
46.859375 690.620117188 m 1
 183.359375 690.620117188 l 1
 183.359375 0.3203125 l 1
 46.859375 0.3203125 l 1
 46.859375 690.620117188 l 1
128.194335938 883.669921875 m 1
 272.349609375 883.669921875 l 1
 136.551757812 733.51953125 l 1
 18.8935546875 733.51953125 l 1
 128.194335938 883.669921875 l 1
EndSplineSet
EndChar

StartChar: Icircumflex
Encoding: 206 206 143
Width: 220
GlyphClass: 2
Flags: MW
HStem: 0.320312 21G<46.8594 183.359 46.8594 46.8594> 670.62 20G<46.8594 183.359 183.359 183.359>
VStem: 46.8594 136.5<0.320312 690.62 0.320312 690.62>
LayerCount: 2
Fore
SplineSet
46.859375 690.620117188 m 1
 183.359375 690.620117188 l 1
 183.359375 0.3203125 l 1
 46.859375 0.3203125 l 1
 46.859375 690.620117188 l 1
68.5498046875 889.51953125 m 1
 158.692382812 889.51953125 l 1
 271.331054688 727.669921875 l 1
 165.141601562 727.669921875 l 1
 115.045898438 799.235351562 l 1
 64.0556640625 727.669921875 l 1
 -41.90234375 727.669921875 l 1
 68.5498046875 889.51953125 l 1
EndSplineSet
EndChar

StartChar: Idieresis
Encoding: 207 207 144
Width: 220
GlyphClass: 2
Flags: MW
HStem: 0.320312 21G<46.8594 183.359 46.8594 46.8594> 670.62 20G<46.8594 183.359 183.359 183.359> 734.495 128.7<-15.541 92.6846 -15.541 92.6846 -15.541 136.56 136.56 244.784>
VStem: -15.541 108.226<734.495 863.195 734.495 863.195> 46.8594 136.5<0.320312 690.62 0.320312 690.62> 136.56 108.225<734.495 863.195 734.495 863.195>
LayerCount: 2
Fore
SplineSet
46.859375 690.620117188 m 1xe8
 183.359375 690.620117188 l 1
 183.359375 0.3203125 l 1
 46.859375 0.3203125 l 1
 46.859375 690.620117188 l 1xe8
-15.541015625 863.1953125 m 1xf0
 92.6845703125 863.1953125 l 1
 92.6845703125 734.495117188 l 1
 -15.541015625 734.495117188 l 1
 -15.541015625 863.1953125 l 1xf0
136.559570312 863.1953125 m 1xe4
 244.784179688 863.1953125 l 1
 244.784179688 734.495117188 l 1
 136.559570312 734.495117188 l 1
 136.559570312 863.1953125 l 1xe4
EndSplineSet
EndChar

StartChar: Eth
Encoding: 208 208 145
Width: 482
GlyphClass: 2
Flags: MW
HStem: 0.320312 124.801<198.959 251.609> 292.821 124.8<198.959 282.81 198.959 282.81> 564.846 125.774<198.959 254.534 198.959 198.959>
VStem: 62.459 136.5<125.121 292.82 292.82 292.82 417.621 564.846> 315.959 137.476<215.796 468.321 468.321 488.796>
LayerCount: 2
Fore
SplineSet
453.434570312 488.795898438 m 2
 453.434570312 202.145507812 l 2
 453.434570312 137.466796875 434.959960938 86.75390625 396.965820312 51.8681640625 c 0
 359.384765625 17.361328125 310.515625 0.3203125 251.609375 0.3203125 c 2
 62.458984375 0.3203125 l 1
 62.458984375 292.8203125 l 1
 21.5087890625 292.8203125 l 1
 21.5087890625 417.620117188 l 1
 62.458984375 417.620117188 l 1
 62.458984375 690.620117188 l 1
 257.458984375 690.620117188 l 2
 315.7109375 690.620117188 363.518554688 673.736328125 399.521484375 639.44921875 c 0
 435.884765625 604.81640625 453.434570312 554.004882812 453.434570312 488.795898438 c 2
315.958984375 468.321289062 m 2
 315.958984375 563.981445312 269.544921875 564.845703125 254.534179688 564.845703125 c 2
 198.958984375 564.845703125 l 1
 198.958984375 417.62109375 l 1
 282.809570312 417.62109375 l 1
 282.809570312 292.821289062 l 1
 198.958984375 292.821289062 l 1
 198.958984375 125.12109375 l 1
 254.534179688 125.12109375 l 2
 274.848632812 125.12109375 289.069335938 132.467773438 299.453125 147.622070312 c 0
 310.083007812 163.13671875 315.958984375 185.672851562 315.958984375 215.795898438 c 2
 315.958984375 468.321289062 l 2
EndSplineSet
EndChar

StartChar: Ntilde
Encoding: 209 209 146
Width: 473
GlyphClass: 2
Flags: MW
HStem: 0.320312 21G<42.959 180.435 42.959 42.959 306.068 440.759 306.068 306.068> 670.62 20G<42.959 177.742 177.742 177.742 303.284 440.759 440.759 440.759> 736.444 105.3<278.048 301.23 273.446 302.974> 770.569 105.3<181.208 197.84>
VStem: 42.959 137.476<0.320312 321.385 0.320312 690.62> 303.284 137.475<355.841 690.62 0.320312 690.62>
LayerCount: 2
Fore
SplineSet
440.758789062 690.620117188 m 1xcc
 440.758789062 0.3203125 l 1
 306.068359375 0.3203125 l 1
 180.434570312 321.384765625 l 1
 180.434570312 0.3203125 l 1
 42.958984375 0.3203125 l 1
 42.958984375 690.620117188 l 1
 177.7421875 690.620117188 l 1
 303.284179688 355.840820312 l 1
 303.284179688 690.620117188 l 1
 440.758789062 690.620117188 l 1xcc
196.034179688 875.869140625 m 0xdc
 244.288085938 875.869140625 255.307617188 841.744140625 291.583984375 841.744140625 c 0
 310.876953125 841.744140625 316.569335938 847.68359375 359.833984375 892.831054688 c 1
 359.833984375 777.916015625 l 1
 332.97265625 748.229492188 318.263671875 736.444335938 287.684570312 736.444335938 c 0xec
 268.412109375 736.444335938 258.353515625 739.52734375 230.610351562 756.165039062 c 0
 207.34765625 769.454101562 203.546875 770.569335938 192.133789062 770.569335938 c 0
 170.283203125 770.569335938 160.6640625 760.0390625 122.909179688 718.704101562 c 1
 122.909179688 835.501953125 l 1
 148.869140625 862.76171875 164.850585938 875.869140625 196.034179688 875.869140625 c 0xdc
EndSplineSet
EndChar

StartChar: Ograve
Encoding: 210 210 147
Width: 468
GlyphClass: 2
Flags: MW
HStem: -7.48047 125.774<227.865 250.096 227.865 265.473> 574.594 125.776<227.32 247.414>
VStem: 39.0596 137.475<194.345 207.994 207.994 478.069> 301.334 137.476<207.995 478.07 478.07 497.57>
LayerCount: 2
Fore
SplineSet
39.0595703125 194.344726562 m 2
 39.0595703125 497.5703125 l 2
 39.0595703125 562.874023438 57.51171875 613.916015625 95.52734375 648.822265625 c 0
 133.150390625 683.366210938 182.67578125 700.370117188 242.833984375 700.370117188 c 0
 301.10546875 700.370117188 348.930664062 683.306640625 384.927734375 648.681640625 c 0
 421.2578125 613.735351562 438.809570312 562.783203125 438.809570312 497.5703125 c 2
 438.809570312 194.344726562 l 2
 438.809570312 130.268554688 420.130859375 79.7294921875 381.85546875 44.5576171875 c 0
 343.966796875 9.7412109375 294.9375 -7.48046875 236.008789062 -7.48046875 c 0
 176.491210938 -7.48046875 128.149414062 9.541015625 92.4228515625 44.23828125 c 0
 56.451171875 79.171875 39.0595703125 129.775390625 39.0595703125 194.344726562 c 2
176.534179688 207.994140625 m 2
 176.534179688 125.3984375 215.8203125 118.293945312 239.909179688 118.293945312 c 0
 260.283203125 118.293945312 274.518554688 125.541015625 284.87109375 140.37109375 c 0
 295.447265625 155.521484375 301.333984375 177.865234375 301.333984375 207.995117188 c 2
 301.333984375 478.0703125 l 2
 301.333984375 573.73046875 254.918945312 574.59375 239.909179688 574.59375 c 0
 214.731445312 574.59375 176.534179688 568.438476562 176.534179688 478.069335938 c 2
 176.534179688 207.994140625 l 2
81.693359375 883.669921875 m 1
 225.848632812 883.669921875 l 1
 335.149414062 733.51953125 l 1
 217.491210938 733.51953125 l 1
 81.693359375 883.669921875 l 1
EndSplineSet
EndChar

StartChar: Oacute
Encoding: 211 211 148
Width: 468
GlyphClass: 2
Flags: MW
HStem: -7.48047 125.774<227.865 250.096 227.865 265.473> 574.594 125.776<227.32 247.414>
VStem: 39.0596 137.475<194.345 207.994 207.994 478.069> 301.334 137.476<207.995 478.07 478.07 497.57>
LayerCount: 2
Fore
SplineSet
39.0595703125 194.344726562 m 2
 39.0595703125 497.5703125 l 2
 39.0595703125 562.874023438 57.51171875 613.916015625 95.52734375 648.822265625 c 0
 133.150390625 683.366210938 182.67578125 700.370117188 242.833984375 700.370117188 c 0
 301.10546875 700.370117188 348.930664062 683.306640625 384.927734375 648.681640625 c 0
 421.2578125 613.735351562 438.809570312 562.783203125 438.809570312 497.5703125 c 2
 438.809570312 194.344726562 l 2
 438.809570312 130.268554688 420.130859375 79.7294921875 381.85546875 44.5576171875 c 0
 343.966796875 9.7412109375 294.9375 -7.48046875 236.008789062 -7.48046875 c 0
 176.491210938 -7.48046875 128.149414062 9.541015625 92.4228515625 44.23828125 c 0
 56.451171875 79.171875 39.0595703125 129.775390625 39.0595703125 194.344726562 c 2
176.534179688 207.994140625 m 2
 176.534179688 125.3984375 215.8203125 118.293945312 239.909179688 118.293945312 c 0
 260.283203125 118.293945312 274.518554688 125.541015625 284.87109375 140.37109375 c 0
 295.447265625 155.521484375 301.333984375 177.865234375 301.333984375 207.995117188 c 2
 301.333984375 478.0703125 l 2
 301.333984375 573.73046875 254.918945312 574.59375 239.909179688 574.59375 c 0
 214.731445312 574.59375 176.534179688 568.438476562 176.534179688 478.069335938 c 2
 176.534179688 207.994140625 l 2
252.01953125 883.669921875 m 1
 396.174804688 883.669921875 l 1
 260.376953125 733.51953125 l 1
 142.71875 733.51953125 l 1
 252.01953125 883.669921875 l 1
EndSplineSet
EndChar

StartChar: Ocircumflex
Encoding: 212 212 149
Width: 468
GlyphClass: 2
Flags: MW
HStem: -7.48047 125.774<227.865 250.096 227.865 265.473> 574.594 125.776<227.32 247.414>
VStem: 39.0596 137.475<194.345 207.994 207.994 478.069> 301.334 137.476<207.995 478.07 478.07 497.57>
LayerCount: 2
Fore
SplineSet
39.0595703125 194.344726562 m 2
 39.0595703125 497.5703125 l 2
 39.0595703125 562.874023438 57.51171875 613.916015625 95.52734375 648.822265625 c 0
 133.150390625 683.366210938 182.67578125 700.370117188 242.833984375 700.370117188 c 0
 301.10546875 700.370117188 348.930664062 683.306640625 384.927734375 648.681640625 c 0
 421.2578125 613.735351562 438.809570312 562.783203125 438.809570312 497.5703125 c 2
 438.809570312 194.344726562 l 2
 438.809570312 130.268554688 420.130859375 79.7294921875 381.85546875 44.5576171875 c 0
 343.966796875 9.7412109375 294.9375 -7.48046875 236.008789062 -7.48046875 c 0
 176.491210938 -7.48046875 128.149414062 9.541015625 92.4228515625 44.23828125 c 0
 56.451171875 79.171875 39.0595703125 129.775390625 39.0595703125 194.344726562 c 2
176.534179688 207.994140625 m 2
 176.534179688 125.3984375 215.8203125 118.293945312 239.909179688 118.293945312 c 0
 260.283203125 118.293945312 274.518554688 125.541015625 284.87109375 140.37109375 c 0
 295.447265625 155.521484375 301.333984375 177.865234375 301.333984375 207.995117188 c 2
 301.333984375 478.0703125 l 2
 301.333984375 573.73046875 254.918945312 574.59375 239.909179688 574.59375 c 0
 214.731445312 574.59375 176.534179688 568.438476562 176.534179688 478.069335938 c 2
 176.534179688 207.994140625 l 2
282.517578125 889.51953125 m 1
 395.15625 727.669921875 l 1
 288.966796875 727.669921875 l 1
 238.87109375 799.235351562 l 1
 187.880859375 727.669921875 l 1
 81.9228515625 727.669921875 l 1
 192.375 889.51953125 l 1
 282.517578125 889.51953125 l 1
EndSplineSet
EndChar

StartChar: Otilde
Encoding: 213 213 150
Width: 468
GlyphClass: 2
Flags: MW
HStem: -7.48047 125.774<227.865 250.096 227.865 265.473> 574.594 125.776<227.32 247.414> 736.444 105.3<275.123 298.307 270.521 300.047> 770.569 105.3<178.284 194.915>
VStem: 39.0596 137.475<194.345 207.994 207.994 478.069> 301.334 137.476<207.995 478.07 478.07 497.57>
LayerCount: 2
Fore
SplineSet
39.0595703125 194.344726562 m 2xcc
 39.0595703125 497.5703125 l 2
 39.0595703125 562.874023438 57.51171875 613.916015625 95.52734375 648.822265625 c 0
 133.150390625 683.366210938 182.67578125 700.370117188 242.833984375 700.370117188 c 0
 301.10546875 700.370117188 348.930664062 683.306640625 384.927734375 648.681640625 c 0
 421.2578125 613.735351562 438.809570312 562.783203125 438.809570312 497.5703125 c 2
 438.809570312 194.344726562 l 2
 438.809570312 130.268554688 420.130859375 79.7294921875 381.85546875 44.5576171875 c 0
 343.966796875 9.7412109375 294.9375 -7.48046875 236.008789062 -7.48046875 c 0
 176.491210938 -7.48046875 128.149414062 9.541015625 92.4228515625 44.23828125 c 0
 56.451171875 79.171875 39.0595703125 129.775390625 39.0595703125 194.344726562 c 2xcc
176.534179688 207.994140625 m 2
 176.534179688 125.3984375 215.8203125 118.293945312 239.909179688 118.293945312 c 0
 260.283203125 118.293945312 274.518554688 125.541015625 284.87109375 140.37109375 c 0
 295.447265625 155.521484375 301.333984375 177.865234375 301.333984375 207.995117188 c 2
 301.333984375 478.0703125 l 2
 301.333984375 573.73046875 254.918945312 574.59375 239.909179688 574.59375 c 0
 214.731445312 574.59375 176.534179688 568.438476562 176.534179688 478.069335938 c 2
 176.534179688 207.994140625 l 2
193.109375 875.869140625 m 0xdc
 241.36328125 875.869140625 252.3828125 841.744140625 288.659179688 841.744140625 c 0
 307.954101562 841.744140625 313.651367188 847.689453125 356.909179688 892.83203125 c 1
 356.909179688 777.916015625 l 1
 330.046875 748.2265625 315.3359375 736.444335938 284.758789062 736.444335938 c 0xec
 265.487304688 736.444335938 255.428710938 739.52734375 227.685546875 756.165039062 c 0
 204.421875 769.454101562 200.62109375 770.569335938 189.208984375 770.569335938 c 0
 167.358398438 770.569335938 157.739257812 760.0390625 119.984375 718.704101562 c 1
 119.984375 835.501953125 l 1
 145.944335938 862.76171875 161.924804688 875.869140625 193.109375 875.869140625 c 0xdc
EndSplineSet
EndChar

StartChar: Odieresis
Encoding: 214 214 151
Width: 468
GlyphClass: 2
Flags: MW
HStem: -7.48047 125.774<227.865 250.096 227.865 265.473> 574.594 125.776<227.32 247.414> 734.495 128.7<108.284 216.509 108.284 216.509 108.284 260.384 260.384 368.609>
VStem: 39.0596 137.475<194.345 207.994 207.994 478.069> 108.284 108.225<734.495 863.195 734.495 863.195> 260.384 108.226<734.495 863.195 734.495 863.195> 301.334 137.476<207.995 478.07 478.07 497.57>
LayerCount: 2
Fore
SplineSet
39.0595703125 194.344726562 m 2xf2
 39.0595703125 497.5703125 l 2
 39.0595703125 562.874023438 57.51171875 613.916015625 95.52734375 648.822265625 c 0
 133.150390625 683.366210938 182.67578125 700.370117188 242.833984375 700.370117188 c 0
 301.10546875 700.370117188 348.930664062 683.306640625 384.927734375 648.681640625 c 0
 421.2578125 613.735351562 438.809570312 562.783203125 438.809570312 497.5703125 c 2
 438.809570312 194.344726562 l 2
 438.809570312 130.268554688 420.130859375 79.7294921875 381.85546875 44.5576171875 c 0
 343.966796875 9.7412109375 294.9375 -7.48046875 236.008789062 -7.48046875 c 0
 176.491210938 -7.48046875 128.149414062 9.541015625 92.4228515625 44.23828125 c 0
 56.451171875 79.171875 39.0595703125 129.775390625 39.0595703125 194.344726562 c 2xf2
176.534179688 207.994140625 m 2
 176.534179688 125.3984375 215.8203125 118.293945312 239.909179688 118.293945312 c 0
 260.283203125 118.293945312 274.518554688 125.541015625 284.87109375 140.37109375 c 0
 295.447265625 155.521484375 301.333984375 177.865234375 301.333984375 207.995117188 c 2
 301.333984375 478.0703125 l 2
 301.333984375 573.73046875 254.918945312 574.59375 239.909179688 574.59375 c 0
 214.731445312 574.59375 176.534179688 568.438476562 176.534179688 478.069335938 c 2
 176.534179688 207.994140625 l 2
108.284179688 863.1953125 m 1xe8
 216.508789062 863.1953125 l 1
 216.508789062 734.495117188 l 1
 108.284179688 734.495117188 l 1
 108.284179688 863.1953125 l 1xe8
260.383789062 863.1953125 m 1xe4
 368.609375 863.1953125 l 1
 368.609375 734.495117188 l 1
 260.383789062 734.495117188 l 1
 260.383789062 863.1953125 l 1xe4
EndSplineSet
EndChar

StartChar: multiply
Encoding: 215 215 152
Width: 420
GlyphClass: 2
Flags: W
LayerCount: 2
Fore
SplineSet
215.500976562 194.580078125 m 1
 122.909179688 101.987304688 l 1
 39.3271484375 185.5703125 l 1
 131.918945312 278.162109375 l 1
 39.2939453125 369.8125 l 1
 122.875976562 453.39453125 l 1
 215.500976562 361.744140625 l 1
 307.184570312 453.426757812 l 1
 390.766601562 369.844726562 l 1
 299.083984375 278.162109375 l 1
 390.733398438 185.537109375 l 1
 307.151367188 101.955078125 l 1
 215.500976562 194.580078125 l 1
EndSplineSet
EndChar

StartChar: Oslash
Encoding: 216 216 153
Width: 468
GlyphClass: 2
Flags: MW
HStem: -7.48047 125.775<226.781 250.095 226.781 265.472> 574.595 125.775<227.319 252.042>
VStem: 39.0596 137.474<296.559 478.07 296.559 497.57 296.559 530.222> 301.333 137.476<207.995 402.234 402.234 402.234>
LayerCount: 2
Fore
SplineSet
366.817382812 717.919921875 m 1
 443.5703125 717.919921875 l 1
 403.05859375 627.302734375 l 1
 427.091796875 592.931640625 438.80859375 549.446289062 438.80859375 497.5703125 c 2
 438.80859375 194.344726562 l 2
 438.80859375 130.268554688 420.129882812 79.7294921875 381.854492188 44.5576171875 c 0
 343.965820312 9.7412109375 294.936523438 -7.48046875 236.0078125 -7.48046875 c 0
 194.509765625 -7.48046875 158.30859375 0.892578125 127.825195312 17.96484375 c 1
 111.021484375 -19.1796875 l 1
 34.330078125 -19.1796875 l 1
 72.884765625 67.5673828125 l 1
 50.1015625 100.735351562 39.0595703125 143.224609375 39.0595703125 194.344726562 c 2
 39.0595703125 497.5703125 l 2
 39.0595703125 562.874023438 57.51171875 613.916015625 95.52734375 648.822265625 c 0
 133.150390625 683.366210938 182.67578125 700.370117188 242.833984375 700.370117188 c 0
 283.533203125 700.370117188 318.749023438 692.356445312 348.061523438 675.942382812 c 1
 366.817382812 717.919921875 l 1
239.908203125 574.594726562 m 0
 214.73046875 574.594726562 176.533203125 568.439453125 176.533203125 478.0703125 c 2
 176.533203125 296.55859375 l 1
 288.805664062 545.401367188 l 1
 279.5078125 565.294921875 264.176757812 574.594726562 239.908203125 574.594726562 c 0
239.908203125 118.294921875 m 0
 260.282226562 118.294921875 274.518554688 125.541992188 284.870117188 140.372070312 c 0
 295.446289062 155.522460938 301.333007812 177.865234375 301.333007812 207.995117188 c 2
 301.333007812 402.234375 l 1
 187.119140625 149.451171875 l 1
 197.05859375 128.30078125 213.653320312 118.294921875 239.908203125 118.294921875 c 0
EndSplineSet
EndChar

StartChar: Ugrave
Encoding: 217 217 154
Width: 460
GlyphClass: 2
Flags: MW
HStem: -7.48047 125.776<219.094 246.588 219.094 289.808> 670.621 20G<42.959 180.435 180.435 180.435 289.634 427.109 427.109 427.109>
VStem: 42.959 137.476<185.571 188.496 188.496 690.621> 289.634 137.476<188.496 690.621>
LayerCount: 2
Fore
SplineSet
235.034179688 -7.48046875 m 0
 122.977539062 -7.48046875 42.958984375 71.4228515625 42.958984375 185.571289062 c 2
 42.958984375 690.62109375 l 1
 180.434570312 690.62109375 l 1
 180.434570312 188.49609375 l 2
 180.434570312 132.056640625 203.153320312 118.295898438 235.034179688 118.295898438 c 0
 258.141601562 118.295898438 289.633789062 125.510742188 289.633789062 188.49609375 c 2
 289.633789062 690.62109375 l 1
 427.109375 690.62109375 l 1
 427.109375 185.571289062 l 2
 427.109375 67.345703125 344.581054688 -7.48046875 235.034179688 -7.48046875 c 0
77.79296875 883.669921875 m 1
 221.948242188 883.669921875 l 1
 331.248046875 733.51953125 l 1
 213.58984375 733.51953125 l 1
 77.79296875 883.669921875 l 1
EndSplineSet
EndChar

StartChar: Uacute
Encoding: 218 218 155
Width: 460
GlyphClass: 2
Flags: MW
HStem: -7.48047 125.776<219.094 246.588 219.094 289.808> 670.621 20G<42.959 180.435 180.435 180.435 289.634 427.109 427.109 427.109>
VStem: 42.959 137.476<185.571 188.496 188.496 690.621> 289.634 137.476<188.496 690.621>
LayerCount: 2
Fore
SplineSet
235.034179688 -7.48046875 m 0
 122.977539062 -7.48046875 42.958984375 71.4228515625 42.958984375 185.571289062 c 2
 42.958984375 690.62109375 l 1
 180.434570312 690.62109375 l 1
 180.434570312 188.49609375 l 2
 180.434570312 132.056640625 203.153320312 118.295898438 235.034179688 118.295898438 c 0
 258.141601562 118.295898438 289.633789062 125.510742188 289.633789062 188.49609375 c 2
 289.633789062 690.62109375 l 1
 427.109375 690.62109375 l 1
 427.109375 185.571289062 l 2
 427.109375 67.345703125 344.581054688 -7.48046875 235.034179688 -7.48046875 c 0
248.118164062 883.669921875 m 1
 392.2734375 883.669921875 l 1
 256.4765625 733.51953125 l 1
 138.818359375 733.51953125 l 1
 248.118164062 883.669921875 l 1
EndSplineSet
EndChar

StartChar: Ucircumflex
Encoding: 219 219 156
Width: 460
GlyphClass: 2
Flags: MW
HStem: -7.48047 125.776<219.094 246.588 219.094 289.808> 670.621 20G<42.959 180.435 180.435 180.435 289.634 427.109 427.109 427.109>
VStem: 42.959 137.476<185.571 188.496 188.496 690.621> 289.634 137.476<188.496 690.621>
LayerCount: 2
Fore
SplineSet
235.034179688 -7.48046875 m 0
 122.977539062 -7.48046875 42.958984375 71.4228515625 42.958984375 185.571289062 c 2
 42.958984375 690.62109375 l 1
 180.434570312 690.62109375 l 1
 180.434570312 188.49609375 l 2
 180.434570312 132.056640625 203.153320312 118.295898438 235.034179688 118.295898438 c 0
 258.141601562 118.295898438 289.633789062 125.510742188 289.633789062 188.49609375 c 2
 289.633789062 690.62109375 l 1
 427.109375 690.62109375 l 1
 427.109375 185.571289062 l 2
 427.109375 67.345703125 344.581054688 -7.48046875 235.034179688 -7.48046875 c 0
188.473632812 889.51953125 m 1
 278.616210938 889.51953125 l 1
 391.254882812 727.669921875 l 1
 285.065429688 727.669921875 l 1
 234.969726562 799.235351562 l 1
 183.979492188 727.669921875 l 1
 78.0224609375 727.669921875 l 1
 188.473632812 889.51953125 l 1
EndSplineSet
EndChar

StartChar: Udieresis
Encoding: 220 220 157
Width: 460
GlyphClass: 2
Flags: MW
HStem: -7.48047 125.776<219.094 246.588 219.094 289.808> 670.621 20G<42.959 180.435 180.435 180.435 289.634 427.109 427.109 427.109> 734.495 128.7<104.383 212.608 104.383 212.608 104.383 256.483 256.483 364.708>
VStem: 42.959 137.476<185.571 188.496 188.496 690.621> 104.383 108.226<734.495 863.195 734.495 863.195> 256.483 108.225<734.495 863.195 734.495 863.195> 289.634 137.476<188.496 690.621>
LayerCount: 2
Fore
SplineSet
235.034179688 -7.48046875 m 0xf2
 122.977539062 -7.48046875 42.958984375 71.4228515625 42.958984375 185.571289062 c 2
 42.958984375 690.62109375 l 1
 180.434570312 690.62109375 l 1
 180.434570312 188.49609375 l 2
 180.434570312 132.056640625 203.153320312 118.295898438 235.034179688 118.295898438 c 0
 258.141601562 118.295898438 289.633789062 125.510742188 289.633789062 188.49609375 c 2
 289.633789062 690.62109375 l 1
 427.109375 690.62109375 l 1
 427.109375 185.571289062 l 2
 427.109375 67.345703125 344.581054688 -7.48046875 235.034179688 -7.48046875 c 0xf2
104.3828125 863.1953125 m 1xe8
 212.608398438 863.1953125 l 1
 212.608398438 734.495117188 l 1
 104.3828125 734.495117188 l 1
 104.3828125 863.1953125 l 1xe8
256.483398438 863.1953125 m 1xe4
 364.708007812 863.1953125 l 1
 364.708007812 734.495117188 l 1
 256.483398438 734.495117188 l 1
 256.483398438 863.1953125 l 1xe4
EndSplineSet
EndChar

StartChar: Yacute
Encoding: 221 221 158
Width: 416
GlyphClass: 2
Flags: MW
HStem: 0.320312 21G<144.359 281.834 144.359 144.359> 670.62 20G<4.44824 155.112 155.112 155.112 270.106 421.727 421.727 421.727>
VStem: 144.359 137.475<0.320312 269.943 0.320312 271.888 0.320312 271.888>
LayerCount: 2
Fore
SplineSet
270.106445312 690.620117188 m 1
 421.7265625 690.620117188 l 1
 281.833984375 269.943359375 l 1
 281.833984375 0.3203125 l 1
 144.359375 0.3203125 l 1
 144.359375 271.887695312 l 1
 4.4482421875 690.620117188 l 1
 155.112304688 690.620117188 l 1
 212.609375 460.631835938 l 1
 270.106445312 690.620117188 l 1
225.694335938 883.669921875 m 1
 369.849609375 883.669921875 l 1
 234.051757812 733.51953125 l 1
 116.393554688 733.51953125 l 1
 225.694335938 883.669921875 l 1
EndSplineSet
EndChar

StartChar: Thorn
Encoding: 222 222 159
Width: 434
GlyphClass: 2
Flags: MW
HStem: 0.320312 21G<42.959 179.459 42.959 42.959> 140.72 124.8<179.46 229.186 229.186 233.084 179.459 229.186> 456.62 125.774<179.46 229.186 179.46 179.46> 670.62 20G<42.959 179.459 179.459 179.459>
VStem: 42.959 136.501<265.52 456.62 265.52 690.62> 288.66 137.475<344.545 379.213>
LayerCount: 2
Fore
SplineSet
426.134765625 362.044921875 m 0
 426.134765625 289.473632812 411.58203125 233.987304688 380.747070312 196.5703125 c 0
 349.5703125 158.73828125 299.54296875 140.719726562 233.083984375 140.719726562 c 2
 179.458984375 140.719726562 l 1
 179.458984375 0.3203125 l 1
 42.958984375 0.3203125 l 1
 42.958984375 690.620117188 l 1
 179.458984375 690.620117188 l 1
 179.458984375 582.39453125 l 1
 233.083984375 582.39453125 l 2
 300.779296875 582.39453125 351.202148438 564.431640625 381.783203125 526.46875 c 0
 411.911132812 489.068359375 426.134765625 433.956054688 426.134765625 362.044921875 c 0
288.66015625 362.044921875 m 0
 288.66015625 396.381835938 283.520507812 420.8984375 274.779296875 435.560546875 c 0
 266.6328125 449.2265625 252.600585938 456.620117188 229.185546875 456.620117188 c 2
 179.459960938 456.620117188 l 1
 179.459960938 265.51953125 l 1
 229.185546875 265.51953125 l 2
 252.541992188 265.51953125 266.557617188 273.008789062 274.7421875 287.002929688 c 0
 283.517578125 302.006835938 288.66015625 327.045898438 288.66015625 362.044921875 c 0
EndSplineSet
EndChar

StartChar: germandbls
Encoding: 223 223 160
Width: 421
GlyphClass: 2
Flags: MW
HStem: -4.55469 113.1<208.709 233.082 233.082 242.834 208.709 233.082> 581.42 118.95<209.296 222.996>
VStem: 41.9824 130.649<0.320312 515.12 515.12 529.745 0.320312 564.64> 261.356 130.651<198.417 274.691>
LayerCount: 2
Fore
SplineSet
340.772460938 406.432617188 m 1
 384.458984375 374.953125 392.0078125 341.012695312 392.0078125 228.469726562 c 0
 392.0078125 168.36328125 389.12109375 123.155273438 383.0703125 92.228515625 c 0
 376.920898438 60.798828125 363.083984375 36.12109375 341.221679688 19.634765625 c 0
 318.999023438 2.876953125 285.994140625 -4.5546875 242.833984375 -4.5546875 c 2
 208.708984375 -4.5546875 l 1
 208.708984375 108.544921875 l 1
 233.08203125 108.544921875 l 2
 257.62890625 108.544921875 261.356445312 126.203125 261.356445312 228.469726562 c 0
 261.356445312 320.912109375 257.604492188 341.5703125 233.08203125 341.5703125 c 2
 206.756835938 341.5703125 l 1
 206.756835938 453.6953125 l 1
 231.131835938 453.6953125 l 2
 243.624023438 453.6953125 248.52734375 457.584960938 251.080078125 465.243164062 c 0
 254.375 475.127929688 256.482421875 494.418945312 256.482421875 521.9453125 c 0
 256.482421875 578.40625 230.459960938 581.419921875 215.532226562 581.419921875 c 0
 203.059570312 581.419921875 172.631835938 579.426757812 172.631835938 529.745117188 c 2
 172.631835938 0.3203125 l 1
 41.982421875 0.3203125 l 1
 41.982421875 515.120117188 l 2
 41.982421875 614.16015625 80.7060546875 700.370117188 215.532226562 700.370117188 c 0
 268.477539062 700.370117188 311.018554688 685.680664062 341.625 655.421875 c 0
 372.185546875 625.208007812 387.131835938 583.7734375 387.131835938 532.669921875 c 0
 387.131835938 463.00390625 375.127929688 434.704101562 340.772460938 406.432617188 c 1
EndSplineSet
EndChar

StartChar: agrave
Encoding: 224 224 161
Width: 406
GlyphClass: 2
Flags: MW
HStem: -7.48145 116.024<147.29 214.083> 0.319336 21G<251.611 374.461 251.611 251.611> 223.594 96.5254<209.686 223.336 223.336 243.811> 423.47 117<199.567 212.441>
VStem: 31.2607 130.65<137.767 179.205 137.767 185.167> 44.9102 121.875<364.97 377.645 377.645 381.545 364.97 403.801> 243.811 130.65<163.144 223.594 223.594 223.594 320.119 367.894 0.319336 376.669 0.319336 397.9>
LayerCount: 2
Fore
SplineSet
204.810546875 423.469726562 m 0xba
 194.32421875 423.469726562 166.78515625 419.825195312 166.78515625 381.544921875 c 2
 166.78515625 364.969726562 l 1
 44.91015625 364.969726562 l 1
 44.91015625 377.64453125 l 2
 44.91015625 429.958007812 59.7978515625 471.108398438 90.685546875 499.188476562 c 0
 121.110351562 526.84765625 160.53515625 540.469726562 207.735351562 540.469726562 c 0
 259.51953125 540.469726562 301.072265625 524.995117188 330.659179688 493.319335938 c 0
 360.083984375 461.817382812 374.4609375 419.561523438 374.4609375 367.893554688 c 2
 374.4609375 0.3193359375 l 1
 251.611328125 0.3193359375 l 1x76
 251.611328125 28.2724609375 l 1
 228.512695312 4.0732421875 207.197265625 -7.4814453125 169.7109375 -7.4814453125 c 0
 124.869140625 -7.4814453125 89.4638671875 7.421875 65.7724609375 37.8330078125 c 0
 42.3818359375 67.857421875 31.2607421875 108.94921875 31.2607421875 160.21875 c 0
 31.2607421875 210.114257812 46.634765625 250.111328125 78.044921875 278.379882812 c 0
 109.423828125 306.62109375 153.736328125 320.119140625 209.685546875 320.119140625 c 2
 243.810546875 320.119140625 l 1
 243.810546875 376.668945312 l 2
 243.810546875 419.131835938 220.071289062 423.469726562 204.810546875 423.469726562 c 0xba
202.861328125 108.54296875 m 0xba
 225.3046875 108.54296875 243.810546875 126.96484375 243.810546875 163.143554688 c 2
 243.810546875 223.59375 l 1
 223.3359375 223.59375 l 2
 169.067382812 223.59375 161.911132812 193.31640625 161.911132812 165.092773438 c 0
 161.911132812 110.44140625 190.916992188 108.54296875 202.861328125 108.54296875 c 0xba
50.4951171875 725.71875 m 1
 194.650390625 725.71875 l 1
 303.951171875 575.569335938 l 1
 186.29296875 575.569335938 l 1
 50.4951171875 725.71875 l 1
EndSplineSet
EndChar

StartChar: aacute
Encoding: 225 225 162
Width: 406
GlyphClass: 2
Flags: MW
HStem: -7.48145 116.024<147.29 214.083> 0.319336 21G<251.611 374.461 251.611 251.611> 223.594 96.5254<209.686 223.336 223.336 243.811> 423.47 117<199.567 212.441>
VStem: 31.2607 130.65<137.767 179.205 137.767 185.167> 44.9102 121.875<364.97 377.645 377.645 381.545 364.97 403.801> 243.811 130.65<163.144 223.594 223.594 223.594 320.119 367.894 0.319336 376.669 0.319336 397.9>
LayerCount: 2
Fore
SplineSet
204.810546875 423.469726562 m 0xba
 194.32421875 423.469726562 166.78515625 419.825195312 166.78515625 381.544921875 c 2
 166.78515625 364.969726562 l 1
 44.91015625 364.969726562 l 1
 44.91015625 377.64453125 l 2
 44.91015625 429.958007812 59.7978515625 471.108398438 90.685546875 499.188476562 c 0
 121.110351562 526.84765625 160.53515625 540.469726562 207.735351562 540.469726562 c 0
 259.51953125 540.469726562 301.072265625 524.995117188 330.659179688 493.319335938 c 0
 360.083984375 461.817382812 374.4609375 419.561523438 374.4609375 367.893554688 c 2
 374.4609375 0.3193359375 l 1
 251.611328125 0.3193359375 l 1x76
 251.611328125 28.2724609375 l 1
 228.512695312 4.0732421875 207.197265625 -7.4814453125 169.7109375 -7.4814453125 c 0
 124.869140625 -7.4814453125 89.4638671875 7.421875 65.7724609375 37.8330078125 c 0
 42.3818359375 67.857421875 31.2607421875 108.94921875 31.2607421875 160.21875 c 0
 31.2607421875 210.114257812 46.634765625 250.111328125 78.044921875 278.379882812 c 0
 109.423828125 306.62109375 153.736328125 320.119140625 209.685546875 320.119140625 c 2
 243.810546875 320.119140625 l 1
 243.810546875 376.668945312 l 2
 243.810546875 419.131835938 220.071289062 423.469726562 204.810546875 423.469726562 c 0xba
202.861328125 108.54296875 m 0xba
 225.3046875 108.54296875 243.810546875 126.96484375 243.810546875 163.143554688 c 2
 243.810546875 223.59375 l 1
 223.3359375 223.59375 l 2
 169.067382812 223.59375 161.911132812 193.31640625 161.911132812 165.092773438 c 0
 161.911132812 110.44140625 190.916992188 108.54296875 202.861328125 108.54296875 c 0xba
220.821289062 725.71875 m 1
 364.9765625 725.71875 l 1
 229.178710938 575.569335938 l 1
 111.520507812 575.569335938 l 1
 220.821289062 725.71875 l 1
EndSplineSet
EndChar

StartChar: acircumflex
Encoding: 226 226 163
Width: 406
GlyphClass: 2
Flags: MW
HStem: -7.48145 116.024<147.29 214.083> 0.319336 21G<251.611 374.461 251.611 251.611> 223.594 96.5254<209.686 223.336 223.336 243.811> 423.47 117<199.567 212.441>
VStem: 31.2607 130.65<137.767 179.205 137.767 185.167> 44.9102 121.875<364.97 377.645 377.645 381.545 364.97 403.801> 243.811 130.65<163.144 223.594 223.594 223.594 320.119 367.894 0.319336 376.669 0.319336 397.9>
LayerCount: 2
Fore
SplineSet
204.810546875 423.469726562 m 0xba
 194.32421875 423.469726562 166.78515625 419.825195312 166.78515625 381.544921875 c 2
 166.78515625 364.969726562 l 1
 44.91015625 364.969726562 l 1
 44.91015625 377.64453125 l 2
 44.91015625 429.958007812 59.7978515625 471.108398438 90.685546875 499.188476562 c 0
 121.110351562 526.84765625 160.53515625 540.469726562 207.735351562 540.469726562 c 0
 259.51953125 540.469726562 301.072265625 524.995117188 330.659179688 493.319335938 c 0
 360.083984375 461.817382812 374.4609375 419.561523438 374.4609375 367.893554688 c 2
 374.4609375 0.3193359375 l 1
 251.611328125 0.3193359375 l 1x76
 251.611328125 28.2724609375 l 1
 228.512695312 4.0732421875 207.197265625 -7.4814453125 169.7109375 -7.4814453125 c 0
 124.869140625 -7.4814453125 89.4638671875 7.421875 65.7724609375 37.8330078125 c 0
 42.3818359375 67.857421875 31.2607421875 108.94921875 31.2607421875 160.21875 c 0
 31.2607421875 210.114257812 46.634765625 250.111328125 78.044921875 278.379882812 c 0
 109.423828125 306.62109375 153.736328125 320.119140625 209.685546875 320.119140625 c 2
 243.810546875 320.119140625 l 1
 243.810546875 376.668945312 l 2
 243.810546875 419.131835938 220.071289062 423.469726562 204.810546875 423.469726562 c 0xba
202.861328125 108.54296875 m 0xba
 225.3046875 108.54296875 243.810546875 126.96484375 243.810546875 163.143554688 c 2
 243.810546875 223.59375 l 1
 223.3359375 223.59375 l 2
 169.067382812 223.59375 161.911132812 193.31640625 161.911132812 165.092773438 c 0
 161.911132812 110.44140625 190.916992188 108.54296875 202.861328125 108.54296875 c 0xba
161.176757812 731.569335938 m 1
 251.319335938 731.569335938 l 1
 363.958007812 569.71875 l 1
 257.768554688 569.71875 l 1
 207.672851562 641.284179688 l 1
 156.682617188 569.71875 l 1
 50.724609375 569.71875 l 1
 161.176757812 731.569335938 l 1
EndSplineSet
EndChar

StartChar: atilde
Encoding: 227 227 164
Width: 406
GlyphClass: 2
Flags: MW
HStem: -7.48145 116.024<147.29 214.083> 0.319336 21G<251.611 374.461 251.611 251.611> 223.594 96.5254<209.686 223.336 223.336 243.811> 423.47 117<199.567 212.441> 578.494 105.3<243.926 267.11 239.325 268.85> 612.619 105.3<147.083 163.717>
VStem: 31.2607 130.65<137.767 179.205 137.767 185.167> 44.9102 121.875<364.97 377.645 377.645 381.545 364.97 403.801> 243.811 130.65<163.144 223.594 223.594 223.594 320.119 367.894 0.319336 376.669 0.319336 397.9>
LayerCount: 2
Fore
SplineSet
204.810546875 423.469726562 m 0xb280
 194.32421875 423.469726562 166.78515625 419.825195312 166.78515625 381.544921875 c 2
 166.78515625 364.969726562 l 1
 44.91015625 364.969726562 l 1
 44.91015625 377.64453125 l 2
 44.91015625 429.958007812 59.7978515625 471.108398438 90.685546875 499.188476562 c 0
 121.110351562 526.84765625 160.53515625 540.469726562 207.735351562 540.469726562 c 0
 259.51953125 540.469726562 301.072265625 524.995117188 330.659179688 493.319335938 c 0
 360.083984375 461.817382812 374.4609375 419.561523438 374.4609375 367.893554688 c 2
 374.4609375 0.3193359375 l 1
 251.611328125 0.3193359375 l 1x7180
 251.611328125 28.2724609375 l 1
 228.512695312 4.0732421875 207.197265625 -7.4814453125 169.7109375 -7.4814453125 c 0
 124.869140625 -7.4814453125 89.4638671875 7.421875 65.7724609375 37.8330078125 c 0
 42.3818359375 67.857421875 31.2607421875 108.94921875 31.2607421875 160.21875 c 0
 31.2607421875 210.114257812 46.634765625 250.111328125 78.044921875 278.379882812 c 0
 109.423828125 306.62109375 153.736328125 320.119140625 209.685546875 320.119140625 c 2
 243.810546875 320.119140625 l 1
 243.810546875 376.668945312 l 2
 243.810546875 419.131835938 220.071289062 423.469726562 204.810546875 423.469726562 c 0xb280
202.861328125 108.54296875 m 0xb280
 225.3046875 108.54296875 243.810546875 126.96484375 243.810546875 163.143554688 c 2
 243.810546875 223.59375 l 1
 223.3359375 223.59375 l 2
 169.067382812 223.59375 161.911132812 193.31640625 161.911132812 165.092773438 c 0
 161.911132812 110.44140625 190.916992188 108.54296875 202.861328125 108.54296875 c 0xb280
161.913085938 717.918945312 m 0x3480
 210.166992188 717.918945312 221.186523438 683.793945312 257.462890625 683.793945312 c 0
 276.756835938 683.793945312 282.452148438 689.736328125 325.711914062 734.881835938 c 1
 325.711914062 619.965820312 l 1
 298.849609375 590.276367188 284.138671875 578.494140625 253.561523438 578.494140625 c 0x3880
 234.290039062 578.494140625 224.231445312 581.577148438 196.487304688 598.215820312 c 0
 173.224609375 611.50390625 169.423828125 612.619140625 158.010742188 612.619140625 c 0
 136.15625 612.619140625 126.534179688 602.083007812 88.7861328125 560.750976562 c 1
 88.7861328125 677.551757812 l 1
 114.748046875 704.811523438 130.73046875 717.918945312 161.913085938 717.918945312 c 0x3480
EndSplineSet
EndChar

